<svg width="608" height="478" viewBox="0 0 608 478" fill="none" xmlns="http://www.w3.org/2000/svg">
<rect width="608" height="478" fill="#E5E5E5"/>
<g id="book 1" clip-path="url(#clip0)">
<rect width="608" height="478" fill="white"/>
<path id="Vector" opacity="0.1" d="M356.571 80.7796C318.1 79.457 281.453 67.1772 246.466 53.7394C211.478 40.3016 176.823 25.4119 139.273 18.2933C115.122 13.7141 87.4991 13.0675 68.0437 25.8704C49.3134 38.2148 43.2621 59.4649 40.0106 79.2043C37.5616 94.0528 36.1231 109.677 42.8342 123.58C47.4885 133.232 55.7569 141.344 61.4693 150.62C81.3647 182.786 67.3066 222.453 45.7468 253.86C35.6416 268.597 23.9018 282.664 16.1029 298.336C8.30411 314.007 4.69001 331.989 11.514 347.99C18.2845 363.861 34.4112 375.759 51.8753 384.135C87.3565 401.153 129.15 406.02 169.934 408.777C260.185 414.885 350.912 412.239 441.401 409.594C474.891 408.613 508.523 407.619 541.466 402.499C559.762 399.654 578.647 395.145 591.933 384.247C608.791 370.415 612.969 346.99 601.675 329.649C582.719 300.558 530.344 293.333 517.077 262.108C509.789 244.925 517.279 225.786 527.872 209.844C550.602 175.655 588.699 145.658 590.708 106.58C592.087 79.7333 573.767 52.8577 545.449 40.1547C515.769 26.7933 474.599 28.4863 452.713 50.524C430.16 73.2319 390.536 81.9435 356.571 80.7796Z" fill="#6C63FF"/>
<path id="Vector_2" d="M258.842 405.897L55.3824 404.915L35.1661 358.024L106.651 352.892L94.1923 301.48L235.582 283.358L100.19 236.813L112.15 234.003L329.857 269.126L317.868 349.359L300.731 393.452L258.842 405.897Z" fill="#6C63FF"/>
<path id="Vector_3" d="M58.5031 385.276C58.5031 385.276 70.986 383.301 78.4758 392.024C78.4758 392.024 72.9833 396.303 61.1662 390.378L58.5031 385.276Z" fill="#6C63FF"/>
<path id="Vector_4" d="M57.1954 385.082C57.1954 385.082 49.2301 394.775 53.1533 405.568C53.1533 405.568 59.6445 402.999 60.3518 389.914L57.1954 385.082Z" fill="#6C63FF"/>
<path id="Vector_5" d="M50.0386 369.146C50.0386 369.146 55.0317 360.087 75.0043 372.767C75.0043 372.767 72.3413 378.857 63.5201 378.363C54.6988 377.869 52.3687 373.919 50.0386 369.146Z" fill="#6C63FF"/>
<path id="Vector_6" d="M48.7487 368.493C48.7487 368.493 38.3879 367.317 37.3833 390.772C37.3833 390.772 43.9517 392.118 48.6179 384.7C53.2841 377.281 51.3701 373.119 48.7487 368.493Z" fill="#6C63FF"/>
<path id="Vector_7" d="M42.7153 349.783C42.7153 349.783 48.5406 333.817 69.6783 345.174C69.6783 345.174 64.8516 359.823 44.879 355.214L42.7153 349.783Z" fill="#6C63FF"/>
<path id="Vector_8" d="M36.2242 325.917C36.2242 325.917 47.2091 309.786 66.6824 324.741C66.6824 324.741 59.8584 339.883 37.8886 331.654L36.2242 325.917Z" fill="#6C63FF"/>
<path id="Vector_9" d="M33.894 303.203C33.894 303.203 46.7098 288.384 65.9929 303.203C65.9929 303.203 53.8429 316.206 33.894 306.988V303.203Z" fill="#6C63FF"/>
<path id="Vector_10" d="M31.8968 281.142C31.8968 281.142 44.879 265.67 63.3536 280.319C63.3536 280.319 48.7071 293.98 31.8968 284.763V281.142Z" fill="#6C63FF"/>
<path id="Vector_11" d="M33.0618 261.555C33.0618 261.555 46.7336 241.639 64.0194 255.136C64.0194 255.136 49.3728 272.253 33.0618 265.341V261.555Z" fill="#6C63FF"/>
<path id="Vector_12" d="M36.2242 238.677C36.2242 238.677 50.7043 218.926 67.5146 234.068C67.5146 234.068 50.3714 251.186 36.2242 242.298V238.677Z" fill="#6C63FF"/>
<path id="Vector_13" d="M41.0509 218.226C41.0509 218.226 58.194 199.662 73.1497 207.057C73.1497 207.057 55.2873 226.773 40.3019 223.152L41.0509 218.226Z" fill="#6C63FF"/>
<path id="Vector_14" d="M47.0427 198.839C47.0427 198.839 66.8251 176.102 78.3331 183.697C78.3331 183.697 63.7579 201.332 45.6398 203.095L47.0427 198.839Z" fill="#6C63FF"/>
<path id="Vector_15" d="M55.6915 176.355C55.6915 176.355 73.0071 157.791 85.6564 162.4C85.6564 162.4 70.8434 181.657 53.3673 182.151L55.6915 176.355Z" fill="#6C63FF"/>
<path id="Vector_16" d="M63.5201 155.322C63.5201 155.322 82.6605 137.546 90.9824 140.674C90.9824 140.674 77.168 160.425 62.6879 159.273L63.5201 155.322Z" fill="#6C63FF"/>
<path id="Vector_17" d="M71.1763 135.9C71.1763 135.9 87.6537 114.662 96.6473 116.308C96.6473 116.308 86.655 135.242 71.1763 138.058V135.9Z" fill="#6C63FF"/>
<path id="Vector_18" d="M79.4863 109.713C79.4863 109.713 94.0497 93.4356 101.92 93.4709C101.92 93.4709 90.4237 115.221 78.8859 115.021L79.4863 109.713Z" fill="#6C63FF"/>
<path id="Vector_19" d="M84.4081 92.2776L98.4781 58.3715C98.4781 58.3715 99.1795 89.021 82.6189 98.5674L84.4081 92.2776Z" fill="#6C63FF"/>
<path id="Vector_20" d="M90.1205 54.8857C90.1205 54.8857 92.4507 26.5699 90.9527 24.2656C90.9527 24.2656 101.01 47.8082 90.0254 67.3947L90.1205 54.8857Z" fill="#6C63FF"/>
<path id="Vector_21" d="M42.1684 349.406C42.1684 349.406 27.5812 340.465 18.1359 362.339C18.1359 362.339 31.1181 370.862 43.8863 354.985L42.1684 349.406Z" fill="#6C63FF"/>
<path id="Vector_22" d="M35.7546 325.005C35.7546 325.005 17.8624 316.935 9.18384 339.772C9.18384 339.772 23.0042 349.177 37.3833 330.778L35.7546 325.005Z" fill="#6C63FF"/>
<path id="Vector_23" d="M33.0618 304.561C33.0618 304.561 20.246 289.742 0.962952 304.561C0.962952 304.561 13.113 317.563 33.0618 308.346V304.561Z" fill="#6C63FF"/>
<path id="Vector_24" d="M31.4569 281.142C31.4569 281.142 18.4747 265.67 0 280.319C0 280.319 14.6466 293.98 31.4569 284.763V281.142Z" fill="#6C63FF"/>
<path id="Vector_25" d="M33.0618 262.119C33.0618 262.119 23.9552 239.811 4.16095 249.405C4.16095 249.405 14.8606 269.185 32.2534 265.823L33.0618 262.119Z" fill="#6C63FF"/>
<path id="Vector_26" d="M37.3714 238.565C37.3714 238.565 28.3183 215.869 8.24466 226.391C8.24466 226.391 20.5373 247.194 36.4798 242.068L37.3714 238.565Z" fill="#6C63FF"/>
<path id="Vector_27" d="M42.9828 218.338C42.9828 218.338 39.4162 193.455 22.7724 191.227C22.7724 191.227 26.3032 217.468 40.7418 222.823L42.9828 218.338Z" fill="#6C63FF"/>
<path id="Vector_28" d="M47.4647 198.886C47.4647 198.886 46.0738 168.907 32.3129 167.861C32.3129 167.861 32.7765 190.616 45.9133 203.131L47.4647 198.886Z" fill="#6C63FF"/>
<path id="Vector_29" d="M57.1181 175.514C57.1181 175.514 53.0166 150.584 39.8799 147.54C39.8799 147.54 41.5086 171.682 55.8164 181.634L57.1181 175.514Z" fill="#6C63FF"/>
<path id="Vector_30" d="M65.0775 155.528C65.0775 155.528 64.9408 129.558 56.916 125.743C56.916 125.743 51.9407 149.256 62.7533 158.843L65.0775 155.528Z" fill="#6C63FF"/>
<path id="Vector_31" d="M71.7885 135.607C71.7885 135.607 70.6651 108.866 62.355 105.098C62.355 105.098 59.5137 126.26 70.5462 137.358L71.7885 135.607Z" fill="#6C63FF"/>
<path id="Vector_32" d="M80.6454 111.846C80.6454 111.846 80.5979 90.0967 74.6655 84.9944C74.6655 84.9944 68.7688 108.819 77.5485 116.22L80.6454 111.846Z" fill="#6C63FF"/>
<path id="Vector_33" d="M83.7126 91.2077L77.9408 55.0092C77.9408 55.0092 70.1003 84.6711 83.9861 97.7444L83.7126 91.2077Z" fill="#6C63FF"/>
<path id="Vector_34" d="M84.8361 55.2266C84.8361 55.2266 70.0231 30.8905 70.3262 28.1865C70.3262 28.1865 71.9014 53.6924 90.5366 66.3954L84.8361 55.2266Z" fill="#6C63FF"/>
<path id="Vector_35" d="M86.5718 48.0375C86.5718 48.0375 72.591 13.4731 66.2663 10.675C66.2663 10.675 86.2389 20.7151 87.7369 47.0499L86.5718 48.0375Z" fill="#6C63FF"/>
<path id="Vector_36" d="M78.8146 115.226L77.8576 114.938C89.6569 76.8882 92.5993 52.6284 86.1498 46.5444L86.8334 45.8272C93.6752 52.2463 90.8992 76.2416 78.8146 115.226Z" fill="#444053"/>
<path id="Vector_37" d="M46.3234 204.318L44.9087 203.818C46.1629 200.333 47.5123 196.794 48.927 193.308C61.2434 162.952 71.7291 134.713 78.452 113.034L79.6825 112.446C72.9476 134.166 62.6463 163.487 50.3179 193.884C48.9092 197.305 47.5658 200.826 46.3234 204.318Z" fill="#444053"/>
<path id="Vector_38" d="M76.0921 413.75C75.9019 413.544 56.7793 392.247 43.4464 355.89C35.6341 334.604 31.2863 312.228 30.5652 289.595C29.6498 261.302 35.6535 229.712 45.937 201.014L47.0546 202.308C23.9671 266.716 33.1391 321.908 45.3069 355.143C58.4972 391.172 77.4058 412.234 77.5901 412.445L76.0921 413.75Z" fill="#444053"/>
<path id="Vector_39" d="M374.921 368.534C374.921 368.534 361.445 384.8 372.145 409.388L264.554 455.533L254.229 457.673L249.474 437.099L252.654 411.134V396.944L374.921 368.534Z" fill="#D5D6DB"/>
<path id="Vector_40" d="M35.1661 358.024L184.081 331.178L381.4 362.262L258.842 405.897L35.1661 358.024Z" fill="#6C63FF"/>
<path id="Vector_41" d="M35.1661 358.024L184.081 331.178L381.4 362.262L258.842 405.897L35.1661 358.024Z" fill="#6C63FF"/>
<path id="Vector_42" d="M35.1661 358.018C35.1661 358.018 21.2387 384.112 37.2882 408.213L258.116 455.533C258.116 455.533 244.409 434.747 258.824 405.897L35.1661 358.018Z" fill="#6C63FF"/>
<path id="Vector_43" opacity="0.1" d="M35.1661 358.018C35.1661 358.018 21.2387 384.112 37.2882 408.213L258.116 455.533C258.116 455.533 244.409 434.747 258.824 405.897L35.1661 358.018Z" fill="black"/>
<path id="Vector_44" opacity="0.1" d="M41.7464 367.065C41.7464 367.065 33.787 386.157 41.7464 398.514Z" fill="black"/>
<path id="Vector_45" d="M258.116 455.533L381.4 403.51C381.4 403.51 388.295 404.98 383.837 409.976C379.379 414.973 260.494 460.53 260.494 460.53L37.2882 408.213L258.116 455.533Z" fill="#6C63FF"/>
<path id="Vector_46" opacity="0.1" d="M258.116 455.533L381.4 403.51C381.4 403.51 388.295 404.98 383.837 409.976C379.379 414.973 260.494 460.53 260.494 460.53L37.2882 408.213L258.116 455.533Z" fill="black"/>
<path id="Vector_47" opacity="0.1" d="M248.011 411.152C248.011 411.152 236.123 425.26 248.011 446.422Z" fill="black"/>
<path id="Vector_48" opacity="0.1" d="M305.568 410.913L252.242 428.507L252.431 429.064L305.756 411.471L305.568 410.913Z" fill="black"/>
<path id="Vector_49" opacity="0.1" d="M316.248 409.163L252.226 433.238L252.437 433.788L316.46 409.712L316.248 409.163Z" fill="black"/>
<path id="Vector_50" opacity="0.1" d="M326.057 409.078L252.583 438.819L252.808 439.363L326.283 409.622L326.057 409.078Z" fill="black"/>
<path id="Vector_51" opacity="0.1" d="M336.724 406.532L253.44 443.736L253.685 444.271L336.969 407.067L336.724 406.532Z" fill="black"/>
<path id="Vector_52" opacity="0.1" d="M345.685 406.544L254.1 446.132L254.338 446.67L345.923 407.082L345.685 406.544Z" fill="black"/>
<path id="Vector_53" opacity="0.1" d="M365.286 403.252L255.481 450.152L255.717 450.692L365.522 403.791L365.286 403.252Z" fill="black"/>
<path id="Vector_54" opacity="0.3" d="M90.4891 360.892L195.108 339.143L258.842 351.193L173.114 378.527L90.4891 360.892Z" fill="white"/>
<path id="Vector_55" d="M381.4 362.262C381.4 362.262 386.809 364.419 383.635 367.752C380.461 371.085 258.824 405.897 258.824 405.897L381.4 362.262Z" fill="#6C63FF"/>
<path id="Vector_56" d="M433.941 311.997C433.941 311.997 420.471 328.256 431.171 352.851L323.58 398.996L313.255 401.147L308.5 380.573L311.727 354.614V340.407L433.941 311.997Z" fill="#D5D6DB"/>
<path id="Vector_57" d="M94.1923 301.48L243.101 274.64L440.426 305.725L317.868 349.359L94.1923 301.48Z" fill="#3A3768"/>
<path id="Vector_58" d="M94.1685 301.48C94.1685 301.48 80.2353 327.574 96.2847 351.675L317.113 398.996C317.113 398.996 303.412 378.192 317.844 349.353L94.1685 301.48Z" fill="#3A3768"/>
<path id="Vector_59" opacity="0.1" d="M94.1685 301.48C94.1685 301.48 80.2353 327.574 96.2847 351.675L317.113 398.996C317.113 398.996 303.412 378.192 317.844 349.353L248.011 334.405L94.1685 301.48Z" fill="black"/>
<path id="Vector_60" opacity="0.1" d="M100.767 310.527C100.767 310.527 92.8133 329.614 100.767 341.976Z" fill="black"/>
<path id="Vector_61" d="M317.137 398.996L440.426 346.973C440.426 346.973 447.315 348.442 442.857 353.439C438.399 358.435 319.514 403.992 319.514 403.992L96.3085 351.675L317.137 398.996Z" fill="#3A3768"/>
<path id="Vector_62" opacity="0.1" d="M317.137 398.996L440.426 346.973C440.426 346.973 447.315 348.442 442.857 353.439C438.399 358.435 319.514 403.992 319.514 403.992L96.3085 351.675L317.137 398.996Z" fill="black"/>
<path id="Vector_63" opacity="0.1" d="M307.032 354.614C307.032 354.614 295.143 368.722 307.032 389.884Z" fill="black"/>
<path id="Vector_64" opacity="0.1" d="M364.593 354.382L311.267 371.975L311.455 372.533L364.781 354.94L364.593 354.382Z" fill="black"/>
<path id="Vector_65" opacity="0.1" d="M375.281 352.629L311.258 376.704L311.469 377.254L375.492 353.178L375.281 352.629Z" fill="black"/>
<path id="Vector_66" opacity="0.1" d="M385.081 352.536L311.607 382.277L311.832 382.821L385.306 353.08L385.081 352.536Z" fill="black"/>
<path id="Vector_67" opacity="0.1" d="M395.755 349.99L312.471 387.195L312.716 387.73L395.999 350.526L395.755 349.99Z" fill="black"/>
<path id="Vector_68" opacity="0.1" d="M404.707 349.995L313.122 389.583L313.36 390.122L404.945 350.534L404.707 349.995Z" fill="black"/>
<path id="Vector_69" opacity="0.1" d="M424.313 346.703L314.507 393.603L314.743 394.143L424.549 347.243L424.313 346.703Z" fill="black"/>
<path id="Vector_70" opacity="0.45" d="M149.515 304.355L254.134 282.605L317.868 294.656L232.14 321.99L149.515 304.355Z" fill="white"/>
<path id="Vector_71" d="M440.426 305.725C440.426 305.725 445.829 307.882 442.661 311.209C439.493 314.536 317.868 349.353 317.868 349.353L440.426 305.725Z" fill="#3A3768"/>
<path id="Vector_72" d="M439.529 247.318C439.529 247.318 426.053 276.515 436.753 301.104L329.162 334.317L318.861 336.474L314.105 315.9L317.285 289.935V275.728L439.529 247.318Z" fill="#D5D6DB"/>
<path id="Vector_73" d="M99.7977 236.807L248.713 209.961L446.037 241.046L323.473 284.68L99.7977 236.807Z" fill="#6C63FF"/>
<path id="Vector_74" d="M99.7977 236.801C99.7977 236.801 85.8466 262.895 101.896 286.996L322.724 334.317C322.724 334.317 309.017 313.513 323.449 284.68L99.7977 236.801Z" fill="#6C63FF"/>
<path id="Vector_75" opacity="0.1" d="M99.7977 236.801C99.7977 236.801 85.8466 262.895 101.896 286.996L322.724 334.317C322.724 334.317 309.017 313.513 323.449 284.68L99.7977 236.801Z" fill="black"/>
<path id="Vector_76" opacity="0.1" d="M106.378 245.848C106.378 245.848 98.4187 264.941 106.378 277.297Z" fill="black"/>
<path id="Vector_77" d="M322.748 334.317L446.032 295.226C446.032 295.226 452.927 296.696 448.469 301.692C444.01 306.689 325.126 339.313 325.126 339.313L101.92 286.996L322.748 334.317Z" fill="#6C63FF"/>
<path id="Vector_78" opacity="0.1" d="M322.748 334.317L446.032 295.226C446.032 295.226 452.927 296.696 448.469 301.692C444.01 306.689 325.126 339.313 325.126 339.313L101.92 286.996L322.748 334.317Z" fill="black"/>
<path id="Vector_79" opacity="0.1" d="M312.643 289.936C312.643 289.936 300.754 304.043 312.643 325.205Z" fill="black"/>
<path id="Vector_80" opacity="0.1" d="M370.206 289.702L316.88 307.295L317.069 307.853L370.394 290.26L370.206 289.702Z" fill="black"/>
<path id="Vector_81" opacity="0.1" d="M380.89 287.951L316.867 312.027L317.078 312.576L381.101 288.501L380.89 287.951Z" fill="black"/>
<path id="Vector_82" opacity="0.1" d="M390.685 287.862L317.21 317.602L317.435 318.146L390.91 288.406L390.685 287.862Z" fill="black"/>
<path id="Vector_83" opacity="0.1" d="M401.366 285.311L318.083 322.515L318.327 323.051L401.611 285.847L401.366 285.311Z" fill="black"/>
<path id="Vector_84" opacity="0.1" d="M410.322 285.321L318.737 324.909L318.975 325.448L410.56 285.86L410.322 285.321Z" fill="black"/>
<path id="Vector_85" opacity="0.1" d="M429.926 282.033L320.12 328.933L320.356 329.473L430.162 282.573L429.926 282.033Z" fill="black"/>
<path id="Vector_86" opacity="0.3" d="M155.121 239.676L259.739 217.926L323.473 229.977L237.746 257.311L155.121 239.676Z" fill="white"/>
<path id="Vector_87" d="M446.031 241.046C446.031 241.046 451.441 243.203 448.267 246.536C445.092 249.869 323.473 284.68 323.473 284.68L446.031 241.046Z" fill="#6C63FF"/>
<g id="Group 1">
<path id="L&#195;&#173;stek5" d="M482.131 198.328C482.131 198.328 472.293 178.142 459.739 188.088C459.739 188.088 457.04 188.982 457.165 191.785C457.165 191.785 458.211 191.256 458.948 193.414C459.223 194.181 459.591 194.914 460.042 195.595C460.648 196.515 461.541 197.215 462.586 197.587C462.586 197.587 467.984 201.814 478.261 198.933C478.261 198.933 481.126 199.421 481.602 199.075L478.321 196.565C478.321 196.565 476.537 199.022 474.053 199.239C474.053 199.239 478.303 196.747 477.845 196.171C477.75 196.053 476.062 194.919 476.062 194.919C476.062 194.919 472.971 199.169 469.101 199.392C469.101 199.392 474.576 197.094 475.42 194.484L472.739 192.92C472.739 192.92 469.695 197.576 465.297 197.987C465.297 197.987 470.932 195.389 472.133 192.614L469.285 191.439C469.285 191.439 466.224 195.918 462.568 196.241C462.568 196.241 468.774 192.591 468.62 191.209C468.62 191.209 465.939 190.275 465.107 190.369C465.107 190.369 462.836 193.531 460.69 193.531C460.69 193.531 464.578 190.657 464.34 190.192C464.34 190.192 460.524 189.899 458.508 190.78C460.321 189.891 462.338 189.485 464.358 189.605C463.559 188.658 462.496 187.965 461.302 187.612C461.302 187.612 463.43 186.807 465.279 189.687C465.279 189.687 468.251 190.034 468.602 190.369C468.602 190.369 467.181 187.277 465.368 185.925C465.368 185.925 468.114 186.477 469.369 190.657L472.252 191.785C472.252 191.785 470.593 187.594 469.065 186.278C469.065 186.278 471.776 187.265 472.953 192.156L475.598 193.655C475.598 193.655 474.445 189.94 473.066 188.106C473.066 188.106 475.384 189.563 476.341 194.119L477.988 195.295C477.988 195.295 477.096 192.597 476.799 191.844C476.502 191.092 476.65 190.945 476.65 190.945C477.781 192.34 478.495 194.02 478.713 195.794C478.713 195.794 481.947 198.504 482.131 198.328Z" fill="#6C63FF"/>
<path id="L&#195;&#173;stek3" d="M222.564 159.42C222.564 159.42 212.72 139.239 200.19 149.185C200.19 149.185 197.485 150.079 197.616 152.883C197.616 152.883 198.656 152.348 199.399 154.511C199.677 155.276 200.044 156.006 200.493 156.686C201.101 157.608 201.996 158.31 203.043 158.685C203.043 158.685 208.435 162.905 218.712 160.025C218.712 160.025 221.583 160.513 222.053 160.172L218.772 157.662C218.772 157.662 216.988 160.113 214.504 160.331C214.504 160.331 218.76 157.844 218.302 157.268C218.207 157.151 216.519 156.016 216.519 156.016C216.519 156.016 213.422 160.266 209.558 160.484C209.558 160.484 215.027 158.191 215.871 155.575L213.196 154.012C213.196 154.012 210.146 158.667 205.754 159.079C205.754 159.079 211.389 156.486 212.584 153.712L209.742 152.536C209.742 152.536 206.681 157.015 203.019 157.339C203.019 157.339 209.225 153.688 209.071 152.307C209.071 152.307 206.39 151.378 205.558 151.466C205.558 151.466 203.287 154.635 201.147 154.635C201.147 154.635 205.029 151.76 204.791 151.296C204.791 151.296 200.975 151.002 198.965 151.884C200.776 150.994 202.79 150.588 204.809 150.708C204.008 149.764 202.946 149.071 201.753 148.715C201.753 148.715 203.881 147.916 205.73 150.79C205.73 150.79 208.702 151.137 209.053 151.472C209.053 151.472 207.632 148.38 205.819 147.034C205.819 147.034 208.565 147.581 209.82 151.737L212.703 152.865C212.703 152.865 211.044 148.68 209.516 147.357C209.516 147.357 212.227 148.351 213.41 153.236L216.049 154.74C216.049 154.74 214.902 151.019 213.523 149.191C213.523 149.191 215.835 150.649 216.792 155.199L218.439 156.41C218.439 156.41 217.547 153.712 217.25 152.959C216.953 152.207 217.101 152.054 217.101 152.054C218.232 153.45 218.948 155.129 219.17 156.904C219.17 156.904 222.35 159.596 222.564 159.42Z" fill="#6C63FF"/>
<path id="L&#195;&#173;stek2" d="M502.3 127.018C502.3 127.018 479.712 125.672 482.351 141.344C482.351 141.344 481.822 144.112 484.36 145.37C484.36 145.37 484.402 144.195 486.678 144.6C487.491 144.735 488.317 144.775 489.139 144.718C490.237 144.638 491.28 144.209 492.111 143.495V143.495C492.111 143.495 498.472 140.897 500.938 130.622C500.938 130.622 502.769 128.382 502.722 127.806L498.905 129.417C498.905 129.417 500.207 132.138 499.185 134.402C499.185 134.402 499.06 129.517 498.329 129.628C498.18 129.628 496.344 130.575 496.344 130.575C496.344 130.575 498.584 135.319 496.896 138.763C496.896 138.763 497.538 132.92 495.642 130.916L492.955 132.468C492.955 132.468 495.577 137.364 493.799 141.361C493.799 141.361 494.257 135.23 492.391 132.844L489.959 134.725C489.959 134.725 492.42 139.551 490.916 142.866C490.916 142.866 490.72 135.73 489.43 135.189C489.43 135.189 487.302 137.047 486.975 137.811C486.975 137.811 488.664 141.338 487.617 143.166C487.617 143.166 486.975 138.411 486.429 138.387C486.429 138.387 484.306 141.538 484.086 143.677C484.189 141.682 484.821 139.748 485.917 138.07C484.693 138.299 483.563 138.877 482.666 139.733C482.666 139.733 482.999 137.505 486.44 137.311C486.44 137.311 488.194 134.919 488.664 134.772C488.664 134.772 485.24 134.49 483.159 135.401C483.159 135.401 484.99 133.302 489.288 134.225L491.665 132.285C491.665 132.285 487.154 131.697 485.246 132.35C485.246 132.35 487.445 130.492 492.313 131.844L494.929 130.298C494.929 130.298 491.083 129.481 488.794 129.775C488.794 129.775 491.208 128.488 495.696 129.881L497.568 129.052C497.568 129.052 494.75 128.506 493.924 128.417C493.098 128.329 493.056 128.106 493.056 128.106C494.841 127.812 496.673 128.016 498.347 128.694C498.347 128.694 502.371 127.265 502.3 127.018Z" fill="#6C63FF"/>
<path id="L&#195;&#173;stek4" d="M450.692 98.5086C450.692 98.5086 440.854 78.3284 428.318 88.2745C428.318 88.2745 425.619 89.168 425.744 91.9719C425.744 91.9719 426.79 91.4429 427.527 93.6002C427.804 94.368 428.173 95.1002 428.627 95.7811C429.233 96.7015 430.126 97.4012 431.171 97.7738V97.7738C431.171 97.7738 436.568 101.994 446.84 99.1199C446.84 99.1199 449.711 99.602 450.187 99.261L446.923 96.7451C446.923 96.7451 445.14 99.2022 442.661 99.4197C442.661 99.4197 446.911 96.9273 446.454 96.3513C446.358 96.2337 444.67 95.0992 444.67 95.0992C444.67 95.0992 441.579 99.3492 437.71 99.5667C437.71 99.5667 443.184 97.2741 444.028 94.6642L441.312 93.1123C441.312 93.1123 438.268 97.762 433.87 98.1794C433.87 98.1794 439.505 95.5812 440.705 92.8066L437.858 91.631C437.858 91.631 434.797 96.1161 431.141 96.4335C431.141 96.4335 437.341 92.7831 437.186 91.4076C437.186 91.4076 434.512 90.473 433.679 90.567C433.679 90.567 431.409 93.7295 429.263 93.7295C429.263 93.7295 433.15 90.855 432.913 90.3907C432.913 90.3907 429.096 90.0967 427.081 90.9785C428.892 90.0884 430.906 89.683 432.924 89.8028C432.127 88.8581 431.067 88.1653 429.875 87.8101C429.875 87.8101 432.003 87.0106 433.852 89.8851C433.852 89.8851 436.824 90.2378 437.175 90.5729C437.175 90.5729 435.754 87.475 433.935 86.1289C433.935 86.1289 436.681 86.6814 437.935 90.8609L440.824 91.9896C440.824 91.9896 439.166 87.7983 437.638 86.4757C437.638 86.4757 440.349 87.4691 441.526 92.354L444.171 93.8588C444.171 93.8588 443.018 90.1438 441.639 88.3097C441.639 88.3097 443.957 89.7675 444.908 94.3174L446.555 95.5283C446.555 95.5283 445.669 92.8301 445.366 92.0777C445.063 91.3253 445.217 91.1783 445.217 91.1783C446.345 92.5753 447.059 94.254 447.28 96.0279C447.28 96.0279 450.508 98.6967 450.692 98.5086Z" fill="#6C63FF"/>
<path id="L&#195;&#173;stek3_2" d="M222.564 159.42C222.564 159.42 212.72 139.239 200.19 149.185C200.19 149.185 197.485 150.079 197.616 152.883C197.616 152.883 198.656 152.348 199.399 154.511C199.677 155.276 200.044 156.006 200.493 156.686C201.101 157.608 201.996 158.31 203.043 158.685C203.043 158.685 208.435 162.905 218.712 160.025C218.712 160.025 221.583 160.513 222.053 160.172L218.772 157.662C218.772 157.662 216.988 160.113 214.504 160.331C214.504 160.331 218.76 157.844 218.302 157.268C218.207 157.151 216.519 156.016 216.519 156.016C216.519 156.016 213.422 160.266 209.558 160.484C209.558 160.484 215.027 158.191 215.871 155.575L213.196 154.012C213.196 154.012 210.146 158.667 205.754 159.079C205.754 159.079 211.389 156.486 212.584 153.712L209.742 152.536C209.742 152.536 206.681 157.015 203.019 157.339C203.019 157.339 209.225 153.688 209.071 152.307C209.071 152.307 206.39 151.378 205.558 151.466C205.558 151.466 203.287 154.635 201.147 154.635C201.147 154.635 205.029 151.76 204.791 151.296C204.791 151.296 200.975 151.002 198.965 151.884C200.776 150.994 202.79 150.588 204.809 150.708C204.008 149.764 202.946 149.071 201.753 148.715C201.753 148.715 203.881 147.916 205.73 150.79C205.73 150.79 208.702 151.137 209.053 151.472C209.053 151.472 207.632 148.38 205.819 147.034C205.819 147.034 208.565 147.581 209.82 151.737L212.703 152.865C212.703 152.865 211.044 148.68 209.516 147.357C209.516 147.357 212.227 148.351 213.41 153.236L216.049 154.74C216.049 154.74 214.902 151.019 213.523 149.191C213.523 149.191 215.835 150.649 216.792 155.199L218.439 156.41C218.439 156.41 217.547 153.712 217.25 152.959C216.953 152.207 217.101 152.054 217.101 152.054C218.232 153.45 218.948 155.129 219.17 156.904C219.17 156.904 222.35 159.596 222.564 159.42Z" fill="#6C63FF"/>
<path id="L&#195;&#173;stek4_2" d="M450.692 98.5086C450.692 98.5086 440.854 78.3284 428.318 88.2745C428.318 88.2745 425.619 89.168 425.744 91.9719C425.744 91.9719 426.79 91.4429 427.527 93.6002C427.804 94.368 428.173 95.1002 428.627 95.7811C429.233 96.7015 430.126 97.4012 431.171 97.7738V97.7738C431.171 97.7738 436.568 101.994 446.84 99.1199C446.84 99.1199 449.711 99.602 450.187 99.261L446.923 96.7451C446.923 96.7451 445.14 99.2022 442.661 99.4197C442.661 99.4197 446.911 96.9273 446.454 96.3513C446.358 96.2337 444.67 95.0992 444.67 95.0992C444.67 95.0992 441.579 99.3492 437.71 99.5667C437.71 99.5667 443.184 97.2741 444.028 94.6642L441.312 93.1123C441.312 93.1123 438.268 97.762 433.87 98.1794C433.87 98.1794 439.505 95.5812 440.705 92.8066L437.858 91.631C437.858 91.631 434.797 96.1161 431.141 96.4335C431.141 96.4335 437.341 92.7831 437.186 91.4076C437.186 91.4076 434.512 90.473 433.679 90.567C433.679 90.567 431.409 93.7295 429.263 93.7295C429.263 93.7295 433.15 90.855 432.913 90.3907C432.913 90.3907 429.096 90.0967 427.081 90.9785C428.892 90.0884 430.906 89.683 432.924 89.8028C432.127 88.8581 431.067 88.1653 429.875 87.8101C429.875 87.8101 432.003 87.0106 433.852 89.8851C433.852 89.8851 436.824 90.2378 437.175 90.5729C437.175 90.5729 435.754 87.475 433.935 86.1289C433.935 86.1289 436.681 86.6814 437.935 90.8609L440.824 91.9896C440.824 91.9896 439.166 87.7983 437.638 86.4757C437.638 86.4757 440.349 87.4691 441.526 92.354L444.171 93.8588C444.171 93.8588 443.018 90.1438 441.639 88.3097C441.639 88.3097 443.957 89.7675 444.908 94.3174L446.555 95.5283C446.555 95.5283 445.669 92.8301 445.366 92.0777C445.063 91.3253 445.217 91.1783 445.217 91.1783C446.345 92.5753 447.059 94.254 447.28 96.0279C447.28 96.0279 450.508 98.6967 450.692 98.5086Z" fill="#6C63FF"/>
<path id="L&#195;&#173;stek2_2" d="M502.3 127.018C502.3 127.018 479.712 125.672 482.351 141.344C482.351 141.344 481.822 144.112 484.36 145.37C484.36 145.37 484.402 144.195 486.678 144.6C487.491 144.735 488.317 144.775 489.139 144.718C490.237 144.638 491.28 144.209 492.111 143.495V143.495C492.111 143.495 498.472 140.897 500.938 130.622C500.938 130.622 502.769 128.382 502.722 127.806L498.905 129.417C498.905 129.417 500.207 132.138 499.185 134.402C499.185 134.402 499.06 129.517 498.329 129.628C498.18 129.628 496.344 130.575 496.344 130.575C496.344 130.575 498.584 135.319 496.896 138.763C496.896 138.763 497.538 132.92 495.642 130.916L492.955 132.468C492.955 132.468 495.577 137.364 493.799 141.361C493.799 141.361 494.257 135.23 492.391 132.844L489.959 134.725C489.959 134.725 492.42 139.551 490.916 142.866C490.916 142.866 490.72 135.73 489.43 135.189C489.43 135.189 487.302 137.047 486.975 137.811C486.975 137.811 488.664 141.338 487.617 143.166C487.617 143.166 486.975 138.411 486.429 138.387C486.429 138.387 484.306 141.538 484.086 143.677C484.189 141.682 484.821 139.748 485.917 138.07C484.693 138.299 483.563 138.877 482.666 139.733C482.666 139.733 482.999 137.505 486.44 137.311C486.44 137.311 488.194 134.919 488.664 134.772C488.664 134.772 485.24 134.49 483.159 135.401C483.159 135.401 484.99 133.302 489.288 134.225L491.665 132.285C491.665 132.285 487.154 131.697 485.246 132.35C485.246 132.35 487.445 130.492 492.313 131.844L494.929 130.298C494.929 130.298 491.083 129.481 488.794 129.775C488.794 129.775 491.208 128.488 495.696 129.881L497.568 129.052C497.568 129.052 494.75 128.506 493.924 128.417C493.098 128.329 493.056 128.106 493.056 128.106C494.841 127.812 496.673 128.016 498.347 128.694C498.347 128.694 502.371 127.265 502.3 127.018Z" fill="#6C63FF"/>
<path id="L&#195;&#173;stek1" d="M184.521 62.6039C184.521 62.6039 161.933 61.2578 164.572 76.9293C164.572 76.9293 164.043 79.698 166.581 80.956C166.581 80.956 166.623 79.7803 168.899 80.1859C169.712 80.3239 170.538 80.3634 171.36 80.3035C172.469 80.2284 173.522 79.7993 174.362 79.0808V79.0808C174.362 79.0808 180.717 76.4826 183.189 66.2073C183.189 66.2073 185.02 63.9677 184.973 63.3916L181.145 65.0022C181.145 65.0022 182.446 67.7239 181.424 69.987C181.424 69.987 181.299 65.1022 180.562 65.2139C180.413 65.2139 178.583 66.1603 178.583 66.1603C178.583 66.1603 180.824 70.9041 179.129 74.3487C179.129 74.3487 179.771 68.5057 177.881 66.5012L175.194 68.0531C175.194 68.0531 177.816 72.9497 176.039 76.947C176.039 76.947 176.496 70.8159 174.63 68.4293L172.193 70.3104C172.193 70.3104 174.659 75.1364 173.156 78.4518C173.156 78.4518 172.959 71.3155 171.669 70.7747C171.669 70.7747 169.536 72.6323 169.215 73.3965C169.215 73.3965 170.903 76.9234 169.851 78.7516C169.851 78.7516 169.215 73.996 168.662 73.9725C168.662 73.9725 166.54 77.1233 166.32 79.263C166.422 77.2682 167.052 75.3348 168.145 73.6551C166.922 73.8839 165.793 74.4623 164.899 75.3187C164.899 75.3187 165.226 73.0908 168.674 72.8968C168.674 72.8968 170.427 70.5043 170.897 70.3633C170.897 70.3633 167.467 70.0752 165.392 70.9864C165.392 70.9864 167.223 68.8878 171.521 69.8107L173.899 67.8709C173.899 67.8709 169.393 67.283 167.479 67.9355C167.479 67.9355 169.684 66.078 174.546 67.43L177.168 65.884C177.168 65.884 173.322 65.0669 171.033 65.3608C171.033 65.3608 173.447 64.0735 177.935 65.4666L179.801 64.6378C179.801 64.6378 176.99 64.0911 176.163 64.0029C175.337 63.9148 175.295 63.6914 175.295 63.6914C177.08 63.4016 178.911 63.605 180.586 64.2792C180.586 64.2792 184.598 62.8508 184.521 62.6039Z" fill="#6C63FF"/>
</g>
<path id="Vector_88" opacity="0.1" d="M120.044 460.953C127.591 460.953 133.71 460.277 133.71 459.442C133.71 458.608 127.591 457.931 120.044 457.931C112.496 457.931 106.378 458.608 106.378 459.442C106.378 460.277 112.496 460.953 120.044 460.953Z" fill="#6C63FF"/>
<path id="Vector_89" opacity="0.1" d="M30.4582 435.277C38.0057 435.277 44.124 434.6 44.124 433.766C44.124 432.931 38.0057 432.255 30.4582 432.255C22.9108 432.255 16.7924 432.931 16.7924 433.766C16.7924 434.6 22.9108 435.277 30.4582 435.277Z" fill="#6C63FF"/>
<path id="Vector_90" opacity="0.1" d="M188.331 478.006C195.879 478.006 201.997 477.329 201.997 476.495C201.997 475.661 195.879 474.984 188.331 474.984C180.784 474.984 174.665 475.661 174.665 476.495C174.665 477.329 180.784 478.006 188.331 478.006Z" fill="#6C63FF"/>
<path id="Vector_91" opacity="0.1" d="M538.268 440.861C545.816 440.861 551.934 440.185 551.934 439.35C551.934 438.516 545.816 437.84 538.268 437.84C530.721 437.84 524.602 438.516 524.602 439.35C524.602 440.185 530.721 440.861 538.268 440.861Z" fill="#6C63FF"/>
<path id="Vector_92" opacity="0.1" d="M424.549 433.531C432.096 433.531 438.215 432.854 438.215 432.02C438.215 431.186 432.096 430.509 424.549 430.509C417.002 430.509 410.883 431.186 410.883 432.02C410.883 432.854 417.002 433.531 424.549 433.531Z" fill="#6C63FF"/>
<path id="Vector_93" opacity="0.1" d="M350.983 469.283C359.909 469.283 367.146 468.053 367.146 466.537C367.146 465.021 359.909 463.792 350.983 463.792C342.057 463.792 334.821 465.021 334.821 466.537C334.821 468.053 342.057 469.283 350.983 469.283Z" fill="#6C63FF"/>
<path id="Vector_94" d="M358.194 438.945C358.194 438.945 335.689 450.443 347.316 463.986C347.316 463.986 348.409 466.925 351.572 466.72C351.572 466.72 350.942 465.579 353.355 464.668C354.214 464.34 355.03 463.912 355.786 463.392C356.808 462.694 357.572 461.685 357.962 460.518V460.518C357.962 460.518 362.563 454.428 358.996 443.159C358.996 443.159 359.46 439.973 359.055 439.456L356.321 443.165C356.321 443.165 359.145 445.04 359.472 447.797C359.472 447.797 356.499 443.171 355.905 443.682C355.774 443.788 354.55 445.711 354.55 445.711C354.55 445.711 359.448 448.996 359.81 453.264C359.81 453.264 357.052 447.286 354.074 446.434L352.368 449.443C352.368 449.443 357.718 452.665 358.312 457.508C358.312 457.508 355.204 451.365 352.029 450.125L350.775 453.305C350.775 453.305 355.935 456.55 356.41 460.583C356.41 460.583 352.095 453.84 350.543 454.052C350.543 454.052 349.568 457.038 349.699 457.961C349.699 457.961 353.343 460.371 353.408 462.74C353.408 462.74 350.044 458.537 349.527 458.813C349.527 458.813 349.313 463.04 350.347 465.238C350.347 465.238 348.564 462.099 348.855 458.813C347.813 459.725 347.063 460.918 346.697 462.246C346.697 462.246 345.729 459.924 348.921 457.785C348.921 457.785 349.224 454.499 349.592 454.093C349.592 454.093 346.139 455.762 344.67 457.808C344.67 457.808 345.211 454.757 349.895 453.241L351.084 450.019C351.084 450.019 346.4 451.983 344.956 453.711C344.956 453.711 345.996 450.684 351.453 449.232L353.07 446.292C353.07 446.292 348.909 447.68 346.876 449.232C346.876 449.232 348.451 446.627 353.569 445.428L354.883 443.577C354.883 443.577 351.863 444.641 351.019 445.023C350.175 445.405 350.008 445.217 350.008 445.217C351.551 443.926 353.426 443.084 355.424 442.783C355.424 442.783 358.402 439.144 358.194 438.945Z" fill="#6C63FF"/>
<path id="Vector_95" d="M424.989 221.782C421.101 211.337 399.702 210.355 390.417 213.018C383.819 214.917 369.91 217.056 362.479 218.132L361.998 217.679C362.961 217.397 362.985 216.704 362.866 215.675C362.797 214.319 362.816 212.96 362.925 211.607C367.478 213.006 371.532 209.697 371.532 209.697C376.882 207.345 375.444 197.282 376.466 194.531C377.233 192.473 378.059 180.352 378.428 174.309H378.505L378.547 172.281C378.6 171.405 378.624 170.894 378.624 170.894C378.624 170.894 379.147 156.116 380.169 153.124C381.12 150.373 381.893 136.512 382.012 134.313C382.012 134.125 382.012 134.025 382.012 134.025L381.935 132.744C381.988 131.809 382.012 130.769 382.006 129.675C382.006 124.649 381.477 118.318 381.412 117.296C381.412 117.149 381.412 116.972 381.412 116.761C381.453 114.615 381.18 103.87 371.937 99.8077C368.531 98.3028 364.435 96.51 360.47 94.7641C359.448 86.0348 357.112 77.3526 357.314 68.5586C357.314 67.236 357.433 65.9134 357.563 64.5967C357.563 64.9787 357.522 65.3667 357.516 65.7723C357.516 66.6247 357.516 67.4829 357.516 68.3353C357.867 57.337 362.069 46.2799 361.677 35.5167C361.641 36.5689 361.564 37.627 361.463 38.6851C361.668 35.0446 361.283 31.395 360.322 27.8749C359.965 26.6346 359.483 25.3531 358.455 24.5243C357.483 23.8567 356.368 23.4202 355.198 23.2487C352.385 22.5367 349.527 22.0104 346.644 21.6733C346.206 20.347 345.556 19.0987 344.718 17.9758C338.691 9.79325 329.762 2.10443 319.205 0.340937C313.909 -0.540809 307.816 0.193979 304.214 3.93846C303.838 4.2674 303.484 4.62089 303.156 4.99655C301.218 7.28321 300.386 10.287 298.401 12.5678C298.27 12.7206 298.121 12.8617 297.978 13.0087C294.091 16.4475 288.034 17.1646 283.712 20.2507C282.951 20.8048 282.237 21.4202 281.578 22.0907C279.837 23.7971 278.276 25.6741 276.918 27.6927C274.974 30.3967 272.977 33.2124 272.359 36.4396C271.117 42.9057 275.569 49.0368 276.395 55.5441C278.238 70.1046 261.945 83.0251 265.03 97.3917C265.853 100.921 267.671 104.148 270.272 106.697C263.918 112.387 258.509 117.907 258.509 117.907V118.236H257.504L257.605 119.412H257.504L258.057 125.79L257.504 135.077C257.504 135.077 257.504 135.177 257.504 135.366V135.413V135.665C257.504 135.665 257.504 135.765 257.504 135.953H257.54C257.724 139.357 258.455 151.596 259.323 154.176C260.346 157.168 260.863 171.946 260.863 171.946C260.863 171.946 261.992 192.832 263.026 195.595C264.061 198.357 262.592 208.392 267.96 210.761C269.53 211.952 271.39 212.714 273.352 212.971C273.078 215.169 273.25 216.762 274.136 217.262C274.515 217.482 274.945 217.604 275.384 217.615C275.02 218.149 274.696 218.709 274.416 219.29C272.285 219.07 270.192 218.582 268.186 217.838C262.42 215.487 243.286 210.196 237.728 213.917C232.17 217.638 218.795 221.012 224.971 235.99C231.147 250.968 234.024 251.344 234.024 251.344C235.926 252.709 237.593 254.366 238.964 256.253C240.819 259.01 258.099 265.317 262.42 265.317C264.257 265.289 266.094 265.379 267.918 265.588C267.918 265.588 263.229 269.655 263.853 272.018C264.477 274.381 262.426 293.298 262.426 293.298C262.426 293.298 267.181 298.036 269.214 291.822L269.286 291.916C269.666 292.428 271.723 294.738 275.593 291.822C277.176 290.634 278.858 289.58 280.621 288.672L299.358 286.05C301.311 285.929 303.27 285.915 305.225 286.009C308.197 286.25 311.115 284.51 312.952 283.164C316.834 284.621 321.197 286.215 323.271 286.796C327.48 287.972 346.822 293.104 351.346 291.499C352.286 291.129 353.122 290.541 353.783 289.783L358.098 289.918L356.077 290.318C356.077 290.318 360.012 290.382 365.362 290.453L365.136 290.582L371.847 290.523C381.667 290.611 392.7 290.641 394.15 290.318C396.421 289.818 408.22 290.171 411.698 290.318H412.667C412.667 290.318 425.631 287.761 420.281 274.752C416.168 264.759 403.524 261.855 397.913 261.055C399.494 260.744 400.855 260.503 401.759 260.362C405.676 259.774 413.285 256.247 413.903 255.042C414.521 253.837 420.899 250.339 422.546 248.346C424.192 246.354 428.894 232.228 424.989 221.782ZM317.606 251.015L316.97 251.221L316.542 251.362L315.722 252.162C315.068 251.727 314.367 251.268 313.636 250.798C314.926 250.874 316.251 250.951 317.606 251.015Z" fill="url(#paint0_linear)"/>
<path id="Vector_96" d="M355.507 189.034C355.507 189.034 364.601 212.548 369.773 210.196C374.944 207.845 373.542 197.852 374.528 195.113C375.515 192.373 376.609 171.599 376.609 171.599C376.609 171.599 377.108 156.904 378.095 153.929C379.01 151.196 379.753 137.411 379.878 135.242C379.878 135.054 379.878 134.954 379.878 134.954L378.897 117.907L373.345 116.537L360.47 121.24L358.687 131.31L357.991 135.242L357.694 136.917L355.507 189.034Z" fill="#F7C4A7"/>
<path id="Vector_97" opacity="0.1" d="M358.503 185.096C358.503 185.096 367.181 192.121 369.797 192.738C372.412 193.355 374.017 198.834 374.017 198.834" fill="black"/>
<path id="Vector_98" d="M284.384 190.063C284.384 190.063 275.289 213.576 270.118 211.225C264.946 208.874 266.349 198.881 265.362 196.141C264.376 193.402 263.282 172.628 263.282 172.628C263.282 172.628 262.783 157.932 261.796 154.958C260.881 152.225 260.137 138.44 260.013 136.271C260.013 136.083 260.013 135.983 260.013 135.983L260.999 118.936L266.551 117.566L279.426 122.269L281.21 132.338L281.905 136.271L282.202 137.946L284.384 190.063Z" fill="#F7C4A7"/>
<path id="Vector_99" d="M343.606 64.2322H323.307V95.5224H343.606V64.2322Z" fill="#3E373A"/>
<path id="Vector_100" opacity="0.1" d="M343.606 64.2322H323.307V95.5224H343.606V64.2322Z" fill="black"/>
<path id="Vector_101" d="M280.817 213.482C280.817 213.482 273.881 221.024 276.454 222.394C279.028 223.763 295.678 249.434 295.678 249.434C295.678 249.434 350.365 256.094 360.678 246.101C370.991 236.108 370.783 218.255 370.783 218.255C370.783 218.255 362.497 220.019 361.594 219.061C360.69 218.103 355.727 213.482 355.727 213.482C355.727 213.482 285.573 209.273 280.817 213.482Z" fill="#4B4B5B"/>
<path id="Vector_102" opacity="0.02" d="M280.817 213.482C280.817 213.482 273.881 221.024 276.454 222.394C279.028 223.763 295.678 249.434 295.678 249.434C295.678 249.434 350.365 256.094 360.678 246.101C370.991 236.108 370.783 218.255 370.783 218.255C370.783 218.255 362.497 220.019 361.594 219.061C360.69 218.103 355.727 213.482 355.727 213.482C355.727 213.482 285.573 209.273 280.817 213.482Z" fill="black"/>
<path id="Vector_103" d="M379.266 118.154L361.433 132.262L356.042 132.65L354.062 132.791L320.816 135.201L286.34 132.709L281.21 132.338L274.671 131.868L260.999 118.936C260.999 118.936 270.677 108.684 279.153 101.765C282.494 99.0318 285.65 96.8215 287.951 95.9515L288.343 95.8163C289.79 95.2583 291.082 94.3677 292.112 93.2181C298.805 86.3934 304.993 69.5521 304.993 69.5521C304.993 69.5521 334.518 54.4684 330.951 74.2547C327.385 94.0411 344.225 89.1503 344.225 89.1503L349.777 91.6545L351.97 92.6479L357.564 95.1815L370.183 100.907C380.086 105.416 379.266 118.154 379.266 118.154Z" fill="#F7C4A7"/>
<path id="Vector_104" opacity="0.1" d="M319.431 85.6645C334.096 85.6645 345.984 73.9082 345.984 59.4061C345.984 44.904 334.096 33.1478 319.431 33.1478C304.766 33.1478 292.878 44.904 292.878 59.4061C292.878 73.9082 304.766 85.6645 319.431 85.6645Z" fill="black"/>
<path id="Vector_105" opacity="0.1" d="M379.307 136.859H260.013C260.013 136.671 260.013 136.571 260.013 136.571L260.999 119.524C260.999 119.524 270.677 109.272 279.153 102.353L354.05 99.4138L357.534 95.7811L370.153 101.507C380.062 106.009 379.266 118.748 379.266 118.748C379.266 118.748 380.621 133.508 379.307 136.859Z" fill="black"/>
<path id="Vector_106" d="M379.307 136.271H260.013C260.013 136.083 260.013 135.983 260.013 135.983L260.999 118.936C260.999 118.936 270.677 108.684 279.153 101.765L354.05 98.826L357.534 95.1932L370.153 100.919C380.062 105.421 379.266 118.16 379.266 118.16C379.266 118.16 380.621 132.92 379.307 136.271Z" fill="#E7C7CA"/>
<path id="Vector_107" opacity="0.1" d="M300.309 88.4684C300.309 88.4684 319.128 112.182 344.195 87.9805C369.262 63.7796 346.971 141.961 346.971 141.961L292.878 148.31L300.309 88.4684Z" fill="black"/>
<path id="Vector_108" d="M300.309 89.6441C300.309 89.6441 319.128 113.357 344.195 89.1562C369.262 64.9552 346.971 143.137 346.971 143.137L292.878 149.485L300.309 89.6441Z" fill="#E7C7CA"/>
<path id="Vector_109" opacity="0.1" d="M351.94 93.8059L353.932 123.838L356.066 133.831L357.694 141.473C357.694 141.473 361.855 200.256 360.666 203.195C359.478 206.134 361.261 208.486 361.51 210.049C361.76 211.613 361.261 215.54 361.457 217.303C361.653 219.067 361.457 219.849 356.904 219.22C352.35 218.591 346.002 217.497 346.002 217.497C346.002 217.497 329.953 218.673 324.407 216.715C318.861 214.758 308.357 214.752 308.357 214.752C308.357 214.752 292.504 215.146 287.356 214.558C282.208 213.97 279.427 220.83 276.062 218.867C272.698 216.903 280.021 197.905 282.399 192.414C284.776 186.924 279.23 173.016 279.23 173.016L286.363 133.884L287.951 125.014V97.1272L288.343 96.992C289.79 96.434 291.082 95.5434 292.112 94.3938L293.895 122.457L349.771 124.42V92.836" fill="black"/>
<path id="Vector_110" d="M351.94 92.6303L353.932 122.663L356.066 132.656L357.694 140.297C357.694 140.297 361.855 199.08 360.666 202.02C359.478 204.959 361.261 207.31 361.51 208.874C361.76 210.437 361.261 214.364 361.457 216.128C361.653 217.891 361.457 218.673 356.904 218.044C352.35 217.415 346.002 216.322 346.002 216.322C346.002 216.322 329.953 217.497 324.407 215.54C318.861 213.582 308.357 213.576 308.357 213.576C308.357 213.576 292.504 213.97 287.356 213.382C282.208 212.795 279.427 219.655 276.062 217.691C272.698 215.728 280.021 196.729 282.399 191.239C284.776 185.748 279.23 171.84 279.23 171.84L286.363 132.709L287.951 123.838V95.9515L288.343 95.8163C289.79 95.2583 291.082 94.3677 292.112 93.2181L293.895 121.281L349.771 123.244V91.6604" fill="#E7C7CA"/>
<g id="Group 2">
<path id="L&#195;&#173;stek1_2" d="M184.521 62.6039C184.521 62.6039 161.933 61.2578 164.572 76.9293C164.572 76.9293 164.043 79.698 166.581 80.956C166.581 80.956 166.623 79.7803 168.899 80.1859C169.712 80.3239 170.538 80.3634 171.36 80.3035C172.469 80.2284 173.522 79.7993 174.362 79.0808V79.0808C174.362 79.0808 180.717 76.4826 183.189 66.2073C183.189 66.2073 185.02 63.9677 184.973 63.3916L181.145 65.0022C181.145 65.0022 182.446 67.7239 181.424 69.987C181.424 69.987 181.299 65.1022 180.562 65.2139C180.413 65.2139 178.583 66.1603 178.583 66.1603C178.583 66.1603 180.824 70.9041 179.129 74.3487C179.129 74.3487 179.771 68.5057 177.881 66.5012L175.194 68.0531C175.194 68.0531 177.816 72.9497 176.039 76.947C176.039 76.947 176.496 70.8159 174.63 68.4293L172.193 70.3104C172.193 70.3104 174.659 75.1364 173.156 78.4518C173.156 78.4518 172.959 71.3155 171.669 70.7747C171.669 70.7747 169.536 72.6323 169.215 73.3965C169.215 73.3965 170.903 76.9234 169.851 78.7516C169.851 78.7516 169.215 73.996 168.662 73.9725C168.662 73.9725 166.54 77.1233 166.32 79.263C166.422 77.2682 167.052 75.3348 168.145 73.6551C166.922 73.8839 165.793 74.4623 164.899 75.3187C164.899 75.3187 165.226 73.0908 168.674 72.8968C168.674 72.8968 170.427 70.5043 170.897 70.3633C170.897 70.3633 167.467 70.0752 165.392 70.9864C165.392 70.9864 167.223 68.8878 171.521 69.8107L173.899 67.8709C173.899 67.8709 169.393 67.283 167.479 67.9355C167.479 67.9355 169.684 66.078 174.546 67.43L177.168 65.884C177.168 65.884 173.322 65.0669 171.033 65.3608C171.033 65.3608 173.447 64.0735 177.935 65.4666L179.801 64.6378C179.801 64.6378 176.99 64.0911 176.163 64.0029C175.337 63.9148 175.295 63.6914 175.295 63.6914C177.08 63.4016 178.911 63.605 180.586 64.2792C180.586 64.2792 184.598 62.8508 184.521 62.6039Z" fill="#6C63FF"/>
<path id="Vlasy2-st&#195;&#173;n" opacity="0.1" d="M358.366 29.9558C358.027 28.7273 357.558 27.4517 356.583 26.6287C355.652 25.9677 354.577 25.5327 353.444 25.359C350.733 24.654 347.976 24.1315 345.194 23.7954C344.796 22.4901 344.194 21.2544 343.41 20.1332C337.585 11.9976 328.966 4.32644 318.825 2.59234C313.517 1.6812 307.364 2.49829 303.964 6.63661C302.098 8.91151 301.295 11.9271 299.411 14.1608C295.779 18.499 289.223 19.0339 284.646 22.3905C282.203 24.1539 280.431 26.711 278.701 29.1917C276.829 31.878 274.903 34.6761 274.309 37.8857C273.12 44.2989 277.406 50.4123 278.196 56.8843C279.979 71.3626 264.287 84.2067 267.253 98.4909C268.983 106.821 276.764 112.687 284.812 115.661C287.647 116.714 290.887 117.76 292.213 120.452C292.807 121.628 292.908 122.986 293.467 124.173C295.345 128.135 301.521 128.288 304.838 125.402C308.155 122.516 309.201 117.848 309.594 113.492C311.187 94.4702 303.483 75.6773 304.38 56.608C304.648 50.8414 306.289 44.2989 311.514 41.6889C318.546 38.1619 327.004 44.0402 334.744 42.9175C338.406 51.7299 339.183 61.4557 336.967 70.7277C335.736 75.8007 333.608 80.7208 333.454 85.9525C333.222 93.9176 337.567 101.195 341.324 108.237C342.13 109.554 342.669 111.014 342.911 112.534C342.97 114.077 342.68 115.614 342.061 117.031C339.939 122.68 336.277 127.924 335.861 133.937C335.739 134.639 335.899 135.36 336.307 135.947C336.726 136.339 337.266 136.58 337.841 136.629C344.26 137.717 349.812 132.091 352.945 126.442C356.437 120.203 358.473 113.269 358.901 106.15C359.549 94.1822 355.21 82.4079 355.477 70.4279C355.786 56.8079 362.01 43.0938 358.366 29.9558Z" fill="black"/>
<path id="Vlasy2" d="M358.96 29.368C358.622 28.1394 358.152 26.8639 357.177 26.0409C356.246 25.3799 355.171 24.9449 354.039 24.7712C351.327 24.0661 348.571 23.5437 345.788 23.2075C345.39 21.9023 344.789 20.6666 344.005 19.5454C338.179 11.4098 329.56 3.73861 319.419 2.00451C314.111 1.09337 307.959 1.91046 304.559 6.04878C302.692 8.32368 301.89 11.3393 300.005 13.573C296.374 17.9112 289.817 18.4461 285.24 21.8026C282.797 23.5661 281.026 26.1232 279.296 28.6038C277.423 31.2902 275.497 34.0883 274.903 37.2978C273.714 43.7111 278 49.8245 278.791 56.2965C280.574 70.7748 264.881 83.6189 267.847 97.9031C269.577 106.233 277.358 112.099 285.406 115.074C288.242 116.126 291.481 117.172 292.807 119.864C293.401 121.04 293.503 122.398 294.061 123.585C295.94 127.547 302.116 127.7 305.433 124.814C308.749 121.928 309.796 117.26 310.188 112.905C311.781 93.8824 304.077 75.0894 304.975 56.0202C305.242 50.2536 306.883 43.7111 312.108 41.1011C319.14 37.5741 327.599 43.4524 335.338 42.3297C339 51.142 339.778 60.8679 337.561 70.1399C336.331 75.2129 334.203 80.133 334.048 85.3647C333.816 93.3298 338.161 100.607 341.918 107.649C342.724 108.966 343.263 110.426 343.505 111.946C343.565 113.489 343.274 115.026 342.655 116.443C340.533 122.092 336.872 127.336 336.455 133.349C336.334 134.051 336.494 134.773 336.901 135.36C337.32 135.752 337.861 135.992 338.435 136.042C344.855 137.129 350.407 131.504 353.539 125.854C357.032 119.615 359.067 112.681 359.495 105.563C360.143 93.5943 355.804 81.8201 356.071 69.8401C356.381 56.2201 362.604 42.506 358.96 29.368Z" fill="#F6F28B"/>
</g>
<path id="Vector_111" d="M345.83 289.642L369.41 290.388L366.028 273.094L347.964 274.793L345.83 289.642Z" fill="#C3C7D9"/>
<path id="Vector_112" d="M418.896 248.652C417.309 250.61 411.169 254.137 410.574 255.312C409.98 256.488 402.65 260.015 398.882 260.603C395.113 261.191 383.231 263.742 381.049 265.111C379.486 266.099 366.938 269.226 358.693 270.96C356.46 271.483 354.2 271.885 351.922 272.165C348.356 272.359 309.326 259.233 309.326 259.233L316.851 251.591L317.268 251.45C319.396 250.739 329.227 247.453 334.684 245.889C340.83 244.126 347.964 236.878 347.964 236.878C347.964 236.878 358.461 233.351 359.852 232.957C361.243 232.563 356.285 219.243 356.285 219.243C356.285 219.243 379.07 216.116 387.986 213.465C396.902 210.814 417.511 211.795 421.274 222.182C425.036 232.569 420.507 246.695 418.896 248.652Z" fill="#4B4B5B"/>
<path id="Vector_113" d="M315.068 281.765C315.068 281.765 310.515 286.467 305.956 286.079C301.396 285.691 285.454 287.255 285.454 287.255C282.565 288.395 279.859 289.945 277.423 291.858C273.696 294.762 271.717 292.446 271.348 291.952L271.283 291.858C269.298 298.036 264.744 293.327 264.744 293.327C264.744 293.327 266.724 274.517 266.117 272.165C265.511 269.814 270.035 265.776 270.035 265.776L275.384 264.43L288.937 260.997L308.357 267.657L315.068 281.765Z" fill="#E7C7CA"/>
<path id="Vector_114" opacity="0.1" d="M275.361 264.43L271.348 291.952L271.283 291.858C269.298 298.036 264.744 293.327 264.744 293.327C264.744 293.327 266.724 274.517 266.117 272.165C265.511 269.814 270.035 265.776 270.035 265.776L275.361 264.43Z" fill="black"/>
<path id="Vector_115" opacity="0.1" d="M303.406 186.142C303.406 186.142 313.903 189.669 323.022 186.142Z" fill="black"/>
<path id="Vector_116" opacity="0.1" d="M339.243 192.808C339.243 192.808 343.6 194.96 346.971 192.808Z" fill="black"/>
<path id="Vector_117" opacity="0.1" d="M339.243 197.911C339.243 197.911 346.573 198.881 347.964 196.923Z" fill="black"/>
<path id="Vector_118" opacity="0.1" d="M336.866 208.874C336.866 208.874 350.633 207.11 354.05 204.759Z" fill="black"/>
<path id="Vector_119" opacity="0.1" d="M294.858 204.759C294.858 204.759 302.585 209.068 308.333 208.874Z" fill="black"/>
<path id="Vector_120" opacity="0.1" d="M358.687 270.96C356.454 271.483 354.194 271.885 351.916 272.165C348.35 272.359 309.32 259.233 309.32 259.233L316.845 251.591L317.262 251.45C318.45 252.279 319.425 252.99 320.121 253.531C323.396 256.082 326.558 252.749 327.747 252.749C328.936 252.749 339.237 261.173 339.237 261.173C339.237 261.173 348.748 263.33 350.335 265.288C351.922 267.245 357.468 266.857 358.455 268.227C358.752 268.65 358.788 269.691 358.687 270.96Z" fill="black"/>
<path id="Vector_121" d="M285.454 220.042C285.454 220.042 275.836 220.589 270.29 218.279C264.744 215.969 246.317 210.637 240.967 214.382C235.618 218.126 222.736 221.436 228.681 236.331C234.625 251.227 237.401 251.615 237.401 251.615C239.24 252.979 240.846 254.626 242.156 256.494C243.939 259.239 260.583 265.505 264.744 265.505C268.905 265.505 276.234 265.505 286.536 272.559C296.837 279.613 306.152 280.401 306.152 280.401C306.152 280.401 319.229 285.691 323.301 286.867C327.373 288.043 345.978 293.133 350.341 291.57C354.704 290.006 357.474 280.201 357.474 280.201C357.474 280.201 359.454 271.384 358.461 270.014C357.468 268.644 351.922 269.032 350.341 267.075C348.76 265.117 339.243 262.96 339.243 262.96C339.243 262.96 328.966 254.531 327.777 254.531C326.588 254.531 323.426 257.858 320.15 255.312C313.626 250.533 306.772 246.212 299.637 242.38C292.112 238.459 285.454 220.042 285.454 220.042Z" fill="#4B4B5B"/>
<path id="Vector_122" opacity="0.1" d="M266.117 225.727C267.83 225.381 269.6 225.431 271.29 225.872C272.98 226.314 274.544 227.135 275.86 228.272C280.615 232.193 296.617 240.064 296.617 240.064" fill="black"/>
<path id="Vector_123" opacity="0.1" d="M385.014 225.48C385.014 225.48 363.811 228.654 359.852 232.963Z" fill="black"/>
<path id="Vector_124" d="M409.385 290.388H408.452C405.099 290.271 393.74 289.918 391.553 290.388C388.979 290.976 354.895 290.388 354.895 290.388L361.558 289.018C361.558 289.018 359.085 280.448 360.654 279.737C360.654 279.737 351.738 273.929 358.461 270.008C365.184 266.087 372.43 267.739 372.43 267.739L389.306 262.084L392.545 260.997C392.545 260.997 411.567 261.978 416.715 274.911C421.862 287.843 409.385 290.388 409.385 290.388Z" fill="#E7C7CA"/>
<path id="Vector_125" opacity="0.1" d="M409.385 290.388H408.452C413.986 285.874 426.505 272.13 389.306 262.113L392.545 261.026C392.545 261.026 411.567 262.008 416.715 274.94C421.862 287.872 409.385 290.388 409.385 290.388Z" fill="black"/>
<path id="Vector_126" d="M374.415 275.152C374.99 275.152 375.456 274.691 375.456 274.123C375.456 273.555 374.99 273.094 374.415 273.094C373.841 273.094 373.375 273.555 373.375 274.123C373.375 274.691 373.841 275.152 374.415 275.152Z" fill="#4B4B5B"/>
<path id="Vector_127" d="M368.37 276.85C368.945 276.85 369.41 276.39 369.41 275.822C369.41 275.254 368.945 274.793 368.37 274.793C367.796 274.793 367.33 275.254 367.33 275.822C367.33 276.39 367.796 276.85 368.37 276.85Z" fill="#4B4B5B"/>
<g id="Group" opacity="0.1">
<path id="Vector_128" opacity="0.1" d="M338.916 58.4362C339.147 51.9706 337.984 45.5304 335.504 39.5433C327.777 40.6837 319.312 34.7878 312.274 38.3148C307.067 40.9247 305.433 47.4673 305.141 53.2339C305.07 54.7564 305.058 56.2789 305.088 57.8013C305.088 57.2605 305.088 56.7139 305.141 56.1731C305.415 50.4064 307.049 43.8639 312.274 41.2539C319.312 37.7269 327.765 43.6052 335.504 42.4825C337.604 47.5537 338.76 52.9585 338.916 58.4362V58.4362Z" fill="black"/>
<path id="Vector_129" opacity="0.1" d="M279.034 57.3605C279.136 56.0796 279.11 54.7919 278.957 53.5161C278.327 48.3432 275.468 43.3995 274.951 38.3559C274.285 44.44 278.202 50.283 278.957 56.4552C279.034 56.7726 279.034 57.0548 279.034 57.3605Z" fill="black"/>
<path id="Vector_130" opacity="0.1" d="M310.354 110.112C309.986 114.474 308.946 119.136 305.599 122.028C302.252 124.92 296.088 124.761 294.228 120.799C293.633 119.623 293.544 118.254 292.968 117.078C291.648 114.386 288.402 113.34 285.567 112.287C277.513 109.307 269.743 103.47 268.014 95.1168C267.859 94.3601 267.754 93.5943 267.699 92.8243C267.552 94.5741 267.658 96.3356 268.014 98.056C269.743 106.386 277.524 112.246 285.567 115.226C288.402 116.279 291.648 117.325 292.968 120.017C293.562 121.193 293.663 122.551 294.228 123.738C296.1 127.7 302.276 127.853 305.599 124.967C308.922 122.081 309.956 117.413 310.354 113.052C310.535 110.756 310.597 108.452 310.539 106.15C310.539 107.485 310.461 108.802 310.354 110.112Z" fill="black"/>
<path id="Vector_131" opacity="0.1" d="M356.268 67.0538C356.268 67.9062 356.268 68.7526 356.268 69.5991C356.6 58.6655 360.654 47.673 360.256 36.9686C359.947 46.8677 356.493 56.9901 356.268 67.0538Z" fill="black"/>
<path id="Vector_132" opacity="0.1" d="M343.511 111.282C343.658 110.585 343.704 109.87 343.648 109.16C343.409 107.639 342.869 106.179 342.061 104.863C338.625 98.3969 334.708 91.7779 334.244 84.6005C334.244 84.9062 334.203 85.1884 334.197 85.5175C333.959 93.4768 338.304 100.76 342.061 107.802C342.699 108.893 343.187 110.063 343.511 111.282V111.282Z" fill="black"/>
<path id="Vector_133" opacity="0.1" d="M359.686 102.776C359.242 109.898 357.193 116.831 353.688 123.068C350.549 128.717 345.003 134.343 338.578 133.255C338.002 133.206 337.461 132.963 337.044 132.567C336.923 132.433 336.829 132.277 336.765 132.109C336.693 132.567 336.634 133.032 336.598 133.502C336.475 134.202 336.635 134.922 337.044 135.507C337.461 135.903 338.002 136.145 338.578 136.194C345.003 137.282 350.549 131.656 353.688 126.007C357.193 119.77 359.242 112.837 359.686 105.715C359.757 104.34 359.763 102.97 359.721 101.601C359.709 101.994 359.709 102.382 359.686 102.776Z" fill="black"/>
</g>
<path id="Vector_134" opacity="0.1" d="M360.654 279.737C360.654 279.737 375.699 285.979 385.62 272.165" stroke="black" stroke-miterlimit="10"/>
<path id="Vector_135" opacity="0.1" d="M363.615 290.647C363.615 290.647 375.901 282.746 391.553 290.388" stroke="black" stroke-miterlimit="10"/>
<path id="Vector_136" opacity="0.1" d="M281.37 288.854C281.37 288.854 286.53 277.344 300.309 286.12" stroke="black" stroke-miterlimit="10"/>
<path id="Vector_137" opacity="0.1" d="M264.643 118.642L275.165 109.236C275.165 109.236 315.96 106.591 317.648 120.305C317.648 120.305 332.11 104.046 362.527 107.667L375.396 117.801L339.826 133.238L305.26 145.094L279.801 133.825L264.643 118.642Z" fill="black"/>
<path id="Vector_138" d="M264.643 119.23L275.165 109.824C275.165 109.824 315.96 107.179 317.648 120.893C317.648 120.893 332.11 104.634 362.527 108.255L375.396 118.389L339.826 133.825L305.26 145.682L279.801 134.413L264.643 119.23Z" fill="#D5D6DB"/>
<path id="Vector_139" opacity="0.1" d="M259.989 120.405L264.643 175.467L313.98 177.919L311.84 123.092L311.799 122.169L259.989 120.405Z" fill="black"/>
<path id="Vector_140" d="M259.989 119.23L264.643 174.292L313.98 176.743L311.84 121.916L311.799 120.993L259.989 119.23Z" fill="#6C63FF"/>
<path id="Vector_141" opacity="0.1" d="M377.655 119.23L326.76 126.777V182.086L376.496 174.979L377.655 119.23Z" fill="black"/>
<path id="Vector_142" d="M377.655 118.054L326.76 125.602V180.911L376.496 173.804L377.655 118.054Z" fill="#6C63FF"/>
<path id="Vector_143" opacity="0.3" d="M365.654 131.551L338.161 134.572L338.762 143.836L365.636 140.932L365.654 131.551Z" fill="white"/>
<path id="Vector_144" d="M267.318 203.777L270.118 211.225C270.118 211.225 274.279 214.752 278.832 212.988C283.385 211.225 287.356 210.349 289.336 208.633C291.315 206.916 294.091 198.293 294.091 198.293C294.091 198.293 296.867 188.887 299.637 186.536C302.407 184.185 309.742 151.79 299.637 154.958C289.532 158.126 281.804 187.518 281.804 187.518C281.804 187.518 280.021 189.669 277.447 189.869C274.873 190.069 269.72 189.475 268.727 191.633C267.734 193.79 264.346 199.468 267.318 203.777Z" fill="#F7C4A7"/>
<path id="Vector_145" opacity="0.1" d="M326.76 126.771C324.155 127.352 321.448 127.322 318.856 126.683C316.264 126.044 313.86 124.814 311.834 123.092L313.98 177.913C313.98 177.913 319.033 183.321 326.76 182.086V126.771Z" fill="black"/>
<path id="Vector_146" d="M326.76 125.596C324.155 126.176 321.448 126.146 318.856 125.507C316.264 124.868 313.86 123.638 311.834 121.916L313.98 176.737C313.98 176.737 319.033 182.145 326.76 180.911V125.596Z" fill="#6C63FF"/>
<path id="Vector_147" opacity="0.1" d="M326.76 125.596C324.155 126.176 321.448 126.146 318.856 125.507C316.264 124.868 313.86 123.638 311.834 121.916L313.98 176.737C313.98 176.737 319.033 182.145 326.76 180.911V125.596Z" fill="black"/>
<path id="Vector_148" opacity="0.1" d="M327.949 119.418C327.949 119.418 348.653 113.157 354.05 114.039Z" fill="black"/>
<path id="Vector_149" opacity="0.1" d="M304.791 116.684C304.791 116.684 284.723 111.982 281.37 113.316Z" fill="black"/>
<path id="Vector_150" opacity="0.1" d="M341.003 120.2C341.003 120.2 354.847 115.179 359.852 117.566Z" fill="black"/>
<path id="Vector_151" opacity="0.1" d="M334.03 246.13C336.176 244.537 338.459 243.135 340.854 241.939C344.421 240.24 350.959 235.832 350.959 235.832" fill="black"/>
<path id="Vector_152" opacity="0.1" d="M281.37 186.142C281.37 186.142 272.686 193.167 270.076 193.784C267.467 194.401 265.856 199.88 265.856 199.88" fill="black"/>
<path id="Vector_153" d="M372.549 202.731L369.779 210.196C369.779 210.196 365.618 213.723 361.059 211.96C356.499 210.196 352.541 209.32 350.555 207.604C348.57 205.888 345.8 197.264 345.8 197.264C345.8 197.264 343.03 187.859 340.254 185.507C337.478 183.156 330.149 150.761 340.254 153.929C350.359 157.098 358.087 186.489 358.087 186.489C358.087 186.489 359.87 188.641 362.444 188.84C365.018 189.04 370.171 188.447 371.164 190.604C372.157 192.761 375.521 198.44 372.549 202.731Z" fill="#F7C4A7"/>
<path id="Vector_154" opacity="0.1" d="M367.692 188.999C367.692 188.999 373.369 192.608 373.345 196.923Z" fill="black"/>
<path id="Vector_155" d="M319.526 84.3771C334.191 84.3771 346.079 72.6209 346.079 58.1188C346.079 43.6167 334.191 31.8604 319.526 31.8604C304.862 31.8604 292.973 43.6167 292.973 58.1188C292.973 72.6209 304.862 84.3771 319.526 84.3771Z" fill="#F7C4A7"/>
<path id="Vlasy1" d="M302.853 51.0707C306.075 50.571 308.898 48.7194 311.977 47.6554C318.867 45.2629 326.487 46.903 333.46 49.0603C336.135 49.8892 338.851 50.8238 341.657 50.8238C344.462 50.8238 347.44 49.6893 348.873 47.2968C350.193 45.0983 349.937 42.2415 348.825 39.9313C347.714 37.6211 345.853 35.7636 343.975 34.0119C337.793 28.2394 330.125 22.8431 321.642 23.4309C318.23 23.6719 314.967 24.877 311.829 26.2114C307.877 27.8955 304.03 29.8113 300.309 31.9486C297.449 33.5886 292.153 35.7812 290.507 38.7792C286.762 45.5333 297.027 51.976 302.853 51.0707Z" fill="#F6F28B"/>
<path id="Vector_156" opacity="0.1" d="M348.873 44.8279C347.44 47.2204 344.462 48.3549 341.657 48.3549C338.851 48.3549 336.135 47.4555 333.454 46.6267C326.481 44.4694 318.867 42.8234 311.971 45.2218C308.898 46.2858 306.069 48.1609 302.847 48.6312C298.151 49.3601 290.59 45.3158 289.77 40.1723C288.848 46.1153 297.616 51.2059 302.847 50.3947C306.069 49.895 308.898 48.0434 311.971 46.9853C318.867 44.5869 326.481 46.2328 333.454 48.3902C336.135 49.219 338.845 50.1537 341.657 50.1184C344.468 50.0831 347.44 48.9898 348.873 46.5914C349.616 45.2867 349.908 43.7781 349.705 42.2944C349.612 43.1877 349.329 44.0513 348.873 44.8279Z" fill="black"/>
<path id="Vector_157" d="M564.357 363.403C564.357 363.403 567.882 367.958 562.729 374.842C557.575 381.725 553.331 387.533 555.043 391.824C555.043 391.824 562.818 379.045 569.143 378.862C575.467 378.68 571.306 371.085 564.357 363.403Z" fill="#6C63FF"/>
<path id="Vector_158" opacity="0.1" d="M564.357 363.403C564.664 363.843 564.907 364.324 565.077 364.831C571.247 372.002 574.54 378.698 568.602 378.862C563.073 379.021 556.446 388.797 554.859 391.26C554.909 391.459 554.971 391.655 555.043 391.848C555.043 391.848 562.818 379.068 569.143 378.886C575.467 378.704 571.306 371.085 564.357 363.403Z" fill="black"/>
<path id="Vector_159" d="M570.896 369.21C570.896 370.815 570.712 372.114 570.492 372.114C570.272 372.114 570.082 370.815 570.082 369.21C570.082 367.605 570.308 368.364 570.533 368.364C570.759 368.364 570.896 367.605 570.896 369.21Z" fill="#FFD037"/>
<path id="Vector_160" d="M573.149 371.127C571.728 371.891 570.486 372.355 570.379 372.161C570.272 371.967 571.336 371.185 572.757 370.398C574.177 369.61 573.619 370.186 573.726 370.398C573.833 370.609 574.576 370.357 573.149 371.127Z" fill="#FFD037"/>
<path id="Vector_161" d="M545.728 363.403C545.728 363.403 542.203 367.958 547.357 374.842C552.511 381.725 556.755 387.533 555.037 391.824C555.037 391.824 547.268 379.045 540.937 378.862C534.606 378.68 538.797 371.085 545.728 363.403Z" fill="#6C63FF"/>
<path id="Vector_162" opacity="0.1" d="M545.728 363.403C545.421 363.843 545.179 364.324 545.009 364.831C538.839 372.002 535.546 378.698 541.484 378.862C547.006 379.021 553.64 388.797 555.227 391.26C555.177 391.46 555.114 391.656 555.037 391.848C555.037 391.848 547.268 379.068 540.937 378.886C534.606 378.704 538.797 371.085 545.728 363.403Z" fill="black"/>
<path id="Vector_163" d="M539.178 369.21C539.178 370.815 539.356 372.114 539.582 372.114C539.808 372.114 539.992 370.815 539.992 369.21C539.992 367.605 539.76 368.364 539.54 368.364C539.32 368.364 539.178 367.605 539.178 369.21Z" fill="#FFD037"/>
<path id="Vector_164" d="M536.931 371.127C538.351 371.891 539.594 372.355 539.701 372.161C539.808 371.967 538.744 371.185 537.323 370.398C535.902 369.61 536.461 370.186 536.354 370.398C536.247 370.609 535.504 370.357 536.931 371.127Z" fill="#FFD037"/>
<path id="Vector_165" opacity="0.1" d="M555.043 426.694C575.397 426.694 591.897 424.191 591.897 421.104C591.897 418.017 575.397 415.514 555.043 415.514C534.689 415.514 518.189 418.017 518.189 421.104C518.189 424.191 534.689 426.694 555.043 426.694Z" fill="#6C63FF"/>
<path id="Vector_166" d="M574.011 385.681L573.832 387.104L573.583 389.114L573.482 389.955L573.232 391.965L573.125 392.806L572.881 394.81L570.058 417.677C569.808 419.717 566.438 421.31 562.366 421.31H547.714C543.642 421.31 540.277 419.717 540.022 417.677L537.198 394.81L536.949 392.806L536.848 391.965L536.598 389.955L536.491 389.114L536.247 387.104L536.069 385.681C535.932 384.506 537.751 383.553 540.057 383.553H570.028C572.329 383.553 574.154 384.523 574.011 385.681Z" fill="#65617D"/>
<path id="Vector_167" d="M573.832 387.104L573.589 389.114H536.497L536.247 387.104H573.832Z" fill="#9D9CB5"/>
<path id="Vector_168" d="M573.482 389.955L573.238 391.965H536.848L536.598 389.955H573.482Z" fill="#9D9CB5"/>
<path id="Vector_169" d="M573.131 392.806L572.881 394.816H537.198L536.955 392.806H573.131Z" fill="#9D9CB5"/>
</g>
<defs>
<linearGradient id="paint0_linear" x1="324.936" y1="295.044" x2="324.936" y2="-6.61702e-06" gradientUnits="userSpaceOnUse">
<stop stop-color="#808080" stop-opacity="0.25"/>
<stop offset="0.54" stop-color="#808080" stop-opacity="0.12"/>
<stop offset="1" stop-color="#808080" stop-opacity="0.1"/>
</linearGradient>
<clipPath id="clip0">
<rect width="608" height="478" fill="white"/>
</clipPath>
</defs>
</svg>
