<svg width="744" height="661" viewBox="0 0 744 661" fill="none" xmlns="http://www.w3.org/2000/svg">
<g id="Group 148">
<g id="undraw_mindfulness_scgo 1" clip-path="url(#clip0)">
<rect width="744" height="661" fill="white"/>
<path id="Vector" opacity="0.2" d="M224.393 44.183C215.239 45.6902 205.291 48.2274 199.241 58.3289C192.088 70.2713 193.047 88.4233 196.288 103.542C199.528 118.661 204.649 133.398 204.596 149.232C204.453 174.405 190.842 195.771 175.35 207.036C159.858 218.302 142.372 221.936 125.649 228.508C110.052 234.667 95.1363 243.299 81.2584 254.196C69.4828 263.419 57.6392 275.476 52.926 293.676C45.199 323.523 59.4143 355.2 73.4558 379.705C116.51 454.841 171.392 526.934 238.48 534.231C288.596 539.64 338.766 507.628 388.338 519.37C411.111 524.75 432.328 539.077 453.704 551.697C475.08 564.316 497.566 575.543 520.611 574.113C543.656 572.682 567.555 556.18 577.54 525.952C583.44 508.086 584.036 487.368 589.49 469.206C606.198 413.491 658.27 404.448 688.483 362.517C704.345 340.492 713.409 310.245 720.962 280.274C733.161 231.513 742.308 180.118 740.269 128.276C739.377 105.707 736.039 82.2709 726.121 64.8533C718.908 52.1764 708.839 43.7633 699.005 35.6269C676.617 17.1028 652.582 -2.0222 626.863 0.181231C612.044 1.44987 598.025 9.77712 583.885 16.3016C556.95 28.7018 528.852 34.8447 500.897 40.9017C454.709 50.9173 407.856 60.9329 361.04 55.9347C340.367 53.7122 320.842 44.8412 300.5 41.207C275.763 36.7906 249.032 40.1291 224.393 44.183Z" fill="#6C63FF"/>
<path id="Vector_2" opacity="0.5" d="M597.466 198.375C613.318 198.375 626.169 182.147 626.169 162.128C626.169 142.11 613.318 125.882 597.466 125.882C581.614 125.882 568.763 142.11 568.763 162.128C568.763 182.147 581.614 198.375 597.466 198.375Z" fill="#6C63FF"/>
<path id="Vector_3" d="M507.076 290.09H244.425L259.433 231.761H267.477L269.086 246.889H477.059L478.131 231.761H487.777L507.076 290.09Z" fill="#6C63FF"/>
<path id="Vector_4" opacity="0.2" d="M507.076 290.09H244.425L259.433 231.761H267.477L269.086 246.889H477.059L478.131 231.761H487.777L507.076 290.09Z" fill="black"/>
<path id="Vector_5" d="M525.302 303.053H220.843L213.335 279.292H531.737L525.302 303.053Z" fill="#6C63FF"/>
<path id="Vector_6" d="M515.656 318.181H228.344L220.843 303.053H525.302L515.656 318.181Z" fill="#6C63FF"/>
<path id="Vector_7" d="M515.649 313.86H228.344V331.144H515.649V313.86Z" fill="#6C63FF"/>
<path id="Vector_8" d="M538.165 359.226H211.19V424.041H538.165V359.226Z" fill="#6C63FF"/>
<path id="Vector_9" opacity="0.2" d="M538.165 359.226H211.19V424.041H538.165V359.226Z" fill="black"/>
<path id="Vector_10" d="M744 577.422L0 570.946L21.4438 417.555H727.919L744 577.422Z" fill="#6C63FF"/>
<g id="Group" opacity="0.2">
<path id="Vector_11" opacity="0.2" d="M210.737 529.901H220.239C223.244 529.901 226.126 531.408 228.251 534.092C230.375 536.775 231.569 540.414 231.569 544.209V573.111H199.407V544.209C199.407 540.414 200.601 536.775 202.726 534.092C204.85 531.408 207.732 529.901 210.737 529.901Z" fill="black"/>
<path id="Vector_12" opacity="0.2" d="M280.416 529.901H289.918C292.923 529.901 295.805 531.408 297.93 534.092C300.055 536.775 301.248 540.414 301.248 544.209V573.111H269.086V544.209C269.086 540.414 270.28 536.775 272.405 534.092C274.53 531.408 277.411 529.901 280.416 529.901Z" fill="black"/>
<path id="Vector_13" opacity="0.2" d="M367.249 529.901H376.751C379.756 529.901 382.638 531.408 384.763 534.092C386.887 536.775 388.081 540.414 388.081 544.209V573.111H355.919V544.209C355.919 540.414 357.113 536.775 359.237 534.092C361.362 531.408 364.244 529.901 367.249 529.901V529.901Z" fill="black"/>
<path id="Vector_14" opacity="0.2" d="M457.299 529.901H466.794C469.799 529.901 472.681 531.408 474.805 534.092C476.93 536.775 478.124 540.414 478.124 544.209V573.111H445.969V544.209C445.969 540.414 447.163 536.775 449.288 534.092C451.413 531.408 454.295 529.901 457.299 529.901Z" fill="black"/>
<path id="Vector_15" opacity="0.2" d="M529.131 529.901H538.633C541.638 529.901 544.52 531.408 546.645 534.092C548.77 536.775 549.963 540.414 549.963 544.209V573.111H517.801V544.209C517.801 540.414 518.995 536.775 521.12 534.092C523.245 531.408 526.126 529.901 529.131 529.901Z" fill="black"/>
</g>
<path id="Vector_16" opacity="0.2" d="M389.154 424.041H354.846V510.461H389.154V424.041Z" fill="black"/>
<path id="Vector_17" d="M216.553 359.226H211.19V424.041H216.553V359.226Z" fill="#6C63FF"/>
<path id="Vector_18" d="M247.642 359.226H242.28V424.041H247.642V359.226Z" fill="#6C63FF"/>
<path id="Vector_19" d="M281.95 359.226H276.587V424.041H281.95V359.226Z" fill="#6C63FF"/>
<path id="Vector_20" d="M315.184 359.226H309.821V424.041H315.184V359.226Z" fill="#6C63FF"/>
<path id="Vector_21" d="M351.636 359.226H346.273V424.041H351.636V359.226Z" fill="#6C63FF"/>
<path id="Vector_22" d="M400.944 359.226H395.581V424.041H400.944V359.226Z" fill="#6C63FF"/>
<path id="Vector_23" d="M434.179 359.226H428.816V424.041H434.179V359.226Z" fill="#6C63FF"/>
<path id="Vector_24" d="M471.704 359.226H466.341V424.041H471.704V359.226Z" fill="#6C63FF"/>
<path id="Vector_25" d="M503.866 359.226H498.503V424.041H503.866V359.226Z" fill="#6C63FF"/>
<path id="Vector_26" d="M538.173 359.226H532.81V424.041H538.173V359.226Z" fill="#6C63FF"/>
<path id="Vector_27" d="M538.165 363.547H211.19L191.899 341.942H556.391L538.165 363.547Z" fill="#6C63FF"/>
<path id="Vector_28" d="M224.054 363.547H211.19V372.189H224.054V363.547Z" fill="#6C63FF"/>
<path id="Vector_29" d="M251.933 363.547H239.069V372.189H251.933V363.547Z" fill="#6C63FF"/>
<path id="Vector_30" d="M285.16 363.547H272.296V372.189H285.16V363.547Z" fill="#6C63FF"/>
<path id="Vector_31" d="M319.467 363.547H306.604V372.189H319.467V363.547Z" fill="#6C63FF"/>
<path id="Vector_32" d="M355.919 363.547H343.056V372.189H355.919V363.547Z" fill="#6C63FF"/>
<path id="Vector_33" d="M404.162 363.547H391.299V372.189H404.162V363.547Z" fill="#6C63FF"/>
<path id="Vector_34" d="M438.469 363.547H425.606V372.189H438.469V363.547Z" fill="#6C63FF"/>
<path id="Vector_35" d="M475.986 363.547H463.123V372.189H475.986V363.547Z" fill="#6C63FF"/>
<path id="Vector_36" d="M508.148 363.547H495.285V372.189H508.148V363.547Z" fill="#6C63FF"/>
<path id="Vector_37" d="M538.165 363.547H525.302V372.189H538.165V363.547Z" fill="#6C63FF"/>
<path id="Vector_38" d="M558.536 341.942H190.827L186.536 326.823H561.754L558.536 341.942Z" fill="#6C63FF"/>
<path id="Vector_39" opacity="0.2" d="M558.536 341.942H190.827L186.536 326.823H561.754L558.536 341.942Z" fill="black"/>
<path id="Vector_40" d="M372 337.621C376.735 337.621 380.573 329.882 380.573 320.337C380.573 310.791 376.735 303.053 372 303.053C367.265 303.053 363.427 310.791 363.427 320.337C363.427 329.882 367.265 337.621 372 337.621Z" fill="#6C63FF"/>
<path id="Vector_41" opacity="0.2" d="M372 337.621C376.735 337.621 380.573 329.882 380.573 320.337C380.573 310.791 376.735 303.053 372 303.053C367.265 303.053 363.427 310.791 363.427 320.337C363.427 329.882 367.265 337.621 372 337.621Z" fill="black"/>
<path id="Vector_42" d="M372 331.134C374.962 331.134 377.363 326.3 377.363 320.337C377.363 314.373 374.962 309.539 372 309.539C369.038 309.539 366.637 314.373 366.637 320.337C366.637 326.3 369.038 331.134 372 331.134Z" fill="#6C63FF"/>
<path id="Vector_43" d="M497.513 569.582L460.744 533.945C460.744 533.945 457.775 519.093 456.589 508.696C455.404 498.299 453.621 453.754 453.621 453.754C454.465 449.897 455.024 445.951 455.29 441.964C455.653 441.869 456.046 441.754 456.385 441.63C459.134 440.745 461.682 439.068 463.83 436.729C465.978 434.39 467.668 431.454 468.765 428.152C472.542 416.286 467.663 402.264 461.484 392.859C455.305 383.454 447.533 375.899 443.469 364.243C438.454 349.878 440.169 332.517 437.608 316.798C437.362 314.595 436.713 312.495 435.712 310.664C434.126 308.175 431.641 307.631 429.42 306.639C422.411 303.501 417.154 294.897 413.052 285.921C406.413 271.375 399.539 249.255 385.86 247.995C380.777 247.528 375.467 249.693 370.331 249.674C362.362 249.674 354.469 249.798 346.568 251.181C343.743 251.668 340.812 252.335 338.456 254.692C330.366 262.771 334.03 284.128 326.235 292.846C323.916 295.431 320.947 296.356 318.326 298.131C308.447 304.808 304.058 322.616 304.64 338.641C304.912 346.148 306.15 353.97 309.663 359.455C312.442 363.842 316.408 366.361 318.999 370.987C323.183 378.456 322.617 388.357 322.163 398.43C316.574 401.387 312.087 404.782 310.675 408.436C305.931 420.683 306.52 462.634 306.52 462.634C306.52 462.634 308.303 531.313 294.662 539.897L243.654 584.443C243.654 584.443 207.474 544.724 198.576 568.113C192.488 584.109 214.703 593.161 229.348 597.282C220.111 605.561 214.997 620.861 219.333 631.23C226.131 647.56 245.135 658.701 245.135 658.701C245.135 658.701 317.609 663.118 351.108 653.636H351.659C365.882 656.889 386.291 660.313 402.659 658.253C402.969 659.207 403.188 659.817 403.188 659.817C403.188 659.817 508.178 670.958 527.145 625.659C536.881 602.433 526.722 591.702 514.516 586.761C528.18 585.387 543.739 580.561 545.529 565.89C548.815 539.144 497.513 569.582 497.513 569.582ZM486.939 583.785C467.731 592.627 452.133 593.123 443.832 592.455C439.746 581.228 422.743 532.562 422.297 499.997C422.403 492.729 423.43 486.376 425.727 481.607C430.674 471.333 432.132 463.283 431.966 457.159C431.966 456.701 431.966 456.262 431.966 455.824C431.989 453.952 431.844 452.083 431.535 450.253C432.351 452.77 432.594 455.526 432.238 458.208C430.455 469.721 435.206 544.333 435.206 544.333C435.206 544.333 439.058 561.035 447.065 565.861L486.939 583.785ZM298.824 578.51L317.208 563.658C317.208 563.658 325.812 558.479 326.68 545.821L332.723 485.508C333.138 488.093 333.683 490.641 334.354 493.139C335.427 497.097 335.865 502.897 335.948 509.803C335.744 543.427 326.68 599.285 326.68 599.285H326.794L326.726 599.686L326.084 599.733C311.166 599.161 276.405 597.52 256.941 594.115L298.824 578.51ZM266.609 613.669V613.803H262.077L266.609 613.669Z" fill="url(#paint0_linear)"/>
<path id="Vector_44" d="M411.67 291.988C415.635 300.744 420.734 309.157 427.494 312.191C429.639 313.144 432.026 313.688 433.537 316.111C434.503 317.9 435.128 319.947 435.365 322.092C437.835 337.42 436.18 354.351 441.03 368.354C444.957 379.696 452.473 387.088 458.448 396.236C464.422 405.383 469.113 419.062 465.487 430.623C464.44 433.826 462.82 436.68 460.753 438.96C458.687 441.241 456.23 442.886 453.576 443.767C448.575 445.474 443.356 444.721 438.28 443.624C431.588 442.126 424.775 439.808 419.201 434.085C409.555 424.193 405.476 406.423 400.431 390.627C398.059 383.225 394.909 375.47 389.697 372.818C383.723 369.785 377.015 374.85 373.141 382.281C369.266 389.711 367.544 399.05 365.67 408.035C363.555 418.175 360.874 428.715 355.315 435.344C352.904 438.315 349.863 440.34 346.56 441.174C343.257 442.009 339.834 441.617 336.703 440.047C330.51 436.784 325.608 428.543 324.188 418.976C321.99 404.229 327.254 386.544 320.796 374.888C318.288 370.376 314.459 367.915 311.732 363.642C308.371 358.291 307.14 350.67 306.875 343.353C306.309 327.729 310.554 310.321 320.101 303.854C322.654 302.127 325.502 301.221 327.745 298.703C335.298 290.233 331.741 269.41 339.559 261.502C341.825 259.203 344.665 258.564 347.399 258.078C355.058 256.733 362.664 256.58 370.369 256.609C375.339 256.609 380.467 254.52 385.384 254.978C398.61 256.237 405.235 277.804 411.67 291.988Z" fill="#ECE38F"/>
<path id="Vector_45" d="M269.872 607.765L272.765 651.042L475.103 649.525L471.25 602.28L402.84 592.226L282.879 601.364L269.872 607.765Z" fill="#575988"/>
<path id="Vector_46" opacity="0.05" d="M269.872 607.765L272.765 651.042L475.103 649.525L471.25 602.28L402.84 592.226L282.879 601.364L269.872 607.765Z" fill="black"/>
<path id="Vector_47" d="M403.014 638.021L335.654 645.986C335.654 645.986 381.804 660.828 408.747 653.617L403.014 638.021Z" fill="#F7C4A7"/>
<path id="Vector_48" opacity="0.1" d="M403.014 638.021L335.654 645.986C335.654 645.986 381.804 660.828 408.747 653.617L403.014 638.021Z" fill="black"/>
<path id="Vector_49" d="M351.704 333.233C351.704 333.233 364.892 377.034 345.397 396.579C325.902 416.124 341.961 470.79 341.961 470.79L417.063 466.45C417.063 466.45 424.518 404.916 420.5 391.876C420.5 391.876 402.727 398.391 398.716 384.637C394.705 370.882 391.835 333.233 391.835 333.233H351.704Z" fill="#F7C4A7"/>
<path id="Vector_50" d="M334.505 598.198C334.505 598.198 271.156 596.385 252.529 590.567C233.903 584.748 217.845 612.649 224.439 628.578C231.033 644.508 249.365 655.363 249.365 655.363C249.365 655.363 343.668 661.153 364.024 644.87C364.024 644.87 371.766 616.998 364.024 611.571H265.718L338.229 609.758L334.505 598.198Z" fill="#575988"/>
<path id="Vector_51" d="M435.123 589.88C435.123 589.88 456.333 595.67 485.571 581.19C485.571 581.19 540.318 579.015 521.978 623.16C503.639 667.305 402.16 656.46 402.16 656.46C402.16 656.46 396.118 640.168 402.16 635.828C408.203 631.487 460.638 603.615 476.938 605.056L431.618 616.273L435.123 589.88Z" fill="#575988"/>
<path id="Vector_52" opacity="0.1" d="M394.433 354.304C393.338 343.992 392.696 335.589 392.696 335.589H352.565C354.419 342.226 355.705 349.095 356.402 356.078C362.029 361.053 368.789 363.573 375.654 363.252C382.518 362.932 389.112 359.79 394.433 354.304V354.304Z" fill="black"/>
<path id="Vector_53" d="M373.632 360.914C391.044 360.914 405.159 343.089 405.159 321.1C405.159 299.111 391.044 281.285 373.632 281.285C356.219 281.285 342.104 299.111 342.104 321.1C342.104 343.089 356.219 360.914 373.632 360.914Z" fill="#F7C4A7"/>
<path id="Vector_54" d="M355.149 390.427C355.149 390.427 317.314 399.479 312.729 411.412C308.144 423.345 308.718 464.265 308.718 464.265C308.718 464.265 310.441 531.236 297.253 539.554L247.952 582.993C247.952 582.993 212.98 544.256 204.385 567.063C195.789 589.87 245.663 598.198 245.663 598.198L301.271 577.212L319.044 562.733C319.044 562.733 327.352 557.668 328.214 545.353L335.669 470.78L365.481 459.925H413.619L420.069 436.67C420.069 436.67 431.966 448.708 430.243 459.925C428.521 471.143 433.106 543.865 433.106 543.865C433.106 543.865 436.83 560.157 444.572 564.85L489.295 585.187C489.295 585.187 536.594 590.977 539.744 564.917C542.893 538.858 493.306 568.532 493.306 568.532L457.76 533.783C457.76 533.783 454.897 519.303 453.749 509.164C452.601 499.024 450.887 455.595 450.887 455.595C450.887 455.595 461.778 409.981 430.251 402.026L389.546 386.096L355.149 390.427Z" fill="#F7C4A7"/>
<path id="Vector_55" opacity="0.1" d="M329.777 399.65L335.654 448.698C335.654 448.698 329.611 471.505 335.654 493.95C341.696 516.394 328.191 600.01 328.191 600.01C328.191 600.01 398.988 628.626 442.246 595.67C442.246 595.67 410.431 510.967 423.899 482.732C437.366 454.498 424.118 443.452 424.118 443.452L426.233 391.552L416.489 387.937L410.756 439.245C410.756 439.245 371.199 473.995 341.961 443.586L335.654 387.842L329.777 399.65Z" fill="black"/>
<path id="Vector_56" opacity="0.07" d="M370.671 457.951C367.609 451.771 362.834 447.253 357.277 445.279C351.72 443.306 345.78 444.018 340.616 447.277C350.216 456.348 360.798 458.771 370.671 457.951Z" fill="white"/>
<path id="Vector_57" opacity="0.07" d="M386.918 452.514C389.979 446.334 394.755 441.816 400.312 439.842C405.869 437.869 411.809 438.581 416.972 441.84C407.38 450.911 396.79 453.344 386.918 452.514Z" fill="white"/>
<path id="Vector_58" opacity="0.1" d="M329.777 399.65L335.654 446.161C335.654 446.161 329.611 468.968 335.654 491.412C341.696 513.857 328.191 597.473 328.191 597.473C328.191 597.473 398.988 626.089 442.246 593.133C442.246 593.133 410.431 508.429 423.899 480.195C437.366 451.96 424.118 440.915 424.118 440.915L426.187 388.977L416.444 385.362L410.711 436.765C410.711 436.765 371.154 471.515 341.915 441.105L335.608 385.362L329.777 399.65Z" fill="black"/>
<path id="Vector_59" d="M329.49 399.288L335.654 446.886C335.654 446.886 329.611 469.693 335.654 492.137C341.696 514.582 328.191 598.198 328.191 598.198C328.191 598.198 398.988 626.814 442.246 593.857C442.246 593.857 410.431 509.154 423.899 480.92C437.366 452.685 424.118 441.64 424.118 441.64L426.187 389.702L416.444 386.086L410.711 437.49C410.711 437.49 371.154 472.24 341.915 441.83L335.608 386.086L329.49 399.288Z" fill="#FC6681"/>
<path id="Vector_60" d="M358.585 615.939L373.511 613.402C373.511 613.402 390.71 585.53 403.037 606.887C403.037 606.887 408.195 620.642 414.502 623.179C418.815 624.825 423.225 626.034 427.69 626.794L402.183 635.847C402.183 635.847 391.004 644.174 379.251 641.999C372.333 640.668 365.263 641.413 358.616 644.174L358.585 615.939Z" fill="#F7C4A7"/>
<path id="Vector_61" opacity="0.1" d="M342.104 497.746C342.104 497.746 369.047 502.811 373.631 493.768Z" fill="black"/>
<path id="Vector_62" opacity="0.1" d="M393.149 491.956C393.149 491.956 398.308 498.471 418.944 493.768Z" fill="black"/>
<path id="Vector_63" opacity="0.1" d="M340.669 390.961C340.669 390.961 360.443 394.576 364.175 392.411Z" fill="black"/>
<path id="Vector_64" opacity="0.1" d="M384.244 390.961C384.244 390.961 404.018 394.576 407.75 392.411Z" fill="black"/>
<path id="Vector_65" opacity="0.1" d="M360.738 613.221C360.738 613.221 366.184 645.652 360.738 646.797C355.292 647.942 347.55 641.455 347.55 640.73C347.55 640.005 350.987 619.373 350.987 619.373L360.738 613.221Z" fill="black"/>
<path id="Vector_66" d="M360.164 613.221C360.164 613.221 365.61 645.652 360.164 646.797C354.718 647.942 346.976 641.455 346.976 640.73C346.976 640.005 350.413 619.373 350.413 619.373L360.164 613.221Z" fill="#575988"/>
<path id="Vector_67" opacity="0.1" d="M333.554 386.22C331.152 393.269 330.298 401.587 332.851 408.55C334.8 413.863 338.607 418.165 339.34 423.945C340.261 431.195 336.009 438.568 337.595 445.627C338.199 448.336 339.611 450.625 341.047 452.771C345.412 459.286 351.213 465.591 357.951 465.086C359.016 451.941 350.02 439.188 352.966 426.511C354.023 421.971 356.501 418.194 357.996 413.863C360.481 406.68 360.126 398.477 359.227 390.722C357.921 379.476 354.612 365.674 345.782 360.408C341.719 357.986 335.963 357.814 334.513 364.386C333.758 367.896 335.57 371.197 335.82 374.631C336.137 378.99 334.891 382.3 333.554 386.22Z" fill="black"/>
<g id="Vlasy">
<path id="Vlasy 3" d="M335.797 300.83C335.797 300.83 377.65 293.59 378.79 304.445C379.931 315.3 416.912 333.061 416.912 333.061L407.742 304.445L390.83 268.98C390.83 268.98 359.862 266.119 358.442 268.98C357.022 271.842 340.669 281.285 340.669 281.285L335.797 300.83Z" fill="#ECE38F"/>
<path id="Vlasy2" d="M408.626 377.101C410.663 380.184 412.101 383.827 412.826 387.737C413.52 391.466 413.543 395.368 414.208 399.107C415.62 407.072 419.79 413.768 424.148 419.796C425.558 421.98 427.28 423.811 429.224 425.195C431.218 426.435 433.756 426.693 435.606 425.195C433.854 423.383 432.902 420.607 432.275 417.85C431.393 414.007 431.001 410.011 431.112 406.013C431.301 399.336 432.849 392.287 430.651 386.201C429.382 382.691 427.018 380.02 424.609 377.616C422.935 375.897 421.128 374.395 419.216 373.133C415.658 370.891 411.572 369.909 407.644 369.422C402.523 368.745 407.002 374.65 408.626 377.101Z" fill="#ECE38F"/>
<path id="Vlasy 1" d="M333.554 385.133C331.152 392.182 330.298 400.499 332.851 407.463C334.8 412.776 338.607 417.078 339.34 422.858C340.261 430.107 336.009 437.481 337.595 444.539C338.199 447.248 339.611 449.538 341.047 451.684C345.412 458.199 351.213 464.504 357.951 463.998C359.016 450.854 350.02 438.101 352.966 425.424C354.023 420.884 356.501 417.106 357.996 412.776C360.481 405.593 360.126 397.39 359.227 389.635C357.921 378.389 354.612 364.586 345.782 359.321C341.719 356.898 335.963 356.727 334.513 363.299C333.758 366.809 335.57 370.109 335.82 373.543C336.137 377.912 334.891 381.222 333.554 385.133Z" fill="#ECE38F"/>
</g>
<path id="Vector_68" opacity="0.1" d="M335.797 301.555C335.797 301.555 377.65 294.315 378.79 305.17C379.931 316.025 416.912 333.786 416.912 333.786L407.742 305.17L390.83 269.696C390.83 269.696 359.862 266.834 358.442 269.696C357.022 272.557 340.669 282.001 340.669 282.001L335.797 301.555Z" fill="black"/>
<path id="Vector_69" opacity="0.1" d="M408.626 378.198C410.661 381.276 412.099 384.911 412.826 388.815C413.52 392.544 413.543 396.445 414.208 400.185C415.62 408.149 419.79 414.846 424.148 420.874C425.558 423.058 427.28 424.889 429.224 426.273C431.218 427.513 433.756 427.77 435.606 426.273C433.854 424.461 432.902 421.685 432.275 418.928C431.393 415.085 431.001 411.089 431.112 407.091C431.301 400.414 432.849 393.364 430.651 387.279C429.382 383.769 427.018 381.098 424.609 378.694C422.935 376.975 421.128 375.473 419.216 374.211C415.658 371.969 411.572 370.987 407.644 370.5C402.523 369.833 407.002 375.737 408.626 378.198Z" fill="black"/>
<g id="Oblak">
<path id="Oblak1" d="M593.825 157.779H588.629C589.12 157.807 589.611 157.709 590.072 157.491C590.533 157.273 590.954 156.939 591.309 156.51C591.665 156.081 591.948 155.565 592.142 154.994C592.335 154.422 592.435 153.807 592.435 153.186C592.435 152.565 592.335 151.95 592.142 151.378C591.948 150.807 591.665 150.291 591.309 149.862C590.954 149.433 590.533 149.099 590.072 148.881C589.611 148.663 589.12 148.565 588.629 148.593H546.534C545.598 148.647 544.715 149.154 544.068 150.01C543.42 150.865 543.059 152.003 543.059 153.186C543.059 154.369 543.42 155.507 544.068 156.362C544.715 157.218 545.598 157.725 546.534 157.779H551.731C551.239 157.751 550.748 157.848 550.288 158.066C549.827 158.284 549.406 158.618 549.05 159.047C548.694 159.477 548.411 159.993 548.218 160.564C548.024 161.135 547.924 161.75 547.924 162.372C547.924 162.993 548.024 163.608 548.218 164.179C548.411 164.751 548.694 165.267 549.05 165.696C549.406 166.125 549.827 166.459 550.288 166.677C550.748 166.895 551.239 166.993 551.731 166.965H544.457C543.965 166.936 543.474 167.034 543.014 167.252C542.553 167.47 542.132 167.804 541.776 168.233C541.42 168.662 541.137 169.178 540.944 169.75C540.75 170.321 540.651 170.936 540.651 171.557C540.651 172.179 540.75 172.794 540.944 173.365C541.137 173.936 541.42 174.452 541.776 174.882C542.132 175.311 542.553 175.645 543.014 175.863C543.474 176.081 543.965 176.179 544.457 176.15H586.551C587.043 176.179 587.534 176.081 587.995 175.863C588.456 175.645 588.877 175.311 589.232 174.882C589.588 174.452 589.871 173.936 590.065 173.365C590.258 172.794 590.358 172.179 590.358 171.557C590.358 170.936 590.258 170.321 590.065 169.75C589.871 169.178 589.588 168.662 589.232 168.233C588.877 167.804 588.456 167.47 587.995 167.252C587.534 167.034 587.043 166.936 586.551 166.965H593.825C594.317 166.993 594.808 166.895 595.269 166.677C595.729 166.459 596.15 166.125 596.506 165.696C596.862 165.267 597.145 164.751 597.339 164.179C597.532 163.608 597.632 162.993 597.632 162.372C597.632 161.75 597.532 161.135 597.339 160.564C597.145 159.993 596.862 159.477 596.506 159.047C596.15 158.618 595.729 158.284 595.269 158.066C594.808 157.848 594.317 157.751 593.825 157.779Z" fill="white"/>
<path id="Oblak3" d="M159.511 275.104H154.314C154.805 275.133 155.296 275.035 155.757 274.817C156.218 274.599 156.639 274.265 156.995 273.836C157.351 273.406 157.634 272.89 157.827 272.319C158.021 271.748 158.12 271.133 158.12 270.511C158.12 269.89 158.021 269.275 157.827 268.704C157.634 268.132 157.351 267.616 156.995 267.187C156.639 266.758 156.218 266.424 155.757 266.206C155.296 265.988 154.805 265.89 154.314 265.919H112.219C111.283 265.972 110.4 266.48 109.753 267.335C109.106 268.191 108.744 269.328 108.744 270.511C108.744 271.695 109.106 272.832 109.753 273.688C110.4 274.543 111.283 275.05 112.219 275.104H117.416C116.48 275.158 115.597 275.666 114.95 276.521C114.302 277.376 113.941 278.514 113.941 279.697C113.941 280.88 114.302 282.018 114.95 282.873C115.597 283.729 116.48 284.236 117.416 284.29H110.142C109.651 284.262 109.16 284.36 108.699 284.578C108.238 284.796 107.817 285.129 107.461 285.559C107.106 285.988 106.822 286.504 106.629 287.075C106.435 287.647 106.336 288.261 106.336 288.883C106.336 289.504 106.435 290.119 106.629 290.691C106.822 291.262 107.106 291.778 107.461 292.207C107.817 292.636 108.238 292.97 108.699 293.188C109.16 293.406 109.651 293.504 110.142 293.476H152.237C152.728 293.504 153.219 293.406 153.68 293.188C154.141 292.97 154.562 292.636 154.918 292.207C155.273 291.778 155.557 291.262 155.75 290.691C155.943 290.119 156.043 289.504 156.043 288.883C156.043 288.261 155.943 287.647 155.75 287.075C155.557 286.504 155.273 285.988 154.918 285.559C154.562 285.129 154.141 284.796 153.68 284.578C153.219 284.36 152.728 284.262 152.237 284.29H159.511C160.446 284.236 161.33 283.729 161.977 282.873C162.624 282.018 162.986 280.88 162.986 279.697C162.986 278.514 162.624 277.376 161.977 276.521C161.33 275.666 160.446 275.158 159.511 275.104V275.104Z" fill="#FFFBFC"/>
<path id="Oblak2" d="M389.886 157.779H384.69C385.181 157.807 385.672 157.709 386.133 157.491C386.594 157.273 387.015 156.939 387.37 156.51C387.726 156.081 388.009 155.565 388.203 154.994C388.396 154.422 388.496 153.807 388.496 153.186C388.496 152.565 388.396 151.95 388.203 151.378C388.009 150.807 387.726 150.291 387.37 149.862C387.015 149.433 386.594 149.099 386.133 148.881C385.672 148.663 385.181 148.565 384.69 148.593H342.595C341.659 148.647 340.776 149.154 340.128 150.01C339.481 150.865 339.12 152.003 339.12 153.186C339.12 154.369 339.481 155.507 340.128 156.362C340.776 157.218 341.659 157.725 342.595 157.779H347.792C347.3 157.751 346.809 157.848 346.348 158.066C345.888 158.284 345.467 158.618 345.111 159.048C344.755 159.477 344.472 159.993 344.278 160.564C344.085 161.135 343.985 161.75 343.985 162.372C343.985 162.993 344.085 163.608 344.278 164.179C344.472 164.751 344.755 165.267 345.111 165.696C345.467 166.125 345.888 166.459 346.348 166.677C346.809 166.895 347.3 166.993 347.792 166.965H340.518C340.026 166.936 339.535 167.034 339.075 167.252C338.614 167.47 338.193 167.804 337.837 168.233C337.481 168.662 337.198 169.178 337.005 169.75C336.811 170.321 336.711 170.936 336.711 171.557C336.711 172.179 336.811 172.794 337.005 173.365C337.198 173.936 337.481 174.452 337.837 174.882C338.193 175.311 338.614 175.645 339.075 175.863C339.535 176.081 340.026 176.179 340.518 176.15H382.612C383.104 176.179 383.595 176.081 384.056 175.863C384.516 175.645 384.937 175.311 385.293 174.882C385.649 174.452 385.932 173.936 386.126 173.365C386.319 172.794 386.419 172.179 386.419 171.557C386.419 170.936 386.319 170.321 386.126 169.75C385.932 169.178 385.649 168.662 385.293 168.233C384.937 167.804 384.516 167.47 384.056 167.252C383.595 167.034 383.104 166.936 382.612 166.965H389.886C390.378 166.993 390.869 166.895 391.33 166.677C391.79 166.459 392.211 166.125 392.567 165.696C392.923 165.267 393.206 164.751 393.4 164.179C393.593 163.608 393.693 162.993 393.693 162.372C393.693 161.75 393.593 161.135 393.4 160.564C393.206 159.993 392.923 159.477 392.567 159.048C392.211 158.618 391.79 158.284 391.33 158.066C390.869 157.848 390.378 157.751 389.886 157.779V157.779Z" fill="white"/>
</g>
<path id="Vector_70" d="M595.751 643.974C595.751 643.974 577.117 564.078 599.249 505.272C608.539 480.595 611.621 452.886 607.331 426.101C605.279 413.384 602.308 400.932 598.456 388.9" stroke="#535461" stroke-width="2" stroke-miterlimit="10"/>
<path id="Vector_71" d="M612.195 351.786C612.195 361.582 598.153 389.94 598.153 389.94C598.153 389.94 584.112 361.544 584.112 351.786C584.068 349.423 584.399 347.073 585.085 344.874C585.771 342.676 586.798 340.672 588.106 338.982C589.414 337.292 590.976 335.948 592.701 335.031C594.426 334.114 596.278 333.642 598.15 333.642C600.021 333.642 601.873 334.114 603.598 335.031C605.323 335.948 606.885 337.292 608.193 338.982C609.501 340.672 610.528 342.676 611.214 344.874C611.9 347.073 612.231 349.423 612.187 351.786H612.195Z" fill="#6C63FF"/>
<path id="Vector_72" d="M635.429 406.022C631.214 414.245 607.21 428.438 607.21 428.438C607.21 428.438 607.648 394.967 611.863 386.745C613.93 382.926 617.097 380.279 620.688 379.368C624.279 378.457 628.01 379.354 631.085 381.868C634.16 384.382 636.335 388.313 637.147 392.824C637.958 397.335 637.342 402.068 635.429 406.013V406.022Z" fill="#6C63FF"/>
<path id="Vector_73" d="M634.409 498.709C627.483 503.116 601.092 500.073 601.092 500.073C601.092 500.073 614.846 471.457 621.772 467.051C623.423 465.947 625.231 465.27 627.091 465.059C628.951 464.849 630.826 465.109 632.605 465.825C634.385 466.54 636.033 467.697 637.454 469.227C638.875 470.757 640.041 472.63 640.882 474.735C641.723 476.841 642.222 479.138 642.352 481.49C642.482 483.843 642.238 486.205 641.636 488.437C641.034 490.67 640.086 492.728 638.846 494.492C637.606 496.256 636.101 497.689 634.417 498.709H634.409Z" fill="#6C63FF"/>
<path id="Vector_74" d="M621.138 568.618C614.907 574.437 588.478 577.069 588.478 577.069C588.478 577.069 598.206 545.935 604.438 540.107C605.919 538.7 607.606 537.678 609.402 537.098C611.197 536.519 613.066 536.394 614.9 536.731C616.734 537.068 618.497 537.86 620.088 539.062C621.678 540.264 623.065 541.851 624.167 543.733C625.269 545.615 626.065 547.753 626.51 550.026C626.954 552.298 627.038 554.659 626.757 556.972C626.475 559.286 625.834 561.506 624.869 563.505C623.905 565.503 622.637 567.241 621.138 568.618V568.618Z" fill="#6C63FF"/>
<path id="Vector_75" d="M577.729 430.336C583.288 437.156 609.204 444.225 609.204 444.225C609.204 444.225 602.859 411.726 597.3 404.897C594.61 401.751 591.053 400.058 587.388 400.18C583.723 400.303 580.242 402.23 577.687 405.55C575.133 408.871 573.708 413.322 573.717 417.951C573.726 422.581 575.169 427.023 577.737 430.327L577.729 430.336Z" fill="#6C63FF"/>
<path id="Vector_76" d="M563.031 512.34C569.957 516.747 596.348 513.704 596.348 513.704C596.348 513.704 582.594 485.088 575.667 480.681C574.017 479.578 572.209 478.901 570.349 478.69C568.489 478.48 566.614 478.74 564.835 479.455C563.055 480.171 561.407 481.328 559.985 482.858C558.564 484.388 557.399 486.26 556.558 488.366C555.717 490.472 555.217 492.768 555.088 495.121C554.958 497.474 555.201 499.835 555.803 502.068C556.405 504.3 557.354 506.359 558.594 508.123C559.833 509.886 561.339 511.32 563.023 512.34H563.031Z" fill="#6C63FF"/>
<path id="Vector_77" d="M557.403 594.525C563.635 600.344 590.064 602.976 590.064 602.976C590.064 602.976 580.335 571.833 574.096 566.014C572.615 564.607 570.928 563.585 569.132 563.005C567.336 562.426 565.468 562.301 563.634 562.638C561.799 562.975 560.036 563.767 558.446 564.969C556.856 566.171 555.469 567.758 554.367 569.64C553.265 571.522 552.468 573.66 552.024 575.933C551.579 578.205 551.496 580.566 551.777 582.879C552.059 585.193 552.7 587.413 553.664 589.412C554.629 591.41 555.897 593.148 557.396 594.525H557.403Z" fill="#6C63FF"/>
<path id="Vector_78" d="M612.195 351.786C612.195 361.582 598.153 389.94 598.153 389.94C598.153 389.94 584.112 361.544 584.112 351.786C584.068 349.423 584.399 347.073 585.085 344.874C585.771 342.676 586.798 340.672 588.106 338.982C589.414 337.292 590.976 335.948 592.701 335.031C594.426 334.114 596.278 333.642 598.15 333.642C600.021 333.642 601.873 334.114 603.598 335.031C605.323 335.948 606.885 337.292 608.193 338.982C609.501 340.672 610.528 342.676 611.214 344.874C611.9 347.073 612.231 349.423 612.187 351.786H612.195Z" fill="#FC6681"/>
<path id="Vector_79" d="M635.429 406.022C631.214 414.245 607.21 428.438 607.21 428.438C607.21 428.438 607.648 394.967 611.863 386.745C613.93 382.926 617.097 380.279 620.688 379.368C624.279 378.457 628.01 379.354 631.085 381.868C634.16 384.382 636.335 388.313 637.147 392.824C637.958 397.335 637.342 402.068 635.429 406.013V406.022Z" fill="#FC6681"/>
<path id="Vector_80" d="M634.409 498.709C627.483 503.116 601.092 500.073 601.092 500.073C601.092 500.073 614.846 471.457 621.772 467.051C623.423 465.947 625.231 465.27 627.091 465.059C628.951 464.849 630.826 465.109 632.605 465.825C634.385 466.54 636.033 467.697 637.454 469.227C638.875 470.757 640.041 472.63 640.882 474.735C641.723 476.841 642.222 479.138 642.352 481.49C642.482 483.843 642.238 486.205 641.636 488.437C641.034 490.67 640.086 492.728 638.846 494.492C637.606 496.256 636.101 497.689 634.417 498.709H634.409Z" fill="#FC6681"/>
<path id="Vector_81" d="M621.138 568.618C614.907 574.437 588.478 577.069 588.478 577.069C588.478 577.069 598.206 545.935 604.438 540.107C605.919 538.7 607.606 537.678 609.402 537.098C611.197 536.519 613.066 536.394 614.9 536.731C616.734 537.068 618.497 537.86 620.088 539.062C621.678 540.264 623.065 541.851 624.167 543.733C625.269 545.615 626.065 547.753 626.51 550.026C626.954 552.298 627.038 554.659 626.757 556.972C626.475 559.286 625.834 561.506 624.869 563.505C623.905 565.503 622.637 567.241 621.138 568.618V568.618Z" fill="#FC6681"/>
<path id="Vector_82" d="M577.729 430.336C583.288 437.156 609.204 444.225 609.204 444.225C609.204 444.225 602.859 411.726 597.3 404.897C594.61 401.751 591.053 400.058 587.388 400.18C583.723 400.303 580.242 402.23 577.687 405.55C575.133 408.871 573.708 413.322 573.717 417.951C573.726 422.581 575.169 427.023 577.737 430.327L577.729 430.336Z" fill="#FC6681"/>
<path id="Vector_83" d="M563.031 512.34C569.957 516.747 596.348 513.704 596.348 513.704C596.348 513.704 582.594 485.088 575.667 480.681C574.017 479.578 572.209 478.901 570.349 478.69C568.489 478.48 566.614 478.74 564.835 479.455C563.055 480.171 561.407 481.328 559.985 482.858C558.564 484.388 557.399 486.26 556.558 488.366C555.717 490.472 555.217 492.768 555.088 495.121C554.958 497.474 555.201 499.835 555.803 502.068C556.405 504.3 557.354 506.359 558.594 508.123C559.833 509.886 561.339 511.32 563.023 512.34H563.031Z" fill="#FC6681"/>
<path id="Vector_84" d="M557.403 594.525C563.635 600.344 590.064 602.976 590.064 602.976C590.064 602.976 580.335 571.833 574.096 566.014C572.615 564.607 570.928 563.585 569.132 563.005C567.336 562.426 565.468 562.301 563.634 562.638C561.799 562.975 560.036 563.767 558.446 564.969C556.856 566.171 555.469 567.758 554.367 569.64C553.265 571.522 552.468 573.66 552.024 575.933C551.579 578.205 551.496 580.566 551.777 582.879C552.059 585.193 552.7 587.413 553.664 589.412C554.629 591.41 555.897 593.148 557.396 594.525H557.403Z" fill="#FC6681"/>
<path id="Vector_85" d="M156.149 642.066C156.149 642.066 137.515 562.17 159.647 503.364C168.937 478.688 172.019 450.978 167.729 424.193C165.677 411.477 162.706 399.024 158.853 386.993" stroke="#535461" stroke-width="2" stroke-miterlimit="10"/>
<path id="Vector_86" d="M172.593 349.878C172.593 359.674 158.551 388.032 158.551 388.032C158.551 388.032 144.51 359.636 144.51 349.878C144.466 347.515 144.797 345.165 145.483 342.967C146.169 340.768 147.196 338.764 148.504 337.074C149.812 335.384 151.374 334.041 153.099 333.124C154.824 332.207 156.676 331.734 158.548 331.734C160.419 331.734 162.271 332.207 163.996 333.124C165.721 334.041 167.283 335.384 168.591 337.074C169.899 338.764 170.926 340.768 171.612 342.967C172.298 345.165 172.629 347.515 172.585 349.878H172.593Z" fill="#6C63FF"/>
<path id="Vector_87" d="M195.827 404.115C191.612 412.337 167.608 426.53 167.608 426.53C167.608 426.53 168.046 393.059 172.261 384.837C174.328 381.018 177.495 378.371 181.086 377.46C184.677 376.549 188.408 377.446 191.483 379.96C194.558 382.474 196.733 386.406 197.545 390.917C198.356 395.427 197.74 400.16 195.827 404.105V404.115Z" fill="#6C63FF"/>
<path id="Vector_88" d="M194.807 496.802C187.881 501.209 161.49 498.166 161.49 498.166C161.49 498.166 175.244 469.55 182.17 465.143C185.485 463.136 189.29 462.849 192.769 464.346C196.249 465.842 199.125 469.001 200.78 473.146C202.435 477.29 202.738 482.089 201.622 486.512C200.507 490.935 198.063 494.629 194.815 496.802H194.807Z" fill="#6C63FF"/>
<path id="Vector_89" d="M181.536 566.71C175.305 572.529 148.876 575.162 148.876 575.162C148.876 575.162 158.604 544.028 164.836 538.199C166.317 536.793 168.004 535.77 169.8 535.19C171.595 534.611 173.464 534.486 175.298 534.823C177.132 535.16 178.895 535.953 180.486 537.154C182.076 538.356 183.463 539.944 184.565 541.825C185.667 543.707 186.463 545.846 186.908 548.118C187.352 550.39 187.436 552.751 187.155 555.065C186.873 557.378 186.232 559.598 185.267 561.597C184.303 563.596 183.035 565.334 181.536 566.71V566.71Z" fill="#6C63FF"/>
<path id="Vector_90" d="M138.127 428.429C143.686 435.249 169.602 442.317 169.602 442.317C169.602 442.317 163.257 409.819 157.698 402.989C155.008 399.843 151.451 398.15 147.786 398.273C144.121 398.395 140.64 400.322 138.085 403.643C135.531 406.963 134.106 411.414 134.115 416.044C134.124 420.673 135.567 425.115 138.135 428.419L138.127 428.429Z" fill="#6C63FF"/>
<path id="Vector_91" d="M123.428 510.432C130.355 514.839 156.746 511.796 156.746 511.796C156.746 511.796 142.992 483.18 136.065 478.774C132.751 476.766 128.946 476.48 125.466 477.976C121.987 479.473 119.111 482.632 117.456 486.777C115.8 490.921 115.498 495.72 116.613 500.143C117.729 504.566 120.173 508.26 123.421 510.432H123.428Z" fill="#6C63FF"/>
<path id="Vector_92" d="M117.801 592.617C124.033 598.436 150.462 601.069 150.462 601.069C150.462 601.069 140.733 569.925 134.494 564.106C133.013 562.699 131.326 561.677 129.53 561.097C127.734 560.518 125.866 560.393 124.031 560.73C122.197 561.067 120.434 561.86 118.844 563.061C117.253 564.263 115.867 565.851 114.765 567.732C113.663 569.614 112.866 571.753 112.422 574.025C111.977 576.297 111.894 578.658 112.175 580.972C112.457 583.285 113.098 585.505 114.062 587.504C115.027 589.503 116.295 591.241 117.794 592.617H117.801Z" fill="#6C63FF"/>
<g id="Group 145">
<g id="Group 144">
<g id="Group 143">
<g id="Group 142">
<g id="Group 141">
<g id="Group 140">
<g id="Group 139">
<g id="Group 138">
<g id="Group 137">
<g id="Group 136">
<g id="Group 135">
<g id="Group 134">
<g id="Group 133">
<g id="Group 132">
<g id="Group 131">
<g id="Group 130">
<g id="Group 129">
<g id="Group 128">
<g id="Group 127">
<g id="Group 126">
<g id="Group 125">
<g id="Group 124">
<g id="Group 123">
<g id="Group 122">
<g id="Group 121">
<g id="Group 120">
<g id="Group 119">
<g id="Group 118">
<g id="Group 117">
<g id="Group 116">
<g id="Group 115">
<g id="Group 114">
<g id="Group 113">
<g id="Group 112">
<g id="Group 111">
<g id="Group 110">
<g id="Group 109">
<g id="Group 108">
<g id="Group 107">
<g id="Group 106">
<g id="Group 105">
<g id="Group 104">
<g id="Group 103">
<g id="Group 25">
<g id="Group 24">
<g id="Group 23">
<g id="Group 22">
<g id="Group 21">
<g id="Group 20">
<g id="Group 19">
<g id="Group 18">
<g id="Group 17">
<g id="Group 16">
<g id="Group 15">
<g id="Group 14">
<g id="Group 13">
<g id="Group 12">
<g id="Group 11">
<g id="Group 10">
<g id="Group 9">
<g id="Group 8">
<g id="Group 7">
<g id="Group 6">
<g id="Group 5">
<g id="Group 4">
<g id="Group 3">
<g id="Group 2">
<g id="Group 102">
<path id="Vector_93" d="M173.087 350.144C173.087 359.94 159.045 388.298 159.045 388.298C159.045 388.298 145.004 359.902 145.004 350.144C144.96 347.781 145.291 345.431 145.977 343.232C146.663 341.034 147.69 339.03 148.998 337.34C150.306 335.65 151.868 334.306 153.593 333.389C155.318 332.472 157.17 332 159.042 332C160.913 332 162.765 332.472 164.49 333.389C166.215 334.306 167.777 335.65 169.085 337.34C170.393 339.03 171.42 341.034 172.106 343.232C172.792 345.431 173.123 347.781 173.079 350.144H173.087Z" fill="#FC6681"/>
</g>
</g>
</g>
</g>
</g>
</g>
</g>
</g>
</g>
</g>
</g>
</g>
</g>
</g>
</g>
</g>
</g>
</g>
</g>
</g>
</g>
</g>
</g>
</g>
</g>
</g>
</g>
</g>
</g>
</g>
</g>
</g>
</g>
</g>
</g>
</g>
</g>
</g>
</g>
</g>
</g>
</g>
</g>
</g>
</g>
</g>
</g>
</g>
</g>
</g>
</g>
</g>
</g>
</g>
</g>
</g>
</g>
</g>
</g>
</g>
</g>
</g>
</g>
</g>
</g>
</g>
</g>
</g>
<path id="Vector_94" d="M195.827 404.115C191.612 412.337 167.608 426.53 167.608 426.53C167.608 426.53 168.046 393.059 172.261 384.837C174.328 381.018 177.495 378.371 181.086 377.46C184.677 376.549 188.408 377.446 191.483 379.96C194.558 382.474 196.733 386.406 197.545 390.917C198.356 395.427 197.74 400.16 195.827 404.105V404.115Z" fill="#FC6681"/>
<path id="Vector_95" d="M194.807 496.802C187.881 501.209 161.49 498.166 161.49 498.166C161.49 498.166 175.244 469.55 182.17 465.143C185.485 463.136 189.29 462.849 192.769 464.346C196.249 465.842 199.125 469.001 200.78 473.146C202.435 477.29 202.738 482.089 201.622 486.512C200.507 490.935 198.063 494.629 194.815 496.802H194.807Z" fill="#FC6681"/>
<path id="Vector_96" d="M181.536 566.71C175.305 572.529 148.876 575.162 148.876 575.162C148.876 575.162 158.604 544.028 164.836 538.199C166.317 536.793 168.004 535.77 169.8 535.19C171.595 534.611 173.464 534.486 175.298 534.823C177.132 535.16 178.895 535.953 180.486 537.154C182.076 538.356 183.463 539.944 184.565 541.825C185.667 543.707 186.463 545.846 186.908 548.118C187.352 550.39 187.436 552.751 187.155 555.065C186.873 557.378 186.232 559.598 185.267 561.597C184.303 563.596 183.035 565.334 181.536 566.71V566.71Z" fill="#FC6681"/>
<g id="Group 101">
<g id="Group 100">
<g id="Group 99">
<g id="Group 98">
<g id="Group 97">
<g id="Group 96">
<g id="Group 95">
<g id="Group 94">
<g id="Group 93">
<g id="Group 92">
<g id="Group 91">
<g id="Group 90">
<g id="Group 89">
<g id="Group 88">
<g id="Group 87">
<g id="Group 86">
<g id="Group 85">
<g id="Group 84">
<g id="Group 83">
<g id="Group 82">
<g id="Group 81">
<g id="Group 80">
<g id="Group 79">
<g id="Group 78">
<g id="Group 77">
<g id="Group 76">
<g id="Group 75">
<g id="Group 74">
<g id="Group 73">
<g id="Group 72">
<g id="Group 71">
<g id="Group 70">
<g id="Group 69">
<g id="Group 68">
<g id="Group 67">
<g id="Group 66">
<g id="Group 65">
<g id="Group 64">
<g id="Group 63">
<g id="Group 62">
<g id="Group 61">
<g id="Group 60">
<g id="Group 59">
<g id="Group 58">
<g id="Group 57">
<g id="Group 56">
<g id="Group 55">
<g id="Group 54">
<g id="Group 53">
<g id="Group 52">
<g id="Group 51">
<g id="Group 50">
<g id="Group 49">
<g id="Group 48">
<g id="Group 47">
<g id="Group 46">
<g id="Group 45">
<g id="Group 44">
<g id="Group 43">
<g id="Group 42">
<g id="Group 41">
<g id="Group 40">
<g id="Group 39">
<g id="Group 38">
<g id="Group 37">
<g id="Group 36">
<g id="Group 35">
<g id="Group 34">
<g id="Group 33">
<g id="Group 32">
<g id="Group 31">
<g id="Group 30">
<g id="Group 29">
<g id="Group 28">
<g id="Group 27">
<g id="Group 26">
<path id="Vector_97" d="M138.127 428.429C143.686 435.249 169.602 442.317 169.602 442.317C169.602 442.317 163.257 409.819 157.698 402.989C155.008 399.843 151.451 398.15 147.786 398.273C144.121 398.395 140.64 400.322 138.085 403.643C135.531 406.963 134.106 411.414 134.115 416.044C134.124 420.673 135.567 425.115 138.135 428.419L138.127 428.429Z" fill="#FC6681"/>
</g>
</g>
</g>
</g>
</g>
</g>
</g>
</g>
</g>
</g>
</g>
</g>
</g>
</g>
</g>
</g>
</g>
</g>
</g>
</g>
</g>
</g>
</g>
</g>
</g>
</g>
</g>
</g>
</g>
</g>
</g>
</g>
</g>
</g>
</g>
</g>
</g>
</g>
</g>
</g>
</g>
</g>
</g>
</g>
</g>
</g>
</g>
</g>
</g>
</g>
</g>
</g>
</g>
</g>
</g>
</g>
</g>
</g>
</g>
</g>
</g>
</g>
</g>
</g>
</g>
</g>
</g>
</g>
</g>
</g>
</g>
</g>
</g>
</g>
</g>
</g>
<path id="Vector_98" d="M123.428 510.432C130.355 514.839 156.746 511.796 156.746 511.796C156.746 511.796 142.992 483.18 136.065 478.774C132.751 476.766 128.946 476.48 125.466 477.976C121.987 479.473 119.111 482.632 117.456 486.777C115.8 490.921 115.498 495.72 116.613 500.143C117.729 504.566 120.173 508.26 123.421 510.432H123.428Z" fill="#FC6681"/>
<path id="Vector_99" d="M117.801 592.617C124.033 598.436 150.462 601.069 150.462 601.069C150.462 601.069 140.733 569.925 134.494 564.106C133.013 562.699 131.326 561.677 129.53 561.097C127.734 560.518 125.866 560.393 124.031 560.73C122.197 561.067 120.434 561.86 118.844 563.061C117.253 564.263 115.867 565.851 114.765 567.732C113.663 569.614 112.866 571.753 112.422 574.025C111.977 576.297 111.894 578.658 112.175 580.972C112.457 583.285 113.098 585.505 114.062 587.504C115.027 589.503 116.295 591.241 117.794 592.617H117.801Z" fill="#FC6681"/>
</g>
</g>
<defs>
<linearGradient id="paint0_linear" x1="371.63" y1="661.01" x2="371.63" y2="247.986" gradientUnits="userSpaceOnUse">
<stop stop-color="#808080" stop-opacity="0.25"/>
<stop offset="0.54" stop-color="#808080" stop-opacity="0.12"/>
<stop offset="1" stop-color="#808080" stop-opacity="0.1"/>
</linearGradient>
<clipPath id="clip0">
<rect width="744" height="661" fill="white"/>
</clipPath>
</defs>
</svg>
