<svg width="464" height="412" viewBox="0 0 464 412" fill="none" xmlns="http://www.w3.org/2000/svg">
<rect width="464" height="412" fill="#E5E5E5"/>
<g id="undraw_mindfulness_scgo 1" clip-path="url(#clip0)">
<rect width="464" height="412" fill="white"/>
<path id="Vector" opacity="0.2" d="M139.944 27.5392C134.235 28.4786 128.031 30.0601 124.258 36.3563C119.797 43.7999 120.395 55.1141 122.416 64.5376C124.437 73.9611 127.631 83.1467 127.598 93.0162C127.508 108.706 119.02 122.024 109.358 129.045C99.6964 136.067 88.7912 138.332 78.3618 142.429C68.6346 146.268 59.3323 151.648 50.6773 158.44C43.3333 164.189 35.947 171.704 33.0076 183.048C28.1886 201.651 37.054 221.396 45.8112 236.67C72.6619 283.502 106.89 328.437 148.73 332.985C179.985 336.356 211.273 316.404 242.189 323.722C256.392 327.076 269.624 336.006 282.955 343.871C296.286 351.737 310.31 358.735 324.682 357.843C339.054 356.951 353.959 346.666 360.186 327.825C363.865 316.689 364.238 303.776 367.639 292.455C378.059 257.728 410.534 252.092 429.377 225.956C439.269 212.228 444.922 193.375 449.632 174.694C457.24 144.301 462.945 112.267 461.673 79.9541C461.117 65.8872 459.035 51.2793 452.85 40.4229C448.351 32.5215 442.072 27.2776 435.939 22.2062C421.976 10.6601 406.987 -1.26044 390.947 0.112954C381.705 0.903696 372.962 6.09405 364.143 10.1607C347.345 17.8898 329.822 21.7186 312.387 25.494C283.582 31.7367 254.361 37.9794 225.165 34.864C212.272 33.4787 200.095 27.9494 187.409 25.6842C171.981 22.9315 155.31 25.0124 139.944 27.5392Z" fill="#6C63FF"/>
<path id="Vector_2" opacity="0.5" d="M372.613 123.647C382.499 123.647 390.514 113.532 390.514 101.054C390.514 88.5768 382.499 78.4618 372.613 78.4618C362.727 78.4618 354.713 88.5768 354.713 101.054C354.713 113.532 362.727 123.647 372.613 123.647Z" fill="#6C63FF"/>
<path id="Vector_3" d="M316.241 180.812H152.437L161.797 144.456H166.814L167.817 153.885H297.521L298.189 144.456H304.205L316.241 180.812Z" fill="#6C63FF"/>
<path id="Vector_4" opacity="0.2" d="M316.241 180.812H152.437L161.797 144.456H166.814L167.817 153.885H297.521L298.189 144.456H304.205L316.241 180.812Z" fill="black"/>
<path id="Vector_5" d="M327.608 188.892H137.73L133.048 174.082H331.621L327.608 188.892Z" fill="#6C63FF"/>
<path id="Vector_6" d="M321.592 198.321H142.408L137.73 188.892H327.608L321.592 198.321Z" fill="#6C63FF"/>
<path id="Vector_7" d="M321.587 195.628H142.408V206.401H321.587V195.628Z" fill="#6C63FF"/>
<path id="Vector_8" d="M335.63 223.905H131.71V264.304H335.63V223.905Z" fill="#6C63FF"/>
<path id="Vector_9" opacity="0.2" d="M335.63 223.905H131.71V264.304H335.63V223.905Z" fill="black"/>
<path id="Vector_10" d="M464 359.906L0 355.869L13.3736 260.261H453.971L464 359.906Z" fill="#6C63FF"/>
<g id="Kytky" opacity="0.2">
<path id="Vector_11" opacity="0.2" d="M71.5382 189H81.2149C84.275 189 87.2099 196.57 89.3737 210.046C91.5375 223.521 92.7531 241.797 92.7531 260.854V406H60V260.854C60 241.797 61.2156 223.521 63.3795 210.046C65.5433 196.57 68.4781 189 71.5382 189Z" fill="black"/>
<path id="Vector_12" opacity="0.2" d="M142.498 189H152.175C155.235 189 158.17 196.57 160.334 210.046C162.498 223.521 163.713 241.797 163.713 260.854V406H130.96V260.854C130.96 241.797 132.176 223.521 134.339 210.046C136.503 196.57 139.438 189 142.498 189Z" fill="black"/>
<path id="Vector_13" opacity="0.2" d="M230.927 189H240.604C243.664 189 246.599 196.57 248.763 210.046C250.926 223.521 252.142 241.797 252.142 260.854V406H219.389V260.854C219.389 241.797 220.604 223.521 222.768 210.046C224.932 196.57 227.867 189 230.927 189V189Z" fill="black"/>
<path id="Vector_14" opacity="0.2" d="M322.633 189H332.302C335.362 189 338.297 196.57 340.461 210.046C342.624 223.521 343.84 241.797 343.84 260.854V406H311.095V260.854C311.095 241.797 312.31 223.521 314.474 210.046C316.638 196.57 319.573 189 322.633 189Z" fill="black"/>
<path id="Vector_15" opacity="0.2" d="M395.785 189H405.462C408.522 189 411.457 196.57 413.621 210.046C415.784 223.521 417 241.797 417 260.854V406H384.247V260.854C384.247 241.797 385.462 223.521 387.626 210.046C389.79 196.57 392.725 189 395.785 189Z" fill="black"/>
</g>
<path id="Vector_16" opacity="0.2" d="M242.698 264.304H221.302V318.169H242.698V264.304Z" fill="black"/>
<path id="Vector_17" d="M135.055 223.905H131.71V264.304H135.055V223.905Z" fill="#6C63FF"/>
<path id="Vector_18" d="M154.444 223.905H151.099V264.304H154.444V223.905Z" fill="#6C63FF"/>
<path id="Vector_19" d="M175.84 223.905H172.495V264.304H175.84V223.905Z" fill="#6C63FF"/>
<path id="Vector_20" d="M196.566 223.905H193.222V264.304H196.566V223.905Z" fill="#6C63FF"/>
<path id="Vector_21" d="M219.3 223.905H215.955V264.304H219.3V223.905Z" fill="#6C63FF"/>
<path id="Vector_22" d="M250.051 223.905H246.707V264.304H250.051V223.905Z" fill="#6C63FF"/>
<path id="Vector_23" d="M270.778 223.905H267.434V264.304H270.778V223.905Z" fill="#6C63FF"/>
<path id="Vector_24" d="M294.181 223.905H290.836V264.304H294.181V223.905Z" fill="#6C63FF"/>
<path id="Vector_25" d="M314.239 223.905H310.894V264.304H314.239V223.905Z" fill="#6C63FF"/>
<path id="Vector_26" d="M335.634 223.905H332.29V264.304H335.634V223.905Z" fill="#6C63FF"/>
<path id="Vector_27" d="M335.63 226.598H131.71L119.679 213.132H346.997L335.63 226.598Z" fill="#6C63FF"/>
<path id="Vector_28" d="M139.732 226.598H131.71V231.984H139.732V226.598Z" fill="#6C63FF"/>
<path id="Vector_29" d="M157.119 226.598H149.097V231.984H157.119V226.598Z" fill="#6C63FF"/>
<path id="Vector_30" d="M177.842 226.598H169.819V231.984H177.842V226.598Z" fill="#6C63FF"/>
<path id="Vector_31" d="M199.237 226.598H191.215V231.984H199.237V226.598Z" fill="#6C63FF"/>
<path id="Vector_32" d="M221.971 226.598H213.949V231.984H221.971V226.598Z" fill="#6C63FF"/>
<path id="Vector_33" d="M252.058 226.598H244.036V231.984H252.058V226.598Z" fill="#6C63FF"/>
<path id="Vector_34" d="M273.454 226.598H265.432V231.984H273.454V226.598Z" fill="#6C63FF"/>
<path id="Vector_35" d="M296.852 226.598H288.829V231.984H296.852V226.598Z" fill="#6C63FF"/>
<path id="Vector_36" d="M316.91 226.598H308.887V231.984H316.91V226.598Z" fill="#6C63FF"/>
<path id="Vector_37" d="M335.63 226.598H327.608V231.984H335.63V226.598Z" fill="#6C63FF"/>
<path id="Vector_38" d="M348.334 213.132H119.01L116.334 203.708H350.341L348.334 213.132Z" fill="#6C63FF"/>
<path id="Vector_39" opacity="0.2" d="M348.334 213.132H119.01L116.334 203.708H350.341L348.334 213.132Z" fill="black"/>
<path id="Vector_40" d="M232 210.438C234.953 210.438 237.347 205.615 237.347 199.665C237.347 193.715 234.953 188.892 232 188.892C229.047 188.892 226.653 193.715 226.653 199.665C226.653 205.615 229.047 210.438 232 210.438Z" fill="#6C63FF"/>
<path id="Vector_41" opacity="0.2" d="M232 210.438C234.953 210.438 237.347 205.615 237.347 199.665C237.347 193.715 234.953 188.892 232 188.892C229.047 188.892 226.653 193.715 226.653 199.665C226.653 205.615 229.047 210.438 232 210.438Z" fill="black"/>
<path id="Vector_42" d="M232 206.395C233.847 206.395 235.345 203.382 235.345 199.665C235.345 195.948 233.847 192.935 232 192.935C230.153 192.935 228.655 195.948 228.655 199.665C228.655 203.382 230.153 206.395 232 206.395Z" fill="#6C63FF"/>
<path id="Vector_43" d="M310.277 355.019L287.346 332.807C287.346 332.807 285.494 323.55 284.755 317.069C284.015 310.589 282.903 282.824 282.903 282.824C283.43 280.42 283.778 277.96 283.944 275.475C284.171 275.416 284.415 275.344 284.627 275.267C286.341 274.716 287.931 273.67 289.27 272.212C290.61 270.755 291.664 268.925 292.348 266.866C294.704 259.47 291.66 250.73 287.807 244.868C283.954 239.006 279.107 234.297 276.572 227.032C273.444 218.078 274.514 207.257 272.917 197.459C272.763 196.086 272.359 194.777 271.734 193.637C270.745 192.085 269.195 191.746 267.81 191.128C263.439 189.171 260.16 183.809 257.602 178.214C253.462 169.147 249.175 155.36 240.644 154.575C237.474 154.284 234.162 155.633 230.959 155.621C225.989 155.621 221.067 155.699 216.139 156.561C214.377 156.864 212.55 157.28 211.08 158.749C206.035 163.785 208.319 177.096 203.458 182.53C202.012 184.142 200.161 184.718 198.526 185.824C192.364 189.986 189.628 201.086 189.99 211.074C190.16 215.753 190.932 220.629 193.123 224.047C194.856 226.782 197.33 228.352 198.945 231.235C201.555 235.891 201.202 242.062 200.919 248.34C197.433 250.183 194.635 252.3 193.754 254.577C190.796 262.211 191.163 288.359 191.163 288.359C191.163 288.359 192.275 331.166 183.768 336.517L151.956 364.282C151.956 364.282 129.392 339.525 123.843 354.103C120.046 364.074 133.9 369.716 143.034 372.285C137.273 377.445 134.084 386.982 136.788 393.444C141.028 403.623 152.88 410.567 152.88 410.567C152.88 410.567 198.079 413.32 218.97 407.41H219.314C228.184 409.438 240.913 411.572 251.121 410.288C251.314 410.882 251.45 411.263 251.45 411.263C251.45 411.263 316.928 418.207 328.757 389.972C334.829 375.495 328.493 368.807 320.881 365.727C329.402 364.871 339.106 361.862 340.223 352.718C342.272 336.047 310.277 355.019 310.277 355.019ZM303.682 363.872C291.703 369.383 281.975 369.692 276.798 369.276C274.25 362.278 263.646 331.945 263.368 311.647C263.434 307.117 264.075 303.157 265.507 300.184C268.592 293.781 269.502 288.763 269.398 284.946C269.398 284.661 269.398 284.387 269.398 284.114C269.412 282.948 269.322 281.783 269.129 280.642C269.638 282.211 269.79 283.928 269.567 285.6C268.456 292.776 271.419 339.282 271.419 339.282C271.419 339.282 273.821 349.692 278.815 352.7L303.682 363.872ZM186.363 360.584L197.829 351.327C197.829 351.327 203.194 348.099 203.736 340.209L207.505 302.616C207.763 304.227 208.103 305.816 208.522 307.372C209.191 309.84 209.464 313.455 209.516 317.759C209.389 338.717 203.736 373.533 203.736 373.533H203.807L203.764 373.783L203.364 373.813C194.06 373.456 172.382 372.433 160.243 370.311L186.363 360.584ZM166.272 382.499V382.582H163.446L166.272 382.499Z" fill="url(#paint0_linear)"/>
<g id="Vlasy">
<path id="Vlasy 1" d="M256.74 181.995C259.213 187.453 262.393 192.697 266.609 194.588C267.947 195.182 269.436 195.521 270.378 197.031C270.98 198.147 271.37 199.422 271.518 200.759C273.058 210.313 272.026 220.867 275.051 229.594C277.5 236.664 282.187 241.271 285.914 246.973C289.64 252.675 292.565 261.2 290.304 268.406C289.651 270.403 288.64 272.182 287.351 273.603C286.063 275.025 284.53 276.05 282.875 276.599C279.757 277.663 276.502 277.193 273.336 276.51C269.162 275.576 264.913 274.132 261.437 270.564C255.421 264.399 252.878 253.323 249.731 243.477C248.252 238.863 246.287 234.03 243.037 232.377C239.311 230.486 235.128 233.643 232.711 238.275C230.295 242.906 229.221 248.727 228.052 254.327C226.733 260.647 225.061 267.217 221.594 271.349C220.091 273.201 218.194 274.463 216.134 274.983C214.075 275.503 211.939 275.259 209.987 274.28C206.124 272.247 203.067 267.11 202.182 261.147C200.811 251.955 204.094 240.932 200.066 233.667C198.503 230.855 196.114 229.321 194.414 226.657C192.317 223.322 191.55 218.572 191.385 214.011C191.031 204.273 193.679 193.422 199.633 189.391C201.225 188.315 203.001 187.751 204.4 186.181C209.111 180.901 206.892 167.923 211.768 162.994C213.181 161.561 214.952 161.163 216.657 160.859C221.434 160.021 226.178 159.926 230.983 159.944C234.082 159.944 237.281 158.642 240.347 158.927C248.596 159.712 252.727 173.155 256.74 181.995Z" fill="#F7F28B"/>
</g>
<path id="Vector_44" d="M168.307 378.819L170.111 405.793L296.301 404.848L293.898 375.4L251.234 369.134L176.419 374.829L168.307 378.819Z" fill="#575988"/>
<path id="Vector_45" opacity="0.05" d="M168.307 378.819L170.111 405.793L296.301 404.848L293.898 375.4L251.234 369.134L176.419 374.829L168.307 378.819Z" fill="black"/>
<path id="Vector_46" d="M251.342 397.677L209.332 402.642C209.332 402.642 238.114 411.893 254.917 407.398L251.342 397.677Z" fill="#F7C4A7"/>
<path id="Vector_47" opacity="0.1" d="M251.342 397.677L209.332 402.642C209.332 402.642 238.114 411.893 254.917 407.398L251.342 397.677Z" fill="black"/>
<path id="Vector_48" d="M219.342 207.703C219.342 207.703 227.567 235.005 215.409 247.187C203.251 259.369 213.266 293.442 213.266 293.442L260.104 290.737C260.104 290.737 264.753 252.383 262.247 244.256C262.247 244.256 251.163 248.317 248.662 239.743C246.16 231.17 244.37 207.703 244.37 207.703H219.342Z" fill="#F7C4A7"/>
<path id="Vector_49" d="M208.616 372.855C208.616 372.855 169.108 371.726 157.491 368.099C145.875 364.472 135.86 381.863 139.973 391.791C144.085 401.72 155.518 408.486 155.518 408.486C155.518 408.486 214.33 412.095 227.026 401.946C227.026 401.946 231.854 384.574 227.026 381.191H165.716L210.939 380.061L208.616 372.855Z" fill="#575988"/>
<path id="Vector_50" d="M271.367 367.671C271.367 367.671 284.595 371.28 302.83 362.255C302.83 362.255 336.972 360.899 325.535 388.415C314.097 415.93 250.81 409.17 250.81 409.17C250.81 409.17 247.041 399.015 250.81 396.31C254.578 393.605 287.28 376.232 297.445 377.13L269.181 384.122L271.367 367.671Z" fill="#575988"/>
<path id="Vector_51" opacity="0.1" d="M245.991 220.837C245.308 214.41 244.907 209.172 244.907 209.172H219.879C221.035 213.309 221.837 217.59 222.272 221.943C225.782 225.044 229.998 226.614 234.279 226.414C238.56 226.215 242.672 224.256 245.991 220.837V220.837Z" fill="black"/>
<path id="Vector_52" d="M233.018 224.957C243.877 224.957 252.68 213.846 252.68 200.141C252.68 186.435 243.877 175.325 233.018 175.325C222.158 175.325 213.355 186.435 213.355 200.141C213.355 213.846 222.158 224.957 233.018 224.957Z" fill="#F7C4A7"/>
<path id="Vector_53" d="M221.491 243.352C221.491 243.352 197.895 248.994 195.035 256.432C192.176 263.87 192.534 289.376 192.534 289.376C192.534 289.376 193.608 331.118 185.383 336.303L154.637 363.378C154.637 363.378 132.826 339.234 127.466 353.449C122.105 367.665 153.209 372.855 153.209 372.855L187.889 359.775L198.974 350.75C198.974 350.75 204.155 347.593 204.692 339.918L209.342 293.436L227.935 286.67H257.956L261.979 272.176C261.979 272.176 269.398 279.679 268.324 286.67C267.25 293.662 270.109 338.99 270.109 338.99C270.109 338.99 272.432 349.145 277.26 352.07L305.152 364.746C305.152 364.746 334.65 368.355 336.614 352.112C338.579 335.869 307.653 354.365 307.653 354.365L285.485 332.706C285.485 332.706 283.699 323.681 282.983 317.361C282.267 311.041 281.198 283.971 281.198 283.971C281.198 283.971 287.991 255.54 268.329 250.582L242.943 240.653L221.491 243.352Z" fill="#F7C4A7"/>
<path id="Vector_54" opacity="0.1" d="M205.667 249.101L209.332 279.673C209.332 279.673 205.564 293.888 209.332 307.878C213.101 321.867 204.678 373.985 204.678 373.985C204.678 373.985 248.831 391.821 275.809 371.28C275.809 371.28 255.968 318.484 264.367 300.886C272.766 283.288 264.504 276.403 264.504 276.403L265.823 244.054L259.746 241.8L256.17 273.781C256.17 273.781 231.501 295.44 213.266 276.486L209.332 241.741L205.667 249.101Z" fill="black"/>
<path id="Vector_55" opacity="0.07" d="M231.171 285.44C229.262 281.588 226.283 278.772 222.818 277.542C219.352 276.312 215.648 276.756 212.427 278.787C218.414 284.441 225.014 285.951 231.171 285.44Z" fill="white"/>
<path id="Vector_56" opacity="0.07" d="M241.304 282.051C243.213 278.199 246.191 275.383 249.657 274.153C253.122 272.923 256.827 273.367 260.047 275.398C254.065 281.052 247.46 282.568 241.304 282.051Z" fill="white"/>
<path id="Vector_57" opacity="0.1" d="M205.667 249.101L209.332 278.091C209.332 278.091 205.564 292.307 209.332 306.296C213.101 320.286 204.678 372.403 204.678 372.403C204.678 372.403 248.831 390.24 275.809 369.698C275.809 369.698 255.968 316.903 264.367 299.304C272.766 281.706 264.504 274.821 264.504 274.821L265.794 242.448L259.718 240.195L256.142 272.235C256.142 272.235 231.472 293.894 213.237 274.94L209.304 240.195L205.667 249.101Z" fill="black"/>
<path id="Vector_58" d="M205.488 248.875L209.332 278.543C209.332 278.543 205.564 292.759 209.332 306.748C213.101 320.738 204.678 372.855 204.678 372.855C204.678 372.855 248.831 390.692 275.809 370.15C275.809 370.15 255.968 317.355 264.367 299.756C272.766 282.158 264.504 275.273 264.504 275.273L265.794 242.9L259.718 240.647L256.142 272.687C256.142 272.687 231.472 294.346 213.237 275.392L209.304 240.647L205.488 248.875Z" fill="#FC6681"/>
<path id="Vector_59" d="M223.634 383.914L232.942 382.332C232.942 382.332 243.668 364.96 251.356 378.272C251.356 378.272 254.573 386.845 258.507 388.426C261.197 389.452 263.947 390.206 266.732 390.68L250.824 396.322C250.824 396.322 243.852 401.512 236.522 400.157C232.208 399.327 227.799 399.791 223.653 401.512L223.634 383.914Z" fill="#F7C4A7"/>
<path id="Vector_60" opacity="0.1" d="M213.355 310.244C213.355 310.244 230.158 313.401 233.017 307.765Z" fill="black"/>
<path id="Vector_61" opacity="0.1" d="M245.19 306.635C245.19 306.635 248.407 310.696 261.277 307.765Z" fill="black"/>
<path id="Vector_62" opacity="0.1" d="M212.46 243.685C212.46 243.685 224.793 245.938 227.12 244.589Z" fill="black"/>
<path id="Vector_63" opacity="0.1" d="M239.636 243.685C239.636 243.685 251.968 245.938 254.296 244.589Z" fill="black"/>
<g id="Vlasy_2">
<path id="Vlasy 3" d="M208.023 240.567C206.525 245.094 205.992 250.435 207.585 254.906C208.8 258.317 211.174 261.08 211.631 264.792C212.206 269.447 209.554 274.181 210.543 278.714C210.92 280.453 211.801 281.923 212.696 283.301C215.418 287.485 219.036 291.533 223.238 291.209C223.902 282.768 218.292 274.579 220.129 266.439C220.789 263.524 222.334 261.098 223.266 258.317C224.816 253.705 224.595 248.438 224.034 243.458C223.219 236.237 221.156 227.374 215.649 223.993C213.115 222.437 209.525 222.327 208.621 226.547C208.15 228.801 209.28 230.92 209.436 233.125C209.634 235.931 208.857 238.056 208.023 240.567Z" fill="#F7F28B"/>
<path id="Vlasy 2" d="M209.422 188.52C209.422 188.52 235.524 183.786 236.235 190.884C236.946 197.982 260.01 209.596 260.01 209.596L254.291 190.884L243.744 167.694C243.744 167.694 224.43 165.823 223.544 167.694C222.659 169.565 212.46 175.74 212.46 175.74L209.422 188.52Z" fill="#F7F28B"/>
<path id="Vector_64" opacity="0.1" d="M254.842 236.003C256.111 238.029 257.008 240.423 257.461 242.993C257.894 245.449 257.909 248.018 258.323 250.48C259.204 255.725 261.804 260.134 264.522 264.104C265.402 265.542 266.476 266.748 267.688 267.659C268.932 268.475 270.514 268.645 271.668 267.659C270.576 266.465 269.982 264.638 269.591 262.823C269.041 260.292 268.796 257.661 268.866 255.028C268.983 250.631 269.949 245.989 268.578 241.982C267.787 239.671 266.312 237.912 264.81 236.329C263.766 235.197 262.639 234.208 261.446 233.377C259.228 231.901 256.679 231.254 254.23 230.934C251.036 230.494 253.829 234.382 254.842 236.003Z" fill="black"/>
<path id="Vlasy 4" d="M254.842 235.318C256.113 237.349 257.009 239.747 257.461 242.322C257.894 244.778 257.909 247.346 258.323 249.809C259.204 255.053 261.804 259.462 264.522 263.432C265.402 264.87 266.476 266.076 267.688 266.987C268.932 267.804 270.514 267.973 271.668 266.987C270.576 265.794 269.982 263.966 269.591 262.151C269.041 259.62 268.796 256.989 268.866 254.356C268.983 249.959 269.949 245.318 268.578 241.31C267.787 238.999 266.312 237.24 264.81 235.658C263.766 234.526 262.639 233.537 261.446 232.705C259.228 231.229 256.679 230.583 254.23 230.262C251.036 229.816 253.829 233.704 254.842 235.318Z" fill="#F7F28B"/>
<path id="Vector_65" opacity="0.1" d="M224.976 382.219C224.976 382.219 228.373 402.434 224.976 403.147C221.58 403.861 216.752 399.818 216.752 399.366C216.752 398.914 218.895 386.054 218.895 386.054L224.976 382.219Z" fill="black"/>
<path id="Vector_66" d="M224.618 382.219C224.618 382.219 228.015 402.434 224.618 403.147C221.222 403.861 216.394 399.818 216.394 399.366C216.394 398.914 218.537 386.054 218.537 386.054L224.618 382.219Z" fill="#575988"/>
<path id="Vector_67" opacity="0.1" d="M208.023 240.73C206.525 245.124 205.992 250.308 207.585 254.648C208.8 257.96 211.174 260.641 211.631 264.244C212.206 268.763 209.554 273.359 210.543 277.758C210.92 279.447 211.801 280.874 212.696 282.211C215.418 286.272 219.036 290.202 223.238 289.887C223.902 281.694 218.292 273.745 220.129 265.844C220.789 263.014 222.334 260.659 223.266 257.96C224.816 253.483 224.595 248.37 224.034 243.536C223.219 236.527 221.156 227.924 215.649 224.642C213.115 223.132 209.525 223.025 208.621 227.121C208.15 229.309 209.28 231.366 209.436 233.507C209.634 236.224 208.857 238.287 208.023 240.73Z" fill="black"/>
<path id="Vector_68" opacity="0.1" d="M209.422 187.959C209.422 187.959 235.524 183.446 236.235 190.212C236.946 196.978 260.01 208.048 260.01 208.048L254.291 190.212L243.744 168.101C243.744 168.101 224.43 166.317 223.544 168.101C222.659 169.885 212.46 175.77 212.46 175.77L209.422 187.959Z" fill="black"/>
</g>
<g id="Oblaka">
<path id="oblak2" d="M243.155 98.3433H239.914C240.22 98.3609 240.527 98.2999 240.814 98.164C241.101 98.0281 241.364 97.8201 241.586 97.5525C241.808 97.2849 241.984 96.9634 242.105 96.6073C242.226 96.2511 242.288 95.8678 242.288 95.4805C242.288 95.0932 242.226 94.7099 242.105 94.3538C241.984 93.9977 241.808 93.6761 241.586 93.4085C241.364 93.141 241.101 92.933 240.814 92.7971C240.527 92.6611 240.22 92.6002 239.914 92.6178H213.661C213.078 92.6514 212.527 92.9677 212.123 93.5008C211.72 94.034 211.494 94.7431 211.494 95.4805C211.494 96.218 211.72 96.927 212.123 97.4602C212.527 97.9934 213.078 98.3097 213.661 98.3433H216.902C216.596 98.3256 216.29 98.3866 216.002 98.5225C215.715 98.6584 215.452 98.8664 215.23 99.134C215.009 99.4016 214.832 99.7231 214.711 100.079C214.591 100.435 214.528 100.819 214.528 101.206C214.528 101.593 214.591 101.977 214.711 102.333C214.832 102.689 215.009 103.01 215.23 103.278C215.452 103.546 215.715 103.754 216.002 103.889C216.29 104.025 216.596 104.086 216.902 104.069H212.366C212.059 104.051 211.753 104.112 211.466 104.248C211.178 104.384 210.916 104.592 210.694 104.859C210.472 105.127 210.296 105.449 210.175 105.805C210.054 106.161 209.992 106.544 209.992 106.931C209.992 107.319 210.054 107.702 210.175 108.058C210.296 108.414 210.472 108.736 210.694 109.003C210.916 109.271 211.178 109.479 211.466 109.615C211.753 109.751 212.059 109.812 212.366 109.794H238.618C238.925 109.812 239.231 109.751 239.519 109.615C239.806 109.479 240.069 109.271 240.29 109.003C240.512 108.736 240.689 108.414 240.81 108.058C240.93 107.702 240.992 107.319 240.992 106.931C240.992 106.544 240.93 106.161 240.81 105.805C240.689 105.449 240.512 105.127 240.29 104.859C240.069 104.592 239.806 104.384 239.519 104.248C239.231 104.112 238.925 104.051 238.618 104.069H243.155C243.461 104.086 243.768 104.025 244.055 103.889C244.342 103.754 244.605 103.546 244.827 103.278C245.049 103.01 245.225 102.689 245.346 102.333C245.467 101.977 245.529 101.593 245.529 101.206C245.529 100.819 245.467 100.435 245.346 100.079C245.225 99.7231 245.049 99.4016 244.827 99.134C244.605 98.8664 244.342 98.6584 244.055 98.5225C243.768 98.3866 243.461 98.3256 243.155 98.3433V98.3433Z" fill="#FFFBFC"/>
<path id="oblak3" d="M370.343 98.3433H367.102C367.408 98.3609 367.714 98.2999 368.002 98.164C368.289 98.0281 368.552 97.8201 368.774 97.5525C368.996 97.2849 369.172 96.9634 369.293 96.6073C369.413 96.2511 369.476 95.8678 369.476 95.4805C369.476 95.0932 369.413 94.7099 369.293 94.3538C369.172 93.9977 368.996 93.6761 368.774 93.4085C368.552 93.141 368.289 92.933 368.002 92.7971C367.714 92.6611 367.408 92.6002 367.102 92.6178H340.849C340.266 92.6514 339.715 92.9677 339.311 93.5008C338.907 94.034 338.682 94.7431 338.682 95.4805C338.682 96.218 338.907 96.927 339.311 97.4602C339.715 97.9934 340.266 98.3097 340.849 98.3433H344.09C343.784 98.3256 343.477 98.3866 343.19 98.5225C342.903 98.6584 342.64 98.8664 342.418 99.134C342.196 99.4016 342.02 99.7231 341.899 100.079C341.778 100.435 341.716 100.819 341.716 101.206C341.716 101.593 341.778 101.977 341.899 102.333C342.02 102.689 342.196 103.01 342.418 103.278C342.64 103.546 342.903 103.754 343.19 103.889C343.477 104.025 343.784 104.086 344.09 104.069H339.554C339.247 104.051 338.941 104.112 338.654 104.248C338.366 104.384 338.104 104.592 337.882 104.859C337.66 105.127 337.483 105.449 337.363 105.805C337.242 106.161 337.18 106.544 337.18 106.931C337.18 107.319 337.242 107.702 337.363 108.058C337.483 108.414 337.66 108.736 337.882 109.003C338.104 109.271 338.366 109.479 338.654 109.615C338.941 109.751 339.247 109.812 339.554 109.794H365.806C366.113 109.812 366.419 109.751 366.706 109.615C366.994 109.479 367.256 109.271 367.478 109.003C367.7 108.736 367.877 108.414 367.997 108.058C368.118 107.702 368.18 107.319 368.18 106.931C368.18 106.544 368.118 106.161 367.997 105.805C367.877 105.449 367.7 105.127 367.478 104.859C367.256 104.592 366.994 104.384 366.706 104.248C366.419 104.112 366.113 104.051 365.806 104.069H370.343C370.649 104.086 370.955 104.025 371.243 103.889C371.53 103.754 371.793 103.546 372.015 103.278C372.236 103.01 372.413 102.689 372.534 102.333C372.654 101.977 372.717 101.593 372.717 101.206C372.717 100.819 372.654 100.435 372.534 100.079C372.413 99.7231 372.236 99.4016 372.015 99.134C371.793 98.8664 371.53 98.6584 371.243 98.5225C370.955 98.3866 370.649 98.3256 370.343 98.3433V98.3433Z" fill="#FFFBFC"/>
<path id="oblak1" d="M99.4797 171.472H96.2388C96.5453 171.49 96.8516 171.429 97.1389 171.293C97.4263 171.157 97.6888 170.949 97.9107 170.681C98.1326 170.414 98.3092 170.092 98.4299 169.736C98.5505 169.38 98.6127 168.997 98.6127 168.609C98.6127 168.222 98.5505 167.839 98.4299 167.482C98.3092 167.126 98.1326 166.805 97.9107 166.537C97.6888 166.27 97.4263 166.062 97.1389 165.926C96.8516 165.79 96.5453 165.729 96.2388 165.747H69.9863C69.4026 165.78 68.8516 166.096 68.448 166.63C68.0444 167.163 67.8191 167.872 67.8191 168.609C67.8191 169.347 68.0444 170.056 68.448 170.589C68.8516 171.122 69.4026 171.438 69.9863 171.472H73.2272C72.6435 171.506 72.0926 171.822 71.689 172.355C71.2853 172.888 71.0601 173.597 71.0601 174.335C71.0601 175.072 71.2853 175.781 71.689 176.314C72.0926 176.848 72.6435 177.164 73.2272 177.197H68.6909C68.3843 177.18 68.0781 177.241 67.7907 177.377C67.5034 177.513 67.2408 177.721 67.0189 177.988C66.7971 178.256 66.6204 178.577 66.4998 178.933C66.3791 179.289 66.3169 179.673 66.3169 180.06C66.3169 180.447 66.3791 180.831 66.4998 181.187C66.6204 181.543 66.7971 181.865 67.0189 182.132C67.2408 182.4 67.5034 182.608 67.7907 182.744C68.0781 182.879 68.3843 182.94 68.6909 182.923H94.9434C95.2499 182.94 95.5561 182.879 95.8435 182.744C96.1309 182.608 96.3934 182.4 96.6153 182.132C96.8372 181.865 97.0138 181.543 97.1344 181.187C97.2551 180.831 97.3173 180.447 97.3173 180.06C97.3173 179.673 97.2551 179.289 97.1344 178.933C97.0138 178.577 96.8372 178.256 96.6153 177.988C96.3934 177.721 96.1309 177.513 95.8435 177.377C95.5561 177.241 95.2499 177.18 94.9434 177.197H99.4797C100.063 177.164 100.614 176.848 101.018 176.314C101.422 175.781 101.647 175.072 101.647 174.335C101.647 173.597 101.422 172.888 101.018 172.355C100.614 171.822 100.063 171.506 99.4797 171.472V171.472Z" fill="#FFFBFC"/>
</g>
<g id="Kytky_2">
<path id="Vector_69" d="M381.799 219.267C381.799 225.373 373.042 243.049 373.042 243.049C373.042 243.049 364.285 225.349 364.285 219.267C364.258 217.795 364.464 216.33 364.892 214.96C365.32 213.589 365.96 212.34 366.776 211.287C367.592 210.233 368.566 209.396 369.641 208.824C370.717 208.253 371.872 207.958 373.04 207.958C374.207 207.958 375.362 208.253 376.438 208.824C377.513 209.396 378.487 210.233 379.303 211.287C380.119 212.34 380.759 213.589 381.187 214.96C381.615 216.33 381.821 217.795 381.794 219.267H381.799Z" fill="#6C63FF"/>
<path id="Vector_70" d="M396.289 253.073C393.66 258.198 378.69 267.045 378.69 267.045C378.69 267.045 378.963 246.182 381.592 241.057C382.881 238.677 384.856 237.027 387.096 236.459C389.336 235.891 391.662 236.45 393.58 238.017C395.498 239.584 396.854 242.035 397.36 244.847C397.866 247.658 397.482 250.608 396.289 253.067V253.073Z" fill="#6C63FF"/>
<path id="Vector_71" d="M395.653 310.845C391.333 313.591 374.874 311.695 374.874 311.695C374.874 311.695 383.452 293.859 387.772 291.112C388.801 290.424 389.929 290.002 391.089 289.871C392.249 289.739 393.418 289.901 394.528 290.348C395.638 290.794 396.666 291.515 397.552 292.468C398.438 293.422 399.165 294.589 399.69 295.902C400.214 297.214 400.526 298.645 400.607 300.112C400.688 301.578 400.536 303.05 400.16 304.442C399.785 305.833 399.193 307.116 398.42 308.216C397.647 309.315 396.708 310.209 395.658 310.845H395.653Z" fill="#6C63FF"/>
<path id="Vector_72" d="M387.376 354.419C383.49 358.045 367.008 359.686 367.008 359.686C367.008 359.686 373.075 340.28 376.961 336.648C377.885 335.771 378.937 335.133 380.057 334.772C381.177 334.411 382.342 334.333 383.486 334.543C384.63 334.753 385.73 335.247 386.721 335.996C387.713 336.745 388.578 337.735 389.265 338.908C389.953 340.081 390.449 341.414 390.727 342.83C391.004 344.246 391.056 345.718 390.88 347.16C390.705 348.602 390.305 349.985 389.703 351.231C389.102 352.477 388.311 353.56 387.376 354.419V354.419Z" fill="#6C63FF"/>
<path id="Vector_73" d="M360.304 268.228C363.771 272.479 379.934 276.884 379.934 276.884C379.934 276.884 375.977 256.628 372.51 252.371C370.832 250.411 368.614 249.356 366.328 249.432C364.042 249.508 361.871 250.709 360.278 252.779C358.685 254.849 357.796 257.623 357.802 260.508C357.808 263.394 358.708 266.162 360.309 268.222L360.304 268.228Z" fill="#6C63FF"/>
<path id="Vector_74" d="M351.137 319.341C355.457 322.087 371.916 320.191 371.916 320.191C371.916 320.191 363.338 302.355 359.018 299.608C357.989 298.92 356.861 298.498 355.701 298.367C354.541 298.235 353.372 298.398 352.262 298.844C351.153 299.29 350.125 300.011 349.238 300.964C348.352 301.918 347.625 303.085 347.101 304.398C346.576 305.71 346.264 307.142 346.184 308.608C346.103 310.074 346.255 311.546 346.63 312.938C347.005 314.329 347.597 315.612 348.37 316.712C349.143 317.811 350.082 318.705 351.133 319.341H351.137Z" fill="#6C63FF"/>
<path id="Vector_75" d="M347.628 370.566C351.514 374.193 367.997 375.834 367.997 375.834C367.997 375.834 361.929 356.422 358.038 352.795C357.115 351.919 356.063 351.281 354.943 350.92C353.823 350.559 352.657 350.481 351.513 350.691C350.37 350.901 349.27 351.395 348.278 352.144C347.286 352.893 346.422 353.883 345.734 355.056C345.047 356.228 344.55 357.561 344.273 358.978C343.996 360.394 343.944 361.866 344.119 363.307C344.295 364.749 344.695 366.133 345.296 367.379C345.898 368.625 346.688 369.708 347.623 370.566H347.628Z" fill="#6C63FF"/>
<path id="Vector_76" d="M381.799 219.267C381.799 225.373 373.042 243.049 373.042 243.049C373.042 243.049 364.285 225.349 364.285 219.267C364.258 217.795 364.464 216.33 364.892 214.96C365.32 213.589 365.96 212.34 366.776 211.287C367.592 210.233 368.566 209.396 369.641 208.824C370.717 208.253 371.872 207.958 373.04 207.958C374.207 207.958 375.362 208.253 376.438 208.824C377.513 209.396 378.487 210.233 379.303 211.287C380.119 212.34 380.759 213.589 381.187 214.96C381.615 216.33 381.821 217.795 381.794 219.267H381.799Z" fill="#FC6681"/>
<path id="Vector_77" d="M396.289 253.073C393.66 258.198 378.69 267.045 378.69 267.045C378.69 267.045 378.963 246.182 381.592 241.057C382.881 238.677 384.856 237.027 387.096 236.459C389.336 235.891 391.662 236.45 393.58 238.017C395.498 239.584 396.854 242.035 397.36 244.847C397.866 247.658 397.482 250.608 396.289 253.067V253.073Z" fill="#FC6681"/>
<path id="Vector_78" d="M395.653 310.845C391.333 313.591 374.874 311.695 374.874 311.695C374.874 311.695 383.452 293.859 387.772 291.112C388.801 290.424 389.929 290.002 391.089 289.871C392.249 289.739 393.418 289.901 394.528 290.348C395.638 290.794 396.666 291.515 397.552 292.468C398.438 293.422 399.165 294.589 399.69 295.902C400.214 297.214 400.526 298.645 400.607 300.112C400.688 301.578 400.536 303.05 400.16 304.442C399.785 305.833 399.193 307.116 398.42 308.216C397.647 309.315 396.708 310.209 395.658 310.845H395.653Z" fill="#FC6681"/>
<path id="Vector_79" d="M387.376 354.419C383.49 358.045 367.008 359.686 367.008 359.686C367.008 359.686 373.075 340.28 376.961 336.648C377.885 335.771 378.937 335.133 380.057 334.772C381.177 334.411 382.342 334.333 383.486 334.543C384.63 334.753 385.73 335.247 386.721 335.996C387.713 336.745 388.578 337.735 389.265 338.908C389.953 340.081 390.449 341.414 390.727 342.83C391.004 344.246 391.056 345.718 390.88 347.16C390.705 348.602 390.305 349.985 389.703 351.231C389.102 352.477 388.311 353.56 387.376 354.419V354.419Z" fill="#FC6681"/>
<path id="Vector_80" d="M360.304 268.228C363.771 272.479 379.934 276.884 379.934 276.884C379.934 276.884 375.977 256.628 372.51 252.371C370.832 250.411 368.614 249.356 366.328 249.432C364.042 249.508 361.871 250.709 360.278 252.779C358.685 254.849 357.796 257.623 357.802 260.508C357.808 263.394 358.708 266.162 360.309 268.222L360.304 268.228Z" fill="#FC6681"/>
<path id="Vector_81" d="M351.137 319.341C355.457 322.087 371.916 320.191 371.916 320.191C371.916 320.191 363.338 302.355 359.018 299.608C357.989 298.92 356.861 298.498 355.701 298.367C354.541 298.235 353.372 298.398 352.262 298.844C351.153 299.29 350.125 300.011 349.238 300.964C348.352 301.918 347.625 303.085 347.101 304.398C346.576 305.71 346.264 307.142 346.184 308.608C346.103 310.074 346.255 311.546 346.63 312.938C347.005 314.329 347.597 315.612 348.37 316.712C349.143 317.811 350.082 318.705 351.133 319.341H351.137Z" fill="#FC6681"/>
<path id="Vector_82" d="M347.628 370.566C351.514 374.193 367.997 375.834 367.997 375.834C367.997 375.834 361.929 356.422 358.038 352.795C357.115 351.919 356.063 351.281 354.943 350.92C353.823 350.559 352.657 350.481 351.513 350.691C350.37 350.901 349.27 351.395 348.278 352.144C347.286 352.893 346.422 353.883 345.734 355.056C345.047 356.228 344.55 357.561 344.273 358.978C343.996 360.394 343.944 361.866 344.119 363.307C344.295 364.749 344.695 366.133 345.296 367.379C345.898 368.625 346.688 369.708 347.623 370.566H347.628Z" fill="#FC6681"/>
<path id="Vector_83" d="M107.639 218.078C107.639 224.184 98.8815 241.86 98.8815 241.86C98.8815 241.86 90.1243 224.16 90.1243 218.078C90.0973 216.606 90.3037 215.141 90.7315 213.77C91.1593 212.4 91.7999 211.151 92.6155 210.098C93.4311 209.044 94.4054 208.207 95.481 207.635C96.5567 207.064 97.712 206.769 98.8791 206.769C100.046 206.769 101.202 207.064 102.277 207.635C103.353 208.207 104.327 209.044 105.143 210.098C105.958 211.151 106.599 212.4 107.027 213.77C107.454 215.141 107.661 216.606 107.634 218.078H107.639Z" fill="#6C63FF"/>
<path id="Vector_84" d="M122.129 251.884C119.5 257.009 104.53 265.856 104.53 265.856C104.53 265.856 104.803 244.993 107.431 239.868C108.721 237.488 110.696 235.838 112.935 235.27C115.175 234.702 117.502 235.261 119.42 236.828C121.337 238.395 122.694 240.846 123.2 243.658C123.706 246.469 123.322 249.419 122.129 251.878V251.884Z" fill="#6C63FF"/>
<path id="Vector_85" d="M121.493 309.656C117.173 312.402 100.714 310.506 100.714 310.506C100.714 310.506 109.292 292.669 113.612 289.923C115.679 288.672 118.052 288.493 120.222 289.426C122.392 290.358 124.185 292.328 125.218 294.911C126.25 297.494 126.439 300.485 125.743 303.242C125.047 305.999 123.523 308.301 121.497 309.656H121.493Z" fill="#6C63FF"/>
<path id="Vector_86" d="M113.216 353.23C109.33 356.856 92.8471 358.497 92.8471 358.497C92.8471 358.497 98.9144 339.091 102.801 335.459C103.724 334.582 104.777 333.944 105.897 333.583C107.016 333.222 108.182 333.144 109.326 333.354C110.47 333.564 111.569 334.058 112.561 334.807C113.553 335.556 114.418 336.546 115.105 337.719C115.792 338.892 116.289 340.225 116.566 341.641C116.843 343.057 116.896 344.529 116.72 345.971C116.544 347.413 116.144 348.796 115.543 350.042C114.942 351.288 114.151 352.371 113.216 353.23V353.23Z" fill="#6C63FF"/>
<path id="Vector_87" d="M86.1438 267.039C89.6109 271.29 105.773 275.695 105.773 275.695C105.773 275.695 101.816 255.439 98.3491 251.182C96.6717 249.221 94.4532 248.166 92.1676 248.243C89.8821 248.319 87.7107 249.52 86.1176 251.59C84.5244 253.659 83.6358 256.434 83.6416 259.319C83.6474 262.205 84.5471 264.973 86.1485 267.033L86.1438 267.039Z" fill="#6C63FF"/>
<path id="Vector_88" d="M76.9769 318.152C81.2966 320.898 97.7556 319.002 97.7556 319.002C97.7556 319.002 89.1775 301.165 84.8578 298.419C82.791 297.167 80.4178 296.989 78.2478 297.922C76.0779 298.854 74.2842 300.824 73.2519 303.407C72.2196 305.99 72.031 308.981 72.7266 311.738C73.4221 314.495 74.9464 316.797 76.9722 318.152H76.9769Z" fill="#6C63FF"/>
<path id="Vector_89" d="M73.4675 369.377C77.3537 373.004 93.8364 374.645 93.8364 374.645C93.8364 374.645 87.769 355.233 83.878 351.606C82.9543 350.729 81.9021 350.092 80.7822 349.731C79.6623 349.37 78.4968 349.292 77.353 349.502C76.2091 349.712 75.1096 350.206 74.1177 350.955C73.1258 351.704 72.2612 352.694 71.5738 353.866C70.8864 355.039 70.3898 356.372 70.1126 357.789C69.8354 359.205 69.7831 360.676 69.9587 362.118C70.1343 363.56 70.5343 364.944 71.1357 366.19C71.7371 367.436 72.528 368.519 73.4628 369.377H73.4675Z" fill="#6C63FF"/>
<path id="Vector_90" d="M107.639 218.078C107.639 224.184 98.8815 241.86 98.8815 241.86C98.8815 241.86 90.1243 224.16 90.1243 218.078C90.0973 216.606 90.3037 215.141 90.7315 213.77C91.1593 212.4 91.7999 211.151 92.6155 210.098C93.4311 209.044 94.4054 208.207 95.481 207.635C96.5567 207.064 97.712 206.769 98.8791 206.769C100.046 206.769 101.202 207.064 102.277 207.635C103.353 208.207 104.327 209.044 105.143 210.098C105.958 211.151 106.599 212.4 107.027 213.77C107.454 215.141 107.661 216.606 107.634 218.078H107.639Z" fill="#FC6681"/>
<path id="Vector_91" d="M122.129 251.884C119.5 257.009 104.53 265.856 104.53 265.856C104.53 265.856 104.803 244.993 107.431 239.868C108.721 237.488 110.696 235.838 112.935 235.27C115.175 234.702 117.502 235.261 119.42 236.828C121.337 238.395 122.694 240.846 123.2 243.658C123.706 246.469 123.322 249.419 122.129 251.878V251.884Z" fill="#FC6681"/>
<path id="Vector_92" d="M121.493 309.656C117.173 312.402 100.714 310.506 100.714 310.506C100.714 310.506 109.292 292.669 113.612 289.923C115.679 288.672 118.052 288.493 120.222 289.426C122.392 290.358 124.185 292.328 125.218 294.911C126.25 297.494 126.439 300.485 125.743 303.242C125.047 305.999 123.523 308.301 121.497 309.656H121.493Z" fill="#FC6681"/>
<path id="Vector_93" d="M113.216 353.23C109.33 356.856 92.8471 358.497 92.8471 358.497C92.8471 358.497 98.9144 339.091 102.801 335.459C103.724 334.582 104.777 333.944 105.897 333.583C107.016 333.222 108.182 333.144 109.326 333.354C110.47 333.564 111.569 334.058 112.561 334.807C113.553 335.556 114.418 336.546 115.105 337.719C115.792 338.892 116.289 340.225 116.566 341.641C116.843 343.057 116.896 344.529 116.72 345.971C116.544 347.413 116.144 348.796 115.543 350.042C114.942 351.288 114.151 352.371 113.216 353.23V353.23Z" fill="#FC6681"/>
<path id="Vector_94" d="M86.1438 267.039C89.6109 271.29 105.773 275.695 105.773 275.695C105.773 275.695 101.816 255.439 98.3491 251.182C96.6717 249.221 94.4532 248.166 92.1676 248.243C89.8821 248.319 87.7107 249.52 86.1176 251.59C84.5244 253.659 83.6358 256.434 83.6416 259.319C83.6474 262.205 84.5471 264.973 86.1485 267.033L86.1438 267.039Z" fill="#FC6681"/>
<path id="Vector_95" d="M76.9769 318.152C81.2966 320.898 97.7556 319.002 97.7556 319.002C97.7556 319.002 89.1775 301.165 84.8578 298.419C82.791 297.167 80.4178 296.989 78.2478 297.922C76.0779 298.854 74.2842 300.824 73.2519 303.407C72.2196 305.99 72.031 308.981 72.7266 311.738C73.4221 314.495 74.9464 316.797 76.9722 318.152H76.9769Z" fill="#FC6681"/>
<path id="Vector_96" d="M73.4675 369.377C77.3537 373.004 93.8364 374.645 93.8364 374.645C93.8364 374.645 87.769 355.233 83.878 351.606C82.9543 350.729 81.9021 350.092 80.7822 349.731C79.6623 349.37 78.4968 349.292 77.353 349.502C76.2091 349.712 75.1096 350.206 74.1177 350.955C73.1258 351.704 72.2612 352.694 71.5738 353.866C70.8864 355.039 70.3898 356.372 70.1126 357.789C69.8354 359.205 69.7831 360.676 69.9587 362.118C70.1343 363.56 70.5343 364.944 71.1357 366.19C71.7371 367.436 72.528 368.519 73.4628 369.377H73.4675Z" fill="#FC6681"/>
<path id="Vector_97" d="M371.544 401.387C371.544 401.387 359.923 351.589 373.725 314.935C379.519 299.554 381.441 282.283 378.765 265.588C377.486 257.662 375.633 249.9 373.23 242.401" stroke="#535461" stroke-width="2" stroke-miterlimit="10"/>
<path id="Vector_98" d="M97.3835 400.198C97.3835 400.198 85.7623 350.399 99.5645 313.746C105.359 298.365 107.281 281.094 104.605 264.399C103.325 256.473 101.473 248.711 99.0699 241.212" stroke="#535461" stroke-width="2" stroke-miterlimit="10"/>
</g>
</g>
<defs>
<linearGradient id="paint0_linear" x1="231.769" y1="412.006" x2="231.769" y2="154.569" gradientUnits="userSpaceOnUse">
<stop stop-color="#808080" stop-opacity="0.25"/>
<stop offset="0.54" stop-color="#808080" stop-opacity="0.12"/>
<stop offset="1" stop-color="#808080" stop-opacity="0.1"/>
</linearGradient>
<clipPath id="clip0">
<rect width="464" height="412" fill="white"/>
</clipPath>
</defs>
</svg>
