<svg width="596" height="352" viewBox="0 0 596 352" fill="none" xmlns="http://www.w3.org/2000/svg">
<rect width="596" height="352" fill="#E5E5E5"/>
<g id="programmer 1" clip-path="url(#clip0)">
<rect width="596" height="352" fill="white"/>
<path id="Vector" d="M550.302 278.345C549.638 279.933 548.976 281.499 548.316 283.045C547.286 285.446 546.269 287.8 545.266 290.108C544.819 291.131 544.373 292.134 543.938 293.138C539.016 304.298 534.42 314.169 530.516 322.287C526.974 329.642 521.715 335.805 515.29 340.13C508.864 344.454 501.509 346.782 493.995 346.868L407.198 347.916H406.282L398.841 348.005L392.477 348.081L372.96 348.316H372.17L362.234 348.437H361.93L300.689 349.174L246.024 349.809L239.665 349.885L200.173 350.362H200.127L174.514 350.667H174.239L93.2519 351.638L69.0243 351.931C66.9614 351.957 64.8989 351.842 62.8487 351.588V351.588C62.1504 351.499 61.4521 351.397 60.7596 351.276C49.4602 349.341 39.0996 343.167 31.4037 333.783C20.9812 321.061 13.3976 306.216 8.30367 290.108C7.56724 287.783 6.88042 285.429 6.24321 283.045C-11.3909 216.891 10.1066 131.541 48.7975 74.4251C50.4191 72.0368 52.0675 69.7078 53.7426 67.438L53.7826 67.3872C65.6818 51.1773 79.0233 37.6352 93.2348 28.0058C118.418 10.913 146.32 6.09832 173.764 20.4471C196.985 32.5918 218.665 38.3021 239.682 39.852C241.805 40.0044 243.929 40.1188 246.041 40.1886C294.25 41.8719 339.431 22.594 392.488 10.1508C394.6 9.65534 396.718 9.16625 398.853 8.70257C436.702 0.343545 478.69 -4.06463 528.622 5.20271C533.809 6.1432 538.928 7.50185 543.938 9.26788C546.139 10.0555 548.261 10.9024 550.302 11.8086C574.135 22.5686 587.133 42.4499 592.656 67.3618C593.179 69.6739 593.631 72.0262 594.013 74.4187C603.806 134.342 575.125 219.342 550.302 278.345Z" fill="#F2F2F2"/>
<path id="Vector_2" opacity="0.1" d="M284.47 283.044C284.239 285.42 283.881 287.779 283.399 290.108H337.029V283.044H284.47ZM239.683 322.94L246.042 322.883V305.435C243.861 305.327 241.738 305.219 239.683 305.104V322.94ZM106.371 283.044V290.108H219.983V283.044H106.371ZM592.686 67.3867H550.332V11.8144C548.291 10.8955 546.169 10.0486 543.968 9.27368V67.3867H398.854V8.68297C396.719 9.14665 394.601 9.63574 392.489 10.1312V67.3867H246.042V40.169C243.93 40.0992 241.807 39.9848 239.683 39.8324V67.3867H93.2359V28.0053C79.0244 37.6347 65.6829 51.1768 53.7838 67.3867H53.7437V67.4375C52.0648 69.7242 50.4164 72.0532 48.7986 74.4245H53.7437V283.044H6.23862C6.87202 285.429 7.55884 287.783 8.29908 290.108H53.738V349.574C56.0242 350.35 58.3578 350.942 60.7207 351.346C61.4132 351.466 62.1115 351.568 62.8097 351.657C64.86 351.912 66.9225 352.026 68.9854 352L93.213 351.708V290.095H239.683V349.936L246.042 349.859V290.108H392.489V348.138L398.854 348.062V290.108H543.939V293.137C544.374 292.134 544.82 291.13 545.267 290.108C546.27 287.8 547.287 285.445 548.317 283.044C548.978 281.503 549.64 279.936 550.303 278.344V74.4499H594.043C593.657 72.0405 593.205 69.6861 592.686 67.3867ZM93.2359 283.044V74.4245H239.683V283.044H93.2359ZM246.053 283.044V74.4245H392.489V283.044H246.053ZM543.95 283.044H398.854V74.4245H543.939L543.95 283.044Z" fill="black"/>
<path id="Vector_3" d="M493.99 338.966V347.223L407.038 348.113L406.111 348.132L373.064 348.468L372.274 348.481L362.229 348.576H361.932L300.702 349.205L200.191 350.241H200.105L174.55 350.507L174.275 350.514L60.7207 351.67V342.142L87.4208 324.357L140.993 323.861L142.138 323.855L142.515 323.849L143.66 323.83L169.381 323.595L170.532 323.588L170.898 323.582L172.043 323.576L180.29 323.499L180.508 323.493L200.855 323.302H201.021L359.791 321.816L363.677 321.784H364.066L367.031 321.753L388.58 321.556L389.725 321.537L390.784 321.524H391.333L398.035 321.467L399.363 321.448L401.143 321.435L406.724 321.378L415.578 321.295L416.723 321.283L418.714 321.27H419.086L461.847 320.863L493.99 338.966Z" fill="#65617D"/>
<path id="Vector_4" opacity="0.2" d="M493.99 338.966V347.223L407.038 348.113L406.111 348.132L373.064 348.468L372.274 348.481L362.229 348.576H361.932L300.702 349.205L200.191 350.241H200.105L174.55 350.507L174.275 350.514L60.7207 351.67V342.142L87.4208 324.357L140.993 323.861L142.138 323.855L142.515 323.849L143.66 323.83L169.381 323.595L170.532 323.588L170.898 323.582L172.043 323.576L180.29 323.499L180.508 323.493L200.855 323.302H201.021L359.791 321.816L363.677 321.784H364.066L367.031 321.753L388.58 321.556L389.725 321.537L390.784 321.524H391.333L398.035 321.467L399.363 321.448L401.143 321.435L406.724 321.378L415.578 321.295L416.723 321.283L418.714 321.27H419.086L461.847 320.863L493.99 338.966Z" fill="black"/>
<path id="Vector_5" d="M169.473 307.213V322.769C169.473 323.506 169.285 324.227 168.931 324.85C168.576 325.473 168.069 325.972 167.47 326.288C167.023 326.528 166.535 326.658 166.039 326.669L146.064 327.139C145.53 327.153 145.001 327.029 144.519 326.777C143.908 326.466 143.391 325.968 143.029 325.341C142.667 324.713 142.474 323.984 142.475 323.239V307.213H169.473Z" fill="#3F3D56"/>
<path id="Vector_6" opacity="0.1" d="M169.473 307.213V322.769C169.473 323.506 169.285 324.227 168.931 324.85C168.576 325.473 168.069 325.972 167.47 326.288C167.023 326.528 166.535 326.658 166.039 326.669L146.064 327.139C145.53 327.153 145.001 327.029 144.519 326.777C143.908 326.466 143.391 325.968 143.029 325.341C142.667 324.713 142.474 323.984 142.475 323.239V307.213H169.473Z" fill="black"/>
<path id="Vector_7" d="M170.618 307.213V322.769C170.618 323.506 170.43 324.227 170.075 324.85C169.721 325.473 169.214 325.972 168.614 326.288C168.168 326.528 167.68 326.658 167.184 326.669L147.209 327.139C146.675 327.153 146.146 327.029 145.663 326.777C145.053 326.466 144.536 325.968 144.174 325.341C143.811 324.713 143.619 323.984 143.62 323.239V307.213H170.618Z" fill="#3F3D56"/>
<path id="Vector_8" d="M416.723 307.207H389.725V327.215H416.723V307.207Z" fill="#3F3D56"/>
<path id="Vector_9" opacity="0.1" d="M416.723 307.207H389.725V327.215H416.723V307.207Z" fill="black"/>
<path id="Vector_10" d="M415.578 307.207H388.58V327.215H415.578V307.207Z" fill="#3F3D56"/>
<path id="Vector_11" opacity="0.1" d="M170.612 307.207V310.364L143.614 311.164V307.207H170.612Z" fill="black"/>
<path id="Vector_12" d="M218.266 198.406V305.244C218.259 305.896 218.026 306.52 217.616 306.988C217.206 307.455 216.65 307.729 216.062 307.753L106.371 310.993H106.343C105.745 310.984 105.175 310.717 104.752 310.249C104.33 309.78 104.089 309.146 104.082 308.484V198.406C104.089 197.743 104.33 197.11 104.752 196.641C105.175 196.172 105.745 195.905 106.343 195.897H216.005C216.602 195.905 217.173 196.172 217.595 196.641C218.018 197.11 218.258 197.743 218.266 198.406V198.406Z" fill="#65617D"/>
<path id="Vector_13" opacity="0.1" d="M106.371 195.897V310.993H106.343C105.745 310.984 105.175 310.717 104.752 310.249C104.33 309.78 104.089 309.146 104.082 308.484V198.406C104.089 197.743 104.33 197.11 104.752 196.641C105.175 196.172 105.745 195.905 106.343 195.897H106.371Z" fill="black"/>
<path id="Vector_14" opacity="0.1" d="M415.578 307.207V311.278L388.58 310.478V307.207H415.578Z" fill="black"/>
<path id="Vector_15" d="M451.213 198.406V308.484C451.205 309.152 450.96 309.79 450.532 310.26C450.103 310.729 449.525 310.993 448.923 310.993V310.993L339.209 307.753C338.622 307.729 338.066 307.455 337.655 306.988C337.245 306.52 337.013 305.896 337.006 305.244V198.406C337.013 197.743 337.254 197.11 337.676 196.641C338.098 196.172 338.669 195.905 339.266 195.897H448.929C449.53 195.899 450.107 196.163 450.534 196.632C450.961 197.102 451.205 197.739 451.213 198.406V198.406Z" fill="#65617D"/>
<path id="Vector_16" opacity="0.1" d="M451.213 198.406V308.484C451.205 309.152 450.96 309.79 450.532 310.26C450.103 310.729 449.525 310.993 448.923 310.993V310.993V195.897C449.525 195.897 450.103 196.16 450.532 196.63C450.96 197.1 451.205 197.738 451.213 198.406Z" fill="black"/>
<path id="Vector_17" d="M334.167 198.406V305.244C334.16 305.896 333.927 306.52 333.517 306.988C333.107 307.455 332.551 307.729 331.963 307.753L222.272 310.993C221.67 310.993 221.092 310.729 220.664 310.26C220.235 309.79 219.99 309.152 219.983 308.484V198.406C219.99 197.743 220.231 197.11 220.653 196.641C221.076 196.172 221.646 195.905 222.244 195.897H331.906C332.503 195.905 333.074 196.172 333.496 196.641C333.919 197.11 334.159 197.743 334.167 198.406V198.406Z" fill="#65617D"/>
<g id="Monitory">
<path id="Monitor1" d="M111.374 202.719H212.966V296.885L111.374 299.426V202.719Z" fill="#6C63FF"/>
<path id="Monitor3" d="M443.909 202.719H342.317V296.885L443.909 299.426V202.719Z" fill="#6C63FF"/>
<path id="Monitor2" d="M227.275 202.719H328.867V296.885L227.275 299.426V202.719Z" fill="#6C63FF"/>
</g>
<path id="Vector_18" opacity="0.1" d="M493.99 338.966V347.223L407.038 348.113L406.111 348.132L373.064 348.468L372.274 348.481L362.229 348.576H361.932L300.702 349.205L200.191 350.241H200.105L174.55 350.507L174.275 350.514L60.7207 351.67V342.142L176.627 341.297H176.902L200.363 341.119H200.471L362.492 339.932H362.658L362.756 339.925H363.025L365.766 339.906H366.602L409.236 339.589L411.755 339.576L412.316 339.569L493.99 338.966Z" fill="black"/>
<path id="Vector_19" d="M278.884 221.984C295.109 221.984 308.262 207.387 308.262 189.38C308.262 171.373 295.109 156.776 278.884 156.776C262.658 156.776 249.505 171.373 249.505 189.38C249.505 207.387 262.658 221.984 278.884 221.984Z" fill="#FBBEBE"/>
<path id="Vector_20" d="M308.268 239.566C308.268 239.566 251.319 247.188 256.756 239.566C258.725 236.809 259.269 228.641 259.16 219.335C259.126 216.509 259.034 213.581 258.903 210.665C258.273 196.691 256.756 183.035 256.756 183.035C256.756 183.035 306.551 156.992 300.827 177.636C298.538 185.976 299.288 197.688 301.028 208.683C301.537 211.891 302.127 215.035 302.745 218.021C304.253 225.302 306.097 232.494 308.268 239.566V239.566Z" fill="#FBBEBE"/>
<path id="Vector_21" d="M289.684 236.981C296.271 235.628 303.248 233.17 309.447 236.003C311.078 236.746 312.578 237.832 314.249 238.454C315.92 239.077 317.752 239.229 319.492 239.668C325.604 241.205 330.561 246.369 333.743 252.371C336.926 258.374 338.574 265.164 340.188 271.884L344.137 288.291C347.571 302.551 351.005 316.932 351.801 331.674C303.991 334.711 256.071 335.014 208.233 332.582C211.346 326.015 214.528 319.047 214.265 311.621C214.002 304.196 210.15 296.872 211.541 289.555C212.428 284.893 215.301 281.05 217.058 276.712C222.066 264.313 218.169 247.627 226.971 238.188C230.932 233.945 236.701 232.338 242.213 232.541C249.241 232.801 256.436 235.234 263.39 236.422C272.296 237.921 280.709 238.81 289.684 236.981Z" fill="#FF6584"/>
<path id="Vector_22" opacity="0.1" d="M364.604 307.594L364.547 308.503V308.566L364.45 310.027L363.689 321.784L362.767 335.949L362.504 339.938L361.932 348.475V348.583L300.69 349.218L200.191 350.425V350.958H200.111V350.425V350.247L200.368 341.126L200.861 323.302L201.284 308.191L201.324 306.686C201.349 305.777 201.541 304.884 201.888 304.06C202.234 303.237 202.728 302.5 203.34 301.896C203.952 301.291 204.668 300.831 205.445 300.544C206.223 300.257 207.044 300.149 207.861 300.226C210.562 300.48 214.071 300.791 218.266 301.122L219.983 301.262C244.211 303.129 288.986 305.543 334.167 302.532C335.117 302.475 336.073 302.411 337.029 302.335C344.034 301.846 351.034 301.217 357.965 300.429C358.841 300.328 359.727 300.44 360.56 300.759C361.393 301.078 362.152 301.596 362.785 302.276C363.418 302.956 363.909 303.782 364.223 304.695C364.538 305.609 364.668 306.587 364.604 307.563V307.594Z" fill="black"/>
<path id="Vector_23" d="M200.174 350.958V350.425L300.69 349.212L361.932 348.576H362.103V348.468L362.676 339.932L362.922 336.12L363.86 321.759L364.599 310.389V310.11C364.633 309.586 364.612 309.059 364.536 308.541C364.539 308.52 364.539 308.498 364.536 308.477C364.378 307.405 363.985 306.393 363.391 305.53C362.761 304.633 361.935 303.929 360.992 303.485C360.048 303.04 359.019 302.87 357.999 302.989C351.068 303.777 344.068 304.406 337.063 304.895C336.107 304.971 335.151 305.034 334.201 305.092C289.02 308.071 244.245 305.657 220.017 303.821L218.3 303.682C214.105 303.351 210.596 303.046 207.895 302.786C206.409 302.647 204.929 303.123 203.741 304.124C202.553 305.125 201.741 306.578 201.462 308.204C201.404 308.548 201.369 308.896 201.359 309.246L200.969 323.321L200.437 341.151L200.185 350.272V350.45V350.984L200.174 350.958Z" fill="#3F3D56"/>
<path id="Vector_24" opacity="0.1" d="M364.776 312.047L364.072 321.784L363.025 336.298L362.762 339.931L362.189 348.068L362.155 348.475V348.583L362.069 349.523L362.132 348.583H361.966L300.724 349.218L200.191 350.425V350.247L200.471 341.126L201.044 323.302L201.41 311.456C201.428 310.782 201.598 310.124 201.904 309.542C202.21 308.959 202.642 308.471 203.162 308.121C203.81 307.681 204.567 307.48 205.325 307.55C206.527 307.658 208.004 307.785 209.726 307.925C212.525 308.153 215.976 308.42 219.994 308.699C227.435 309.22 236.77 309.779 247.467 310.237C277.229 311.507 317.408 311.933 355.573 308.223C357.29 308.058 359.064 307.874 360.798 307.69C361.485 307.614 362.176 307.759 362.79 308.109C362.964 308.205 363.129 308.32 363.282 308.452C363.781 308.852 364.175 309.391 364.427 310.014C364.485 310.138 364.533 310.268 364.57 310.402C364.742 310.928 364.812 311.489 364.776 312.047V312.047Z" fill="black"/>
<path id="Vector_25" opacity="0.1" d="M170.618 320.743V322.769C170.618 323.506 170.43 324.227 170.075 324.85C169.721 325.473 169.214 325.972 168.614 326.288L145.663 326.777C145.053 326.466 144.536 325.968 144.174 325.341C143.811 324.713 143.619 323.984 143.62 323.239V321.333L170.618 320.743Z" fill="black"/>
<path id="Vector_26" d="M170.898 327.482L140.993 328.117V322.61L170.898 321.975V327.482Z" fill="#3F3D56"/>
<path id="Vector_27" opacity="0.1" d="M170.898 327.482L140.993 328.117V322.61L170.898 321.975V327.482Z" fill="black"/>
<path id="Vector_28" d="M172.043 327.482L142.138 328.117V322.61L172.043 321.975V327.482Z" fill="#3F3D56"/>
<path id="Vector_29" opacity="0.1" d="M388.752 322.013V324.039C388.752 324.776 388.94 325.498 389.294 326.121C389.649 326.744 390.155 327.242 390.755 327.558L413.706 328.047C414.317 327.737 414.834 327.238 415.196 326.611C415.558 325.984 415.75 325.254 415.75 324.509V322.604L388.752 322.013Z" fill="black"/>
<path id="Vector_30" opacity="0.1" d="M388.466 328.752L418.371 329.387V323.88L388.466 323.245V328.752Z" fill="black"/>
<path id="Vector_31" d="M387.321 328.752L417.226 329.387V323.88L387.321 323.245V328.752Z" fill="#3F3D56"/>
<path id="Vector_32" d="M260.299 199.372C260.345 203.818 258.491 208.01 256.917 212.12C251.186 227.09 248.704 243.345 249.671 259.574C250.089 266.561 251.147 273.548 250.089 280.472C249.03 287.395 245.264 294.3 239.214 296.288C249.247 302.926 262.829 302.227 272.273 294.598C277.304 290.533 281.053 284.861 284.721 279.284C284.286 289.302 281.672 299.055 277.103 307.709C285.361 306.897 293.374 304.17 300.622 299.703C307.869 295.237 314.191 289.131 319.177 281.78C321.644 278.09 323.79 274.037 324.74 269.566C326.509 261.308 324.042 252.727 322.159 244.476C320.585 237.578 319.406 230.578 318.628 223.515C318.381 221.254 318.181 218.929 318.685 216.718C319.257 214.133 320.785 211.948 321.913 209.592C325.118 202.897 325.192 194.792 323.55 187.436C321.907 180.081 318.691 173.297 315.503 166.596C312.95 161.222 310.18 155.601 305.509 152.444C302.59 150.475 299.213 149.656 295.848 148.862L281.327 145.413C278.151 144.657 274.883 143.901 271.672 144.454C266.252 145.394 262.434 149.738 259.08 154.197C256.453 157.665 250.031 164.176 249.579 168.718C249.167 172.903 252.498 179.916 253.065 184.33C253.809 190.047 254.335 188.142 257.243 191.648C259.08 193.82 260.265 196.329 260.299 199.372Z" fill="#F6F28B"/>
<path id="Vector_33" d="M171.854 211.891H114.848C114.772 211.891 114.699 211.858 114.646 211.798C114.592 211.738 114.562 211.658 114.562 211.573C114.562 211.489 114.592 211.408 114.646 211.349C114.699 211.289 114.772 211.256 114.848 211.256H171.854C171.93 211.256 172.003 211.289 172.056 211.349C172.11 211.408 172.14 211.489 172.14 211.573C172.14 211.658 172.11 211.738 172.056 211.798C172.003 211.858 171.93 211.891 171.854 211.891Z" fill="#F2F2F2"/>
<path id="Vector_34" d="M171.854 217.608H114.848C114.772 217.608 114.699 217.574 114.646 217.515C114.592 217.455 114.562 217.374 114.562 217.29C114.562 217.206 114.592 217.125 114.646 217.066C114.699 217.006 114.772 216.973 114.848 216.973H171.854C171.93 216.973 172.003 217.006 172.056 217.066C172.11 217.125 172.14 217.206 172.14 217.29C172.14 217.374 172.11 217.455 172.056 217.515C172.003 217.574 171.93 217.608 171.854 217.608Z" fill="#F2F2F2"/>
<path id="Vector_35" d="M171.854 223.324H114.848C114.772 223.324 114.699 223.291 114.646 223.231C114.592 223.172 114.562 223.091 114.562 223.007C114.562 222.923 114.592 222.842 114.646 222.782C114.699 222.723 114.772 222.689 114.848 222.689H171.854C171.93 222.689 172.003 222.723 172.056 222.782C172.11 222.842 172.14 222.923 172.14 223.007C172.14 223.091 172.11 223.172 172.056 223.231C172.003 223.291 171.93 223.324 171.854 223.324Z" fill="#F2F2F2"/>
</g>
<defs>
<clipPath id="clip0">
<rect width="596" height="352" fill="white"/>
</clipPath>
</defs>
</svg>
