<svg width="482" height="375" viewBox="0 0 482 375" fill="none" xmlns="http://www.w3.org/2000/svg">
<rect width="482" height="375" fill="#E5E5E5"/>
<g id="software 1">
<rect width="482" height="375" fill="white"/>
<path id="Vector" d="M351.006 6.8591L328.207 30.2953L353.381 49.9136" stroke="#3F3D56" stroke-miterlimit="10"/>
<path id="Vector_2" d="M293.772 30.2955L260.405 58.9186" stroke="#3F3D56" stroke-miterlimit="10"/>
<path id="Vector_3" d="M249.481 116.025L260.405 72.8119L301.49 114.75" stroke="#3F3D56" stroke-miterlimit="10"/>
<g id="stitky">
<path id="Vector_4" opacity="0.3" d="M328.207 23.6703H293.772V37.5638H328.207V23.6703Z" fill="#6C63FF"/>
<path id="Vector_5" opacity="0.3" d="M385.441 0H351.006V13.8935H385.441V0Z" fill="#6C63FF"/>
<path id="Vector_6" opacity="0.3" d="M387.816 42.9668H353.381V56.8603H387.816V42.9668Z" fill="#6C63FF"/>
<path id="Vector_7" opacity="0.3" d="M277.623 58.9185H243.188V72.812H277.623V58.9185Z" fill="#6C63FF"/>
<path id="Vector_8" opacity="0.3" d="M266.699 116.036H232.263V129.93H266.699V116.036Z" fill="#6C63FF"/>
<path id="Vector_9" opacity="0.3" d="M318.708 114.75H284.273V128.643H318.708V114.75Z" fill="#6C63FF"/>
<path id="Vector_10" opacity="0.3" d="M95.9439 37.9832H61.5086V51.8767H95.9439V37.9832Z" fill="#6C63FF"/>
<path id="Vector_11" opacity="0.3" d="M153.178 14.3129H118.742V28.2063H153.178V14.3129Z" fill="#6C63FF"/>
<path id="Vector_12" opacity="0.3" d="M155.553 57.2797H121.117V71.1731H155.553V57.2797Z" fill="#6C63FF"/>
<path id="Vector_13" opacity="0.3" d="M45.3596 73.2314H10.9243V87.1249H45.3596V73.2314Z" fill="#6C63FF"/>
<path id="Vector_14" opacity="0.3" d="M34.4353 130.349H0V144.242H34.4353V130.349Z" fill="#6C63FF"/>
<path id="Vector_15" opacity="0.3" d="M86.4445 129.063H52.0092V142.956H86.4445V129.063Z" fill="#6C63FF"/>
</g>
<path id="Vector_16" d="M118.742 21.172L95.944 44.6081L121.117 64.2265" stroke="#3F3D56" stroke-miterlimit="10"/>
<path id="Vector_17" d="M61.5086 44.6083L28.142 73.2314" stroke="#3F3D56" stroke-miterlimit="10"/>
<path id="Vector_18" d="M17.2178 130.338L28.1418 87.1247L69.2269 129.062" stroke="#3F3D56" stroke-miterlimit="10"/>
<path id="Vector_19" d="M155.553 64.2264H194.604" stroke="#3F3D56" stroke-miterlimit="10"/>
<path id="Vector_20" d="M217.561 57.1158H177.074V70.967H217.561V57.1158Z" fill="#6C63FF"/>
<path id="Vector_21" d="M217.613 64.0414H243.188" stroke="#3F3D56" stroke-miterlimit="10"/>
<path id="Vector_22" d="M176.88 64.0414L153.178 21.1721" stroke="#3F3D56" stroke-miterlimit="10"/>
<path id="Vector_23" d="M294.485 375C398.046 375 482 354.742 482 329.753C482 304.764 398.046 284.506 294.485 284.506C190.923 284.506 106.969 304.764 106.969 329.753C106.969 354.742 190.923 375 294.485 375Z" fill="#F2F2F2"/>
<path id="Vector_24" d="M381.417 180.809L363.131 280.062H359.173L358.738 279.329L357.477 277.203L373.311 184.485L375.715 183.394L381.417 180.809Z" fill="#47465A"/>
<path id="Vector_25" opacity="0.1" d="M375.715 183.394L358.738 279.329L357.477 277.203L373.311 184.485L375.715 183.394Z" fill="black"/>
<path id="Vector_26" d="M408.939 316.006L404.238 317.648L403.095 318.048L401.587 314.372L375.715 186.511L378.405 185.857L384.056 184.485L408.939 316.006Z" fill="#47465A"/>
<path id="Vector_27" opacity="0.1" d="M404.238 317.648L403.095 318.048L401.587 314.372L375.715 186.511L378.405 185.857L404.238 317.648Z" fill="black"/>
<path id="Vector_28" d="M184.803 180.809L180.656 309.471L175.904 310.614L175.566 310.696L174.247 308.041L176.886 182.034L179.425 181.642L184.803 180.809Z" fill="#47465A"/>
<path id="Vector_29" opacity="0.1" d="M179.425 181.642L175.904 310.614L175.566 310.696L174.247 308.041L176.886 182.034L179.425 181.642Z" fill="black"/>
<path id="Vector_30" d="M209.498 355.013L204.582 355.932L204.031 356.034L202.523 352.562L178.582 184.485L179.272 184.258L182.918 183.055L209.498 355.013Z" fill="#47465A"/>
<path id="Vector_31" opacity="0.1" d="M204.582 355.932L204.031 356.034L202.523 352.562L178.582 184.485L179.272 184.258L204.582 355.932Z" fill="black"/>
<path id="Vector_32" d="M313.554 170.393L331.859 195.733C332.486 196.601 333.309 197.28 334.248 197.705C335.188 198.129 336.212 198.285 337.223 198.156L412.365 188.622C413.81 188.439 415.142 187.687 416.109 186.51C417.076 185.332 417.61 183.811 417.61 182.235V163.45L313.554 170.393Z" fill="#7A799C"/>
<path id="Vector_33" d="M375.196 174.478H380.286V182.436C380.286 182.979 380.087 183.5 379.732 183.885C379.377 184.269 378.896 184.485 378.395 184.485H377.087C376.586 184.485 376.105 184.269 375.75 183.885C375.395 183.5 375.196 182.979 375.196 182.436V174.478Z" fill="#47465A"/>
<path id="Vector_34" d="M178.582 186.527L196.887 211.866C197.514 212.735 198.337 213.414 199.277 213.838C200.216 214.263 201.241 214.418 202.252 214.29L277.394 204.756C278.838 204.573 280.171 203.821 281.138 202.643C282.105 201.466 282.639 199.945 282.639 198.369V179.583L178.582 186.527Z" fill="#7A799C"/>
<path id="Vector_35" d="M240.225 190.612H245.314V198.57C245.314 199.113 245.115 199.634 244.76 200.018C244.406 200.403 243.925 200.619 243.423 200.619H242.116C241.614 200.619 241.133 200.403 240.778 200.018C240.424 199.634 240.225 199.113 240.225 198.57V190.612H240.225Z" fill="#47465A"/>
<path id="Vector_36" d="M199.612 199.36L423.122 171.155C423.824 171.066 424.481 170.734 424.996 170.209C425.51 169.684 425.855 168.993 425.978 168.239C426.101 167.485 425.997 166.708 425.68 166.023C425.364 165.338 424.852 164.782 424.22 164.437L384.238 142.653C376.363 138.363 367.521 136.598 358.752 137.567L160.181 159.502C159.471 159.583 158.796 159.878 158.234 160.355C157.672 160.831 157.245 161.47 157.002 162.197C156.759 162.924 156.711 163.711 156.861 164.467C157.012 165.223 157.356 165.918 157.855 166.472L180.978 192.174C183.372 194.834 186.295 196.865 189.525 198.11C192.755 199.356 196.206 199.784 199.612 199.36V199.36Z" fill="#47465A"/>
<path id="Vector_37" d="M447.712 167.332L445.321 165.9C445.321 165.9 442.74 167.959 440.637 176.63C438.535 185.302 444.567 176.724 444.567 176.724L447.206 170.802L447.712 167.332Z" fill="#47465A"/>
<path id="Vector_38" d="M422.134 246.774C422.134 246.774 419.684 259.231 418.553 262.703C417.999 264.402 415.322 265.956 412.355 267.145C409.724 268.207 407.001 268.977 404.226 269.443C401.022 269.851 359.927 262.907 339.945 258.21C326.484 255.047 324.744 251.418 325.042 249.388C325.138 248.783 325.405 248.226 325.807 247.795C325.807 247.795 345.6 233.295 352.575 226.351C359.55 219.407 373.311 224.921 388.392 227.781C403.472 230.64 422.134 246.774 422.134 246.774Z" fill="#47465A"/>
<path id="Vector_39" d="M445.321 165.9C445.321 165.9 454.558 172.435 423.454 185.914C423.454 185.914 406.548 196.241 408.749 238.781C408.853 240.694 409.391 242.55 410.314 244.184C413.524 249.902 420.4 264.378 408.939 266.175V269.443C408.939 269.443 429.675 258.21 431.937 248.612C434.199 239.013 441.739 185.71 445.51 180.809C449.28 175.907 451.73 168.147 445.321 165.9Z" fill="#47465A"/>
<path id="Vector_40" opacity="0.1" d="M412.355 267.145C409.724 268.207 407.001 268.977 404.226 269.443C401.022 269.851 359.927 262.907 339.945 258.21C326.484 255.047 324.744 251.418 325.042 249.388C333.89 252.665 362.623 263.069 372.934 263.929C385.187 264.95 408.596 267.788 410.37 265.858C411.052 265.115 411.752 265.899 412.355 267.145Z" fill="black"/>
<path id="Vector_41" d="M304.694 352.154L322.602 263.52C322.602 263.52 325.807 254.126 333.159 254.534L339.945 258.21C339.945 258.21 328.635 255.351 326.184 264.745C323.733 274.14 308.087 352.154 308.087 352.154H304.694Z" fill="#47465A"/>
<path id="Vector_42" d="M347.674 311.717L354.837 257.598H358.042L350.69 311.717H347.674Z" fill="#47465A"/>
<path id="Vector_43" d="M416.291 364.612L409.505 280.062C409.505 280.062 409.505 272.914 412.898 269.443C416.291 265.971 427.245 256.067 427.245 256.067C427.245 256.067 430.052 255.351 432.314 262.295C434.576 269.238 450.222 338.675 450.222 338.675L447.206 340.105L427.79 260.048L414.406 273.731C414.406 273.731 411.767 278.837 413.086 283.534C414.406 288.231 419.307 364.612 419.307 364.612H416.291Z" fill="#47465A"/>
<path id="Vector_44" d="M395.367 267.4L412.332 272.71L416.102 268.83L406.3 267.4H395.367Z" fill="#47465A"/>
<path id="Vector_45" d="M244.543 118.337L247.294 163.041L307.428 156.71L305.035 113.01C305.003 112.425 304.863 111.852 304.624 111.326C304.384 110.801 304.05 110.332 303.641 109.948C303.232 109.564 302.756 109.273 302.242 109.091C301.727 108.91 301.184 108.841 300.645 108.89L248.251 113.665C247.191 113.762 246.208 114.305 245.514 115.179C244.821 116.053 244.472 117.187 244.543 118.337Z" fill="#7A799C"/>
<path id="Vector_46" d="M327.598 169.576L267.652 176.661L265.39 176.928L247.859 164.675V162.02L307.427 156.208L327.598 169.576Z" fill="#7A799C"/>
<path id="Vector_47" opacity="0.1" d="M267.652 176.661L265.39 176.928L247.859 164.675V162.298L267.652 176.661Z" fill="black"/>
<path id="monitor" d="M248.613 117.907L250.687 157.731L303.469 152.421L301.584 113.618L248.613 117.907Z" fill="#9493B6"/>
<path id="Vector_48" opacity="0.1" d="M280.094 168.759L286.503 173.457L305.92 171.414L299.322 166.921L280.094 168.759Z" fill="black"/>
<path id="Vector_49" d="M253.891 163.041L261.997 169.576L313.837 164.267L304.6 157.731L253.891 163.041Z" fill="#9493B6"/>
<path id="Vector_50" d="M384.15 102.692H345.883V144.15H384.15V102.692Z" fill="#FF6584"/>
<path id="Vector_51" opacity="0.1" d="M384.15 102.692H345.883V144.15H384.15V102.692Z" fill="black"/>
<path id="Vector_52" d="M359.062 121.878C359.062 121.878 364.46 137.717 359.062 140.642C353.664 143.566 378.406 140.642 378.406 140.642L385.378 134.55C385.378 134.55 369.633 129.676 371.883 118.467C374.132 107.257 359.062 121.878 359.062 121.878Z" fill="#FBBEBE"/>
<path id="Vector_53" opacity="0.1" d="M359.062 121.878C359.062 121.878 364.46 137.717 359.062 140.642C353.664 143.566 378.406 140.642 378.406 140.642L385.378 134.55C385.378 134.55 369.633 129.676 371.883 118.467C374.132 107.257 359.062 121.878 359.062 121.878Z" fill="black"/>
<path id="Vector_54" d="M314.751 280.758C314.751 280.758 334.995 311.705 331.621 320.234C328.247 328.763 330.046 334.124 323.299 337.048C316.551 339.972 314.751 345.333 320.599 345.09C326.448 344.846 334.095 343.14 335.22 340.947C336.344 338.754 339.043 328.276 342.867 326.814C346.691 325.351 353.889 319.747 348.715 312.924C343.542 306.101 330.507 280.969 331.514 278.427C332.521 275.884 314.751 280.758 314.751 280.758Z" fill="#FBBEBE"/>
<path id="Vector_55" d="M357.038 219.594C357.038 219.594 315.201 222.518 304.405 233.484C293.608 244.45 313.852 285.388 316.101 285.875C318.35 286.363 335.894 284.413 335.22 279.052C334.545 273.691 322.624 251.76 322.624 251.76C322.624 251.76 338.144 245.668 346.691 244.206C355.238 242.744 364.685 235.921 364.685 235.921L357.038 219.594Z" fill="#9493B6"/>
<path id="Vector_56" d="M337.919 212.771C337.919 212.771 338.594 239.82 344.892 240.794C351.189 241.769 344.892 220.081 344.892 220.081L344.667 211.796L337.919 212.771Z" fill="#FBBEBE"/>
<path id="Vector_57" d="M357.038 141.86C357.038 141.86 345.341 138.205 343.092 147.952C340.843 157.699 340.168 191.327 340.168 191.327L336.119 218.132C336.119 218.132 343.542 215.695 345.116 216.914L354.563 203.999L357.038 141.86Z" fill="#6C63FF"/>
<path id="Vector_58" opacity="0.1" d="M357.038 141.86C357.038 141.86 345.341 138.205 343.092 147.952C340.843 157.699 340.168 191.327 340.168 191.327L336.119 218.132C336.119 218.132 343.542 215.695 345.116 216.914L354.563 203.999L357.038 141.86Z" fill="black"/>
<path id="Vector_59" d="M373.019 285.947C373.019 285.947 380.88 302.689 385.603 302.445C390.327 302.202 394.825 299.034 397.074 309.025C399.324 319.016 396.625 316.335 399.324 322.184C402.023 328.032 402.473 338.267 397.299 340.703C392.126 343.14 387.403 343.384 387.178 340.703C386.953 338.023 391.676 338.023 386.278 328.519C380.88 319.016 369.409 301.714 364.685 300.009C359.962 298.303 373.019 285.947 373.019 285.947Z" fill="#FBBEBE"/>
<path id="Vector_60" d="M393.476 209.603C393.476 209.603 409.67 238.845 399.099 247.374C388.527 255.903 357.038 272.229 357.038 272.229C357.038 272.229 373.907 284.657 374.807 288.799C375.706 292.942 366.709 304.151 363.56 304.395C360.411 304.639 351.189 293.186 341.293 290.261C331.396 287.337 325.323 266.381 336.119 258.583C346.916 250.785 357.038 237.87 357.038 237.87L353.89 219.109L393.476 209.603Z" fill="#9493B6"/>
<path id="Vector_61" d="M379.438 112.087C379.438 122.45 369.639 131.016 360.074 131.016C355.481 131.016 351.075 129.039 347.827 125.52C344.579 122.002 342.755 117.229 342.755 112.253C342.755 107.276 344.579 102.504 347.827 98.985C351.075 95.4662 355.481 93.4893 360.074 93.4893C369.639 93.4893 379.438 101.724 379.438 112.087Z" fill="#FBBEBE"/>
<path id="Vector_62" d="M364.46 139.179C364.46 139.179 379.98 131.869 379.98 130.894C379.98 129.92 388.977 133.087 391.001 135.037C393.026 136.986 394.15 136.743 395.5 140.642C396.85 144.54 388.752 180.849 388.752 180.849C388.752 180.849 393.251 208.872 395.725 211.553C398.199 214.233 375.706 218.132 375.706 218.132C375.706 218.132 360.861 221.056 358.387 222.275C355.913 223.493 351.414 225.199 352.314 222.275C353.214 219.35 357.038 217.157 350.515 213.502C350.515 213.502 352.764 201.562 350.515 196.201C348.265 190.84 337.919 171.345 346.241 157.212C354.563 143.078 358.387 137.961 358.387 137.961C358.387 137.961 361.311 140.642 364.46 139.179Z" fill="#6C63FF"/>
<path id="Vector_63" d="M369.409 205.704C369.409 205.704 351.864 214.134 346.578 214.915C341.293 215.695 325.323 220.081 334.095 223.98C342.867 227.879 356.138 222.031 356.138 222.031L374.807 213.502L369.409 205.704Z" fill="#FBBEBE"/>
<path id="Vector_64" opacity="0.1" d="M388.297 138.432C388.297 138.432 394.776 135.037 396.575 146.977C398.375 158.918 404.673 196.688 396.575 202.293C388.478 207.897 369.809 216.914 369.809 216.914C369.809 216.914 358.788 208.872 363.961 205.948C369.134 203.024 381.505 194.739 383.305 191.814C385.104 188.89 386.922 156.251 383.773 150.89C380.624 145.529 388.297 138.432 388.297 138.432Z" fill="black"/>
<path id="Vector_65" d="M387.853 141.524C387.853 141.524 396.85 141.037 398.649 152.977C400.448 164.918 406.746 202.688 398.649 208.293C390.552 213.897 371.883 222.914 371.883 222.914C371.883 222.914 360.861 214.872 366.035 211.948C371.208 209.024 383.579 200.739 385.378 197.814C387.178 194.89 384.029 164.43 380.88 159.069C377.731 153.708 387.853 141.524 387.853 141.524Z" fill="#6C63FF"/>
<path id="Vector_66" d="M355.808 80.6668C353.047 81.0739 350.085 82.1683 348.695 84.7854C348.015 86.066 347.796 87.5683 347.272 88.9323C345.827 92.6964 342.316 94.9442 339.782 97.9579C336.48 101.886 334.839 107.804 336.787 112.68C337.541 114.568 338.766 116.186 339.695 117.98C342.287 122.987 342.425 128.999 342.499 134.738L342.644 146.023C342.666 147.746 342.684 149.504 342.205 151.147C341.726 152.791 340.656 154.33 339.14 154.849C340.813 155.477 342.632 155.482 344.309 154.862C345.985 154.242 347.422 153.032 348.391 151.426C348.598 152.848 348.48 154.302 348.047 155.662C347.615 157.023 346.881 158.247 345.909 159.229C350.033 158.177 353.491 154.927 355.67 150.991C357.848 147.055 362.432 138.949 362.885 134.385C363.124 131.972 362.885 131 358.338 131C357.842 129.377 357.571 127.62 356.75 126.16C354.634 122.395 352.728 118.391 352.046 114.046C351.364 109.701 352.049 104.933 354.653 101.547C355.653 100.238 356.913 99.1908 358.338 98.4828C359.763 97.7749 361.317 97.4244 362.885 97.4575C364.452 97.5232 365.978 98.0235 367.316 98.9108C368.653 99.798 369.759 101.042 370.525 102.525C371.127 103.752 371.984 105.415 373.203 104.984C373.429 104.88 373.649 104.763 373.863 104.633C375.223 103.962 376.767 105.285 377.367 106.767C379.258 111.443 374.223 119.518 373.863 124.608C373.528 129.343 377.515 130.837 380.428 134.385C385.458 140.489 392.03 144.863 399.329 146.966C398.261 146.675 397.302 146.03 396.588 145.121C399.555 145.25 402.527 144.98 405.433 144.318C402.269 141.734 399.081 139.128 396.439 135.928C393.797 132.728 391.704 128.857 391.134 124.608C390.37 118.906 392.33 112.731 390.089 107.506C388.04 102.729 382.958 100.059 381.102 95.1906C379.217 90.245 377.995 85.9484 373.004 83.7955C367.557 81.4457 361.693 79.7991 355.808 80.6668Z" fill="#F6F28B"/>
</g>
</svg>
